<svg width="80" height="80" viewBox="0 0 80 80" fill="none" xmlns="http://www.w3.org/2000/svg">
<g opacity="0.8" clip-path="url(#clip0_4249_6901)">
<path d="M27.5 12.5C28.1904 12.5 28.75 11.9404 28.75 11.25C28.75 10.5596 28.1904 10 27.5 10C26.8096 10 26.25 10.5596 26.25 11.25C26.25 11.9404 26.8096 12.5 27.5 12.5Z" fill="white"/>
<path d="M52.5 12.5C53.1904 12.5 53.75 11.9404 53.75 11.25C53.75 10.5596 53.1904 10 52.5 10C51.8096 10 51.25 10.5596 51.25 11.25C51.25 11.9404 51.8096 12.5 52.5 12.5Z" fill="white"/>
<path d="M77.6017 63.7492L79.9142 57.9617C80.0642 57.5742 80.0142 57.1367 79.7892 56.7992C79.5517 56.4617 79.1642 56.2492 78.7517 56.2492H71.2517V53.8992C71.5642 52.7992 71.8017 51.6867 72.0017 50.5617C75.1892 50.3992 77.9642 48.2367 78.8142 45.0367L79.7892 41.4117C79.8767 41.0867 79.8267 40.7492 79.6642 40.4617C79.5017 40.1742 79.2267 39.9617 78.9017 39.8742L77.6892 39.5492C75.7892 39.0367 73.8142 39.3117 72.1517 40.2367C71.9642 38.9742 71.7017 37.7242 71.3767 36.5117C74.1892 34.9992 75.7642 31.8617 75.2017 28.6242L74.5517 24.9242C74.4267 24.2492 73.7892 23.7867 73.1142 23.9117L71.8642 24.1242C69.9142 24.4742 68.2517 25.5617 67.1267 27.0992C66.4267 26.0367 65.6642 25.0242 64.8392 24.0492C66.7517 21.4992 66.8767 17.9867 64.9892 15.2742L62.8392 12.2117C62.4392 11.6492 61.6642 11.5117 61.1017 11.8992L60.0767 12.6117C58.4517 13.7367 57.3892 15.4367 57.0267 17.2992C53.2017 14.9367 48.8642 13.3617 44.2142 12.7492L43.8767 10.5367L45.9017 8.39922C46.2142 8.06172 46.3267 7.58672 46.1767 7.13672C46.0267 6.69922 45.6517 6.37422 45.2017 6.29922L42.4142 5.83672L41.1142 3.17422C40.7017 2.31172 39.2892 2.31172 38.8642 3.17422L37.5642 5.83672L34.7767 6.29922C34.3267 6.37422 33.9392 6.69922 33.8017 7.13672C33.6517 7.57422 33.7642 8.06172 34.0767 8.39922L36.1017 10.5367L35.7642 12.7492C31.1142 13.3492 26.7767 14.9367 22.9517 17.2992C22.5892 15.4242 21.5267 13.7367 19.9017 12.6117L18.8767 11.8992C18.3142 11.5117 17.5392 11.6492 17.1392 12.2117L14.9892 15.2742C13.1017 17.9742 13.2267 21.4992 15.1392 24.0492C14.3267 25.0242 13.5642 26.0367 12.8517 27.0992C11.7392 25.5617 10.0642 24.4742 8.10172 24.1242L6.86421 23.9117C6.18922 23.7867 5.53922 24.2492 5.42672 24.9242L4.77672 28.6242C4.20172 31.8492 5.78922 34.9867 8.60172 36.5117C8.27672 37.7242 8.01422 38.9742 7.82672 40.2367C6.16422 39.3117 4.18922 39.0367 2.28922 39.5492L1.07672 39.8742C0.751716 39.9617 0.489216 40.1742 0.314216 40.4617C0.139216 40.7492 0.101716 41.0867 0.189216 41.4117L1.16422 45.0367C2.01422 48.2367 4.77672 50.3992 7.97672 50.5617C8.17672 51.6867 8.41422 52.7992 8.72672 53.8992V56.2492H1.25172C0.839216 56.2492 0.451716 56.4492 0.214216 56.7992C-0.0232844 57.1492 -0.0607844 57.5742 0.0892156 57.9617L2.40172 63.7492L0.0892156 69.5367C-0.0607844 69.9242 -0.0232844 70.3617 0.214216 70.6992C0.451716 71.0367 0.839216 71.2492 1.25172 71.2492H20.8642C26.4517 75.3367 33.0517 77.4992 40.0017 77.4992C46.9517 77.4992 53.5517 75.3367 59.1392 71.2492H78.7517C79.1642 71.2492 79.5517 71.0492 79.7892 70.6992C80.0267 70.3617 80.0642 69.9242 79.9142 69.5367L77.6017 63.7492ZM55.0017 63.7492V53.7492H68.7517V63.7492H55.0017ZM11.2517 63.7492V53.7492H25.0017V63.7492H11.2517ZM40.0017 14.9992C56.5392 14.9992 70.0017 28.4617 70.0017 44.9992C70.0017 47.1117 69.7767 49.1992 69.3392 51.2492H65.4892C65.9892 49.2117 66.2517 47.1242 66.2517 44.9992C66.2517 30.5242 54.4767 18.7492 40.0017 18.7492C25.5267 18.7492 13.7517 30.5242 13.7517 44.9992C13.7517 47.1242 14.0142 49.2117 14.5142 51.2492H10.6642C10.2267 49.1992 10.0017 47.1117 10.0017 44.9992C10.0017 28.4617 23.4642 14.9992 40.0017 14.9992ZM27.5017 63.7492V46.2492H36.2517V63.7492H27.5017ZM32.5017 34.9992V33.7492H35.0017C35.6642 33.7492 36.2767 34.0117 36.7267 34.4492C36.4267 34.9867 36.2517 35.5867 36.2517 36.2492V37.4992H35.0017C33.6267 37.4992 32.5017 36.3742 32.5017 34.9992ZM45.0017 43.7492V39.9992H55.0017V43.7492H45.0017ZM37.5017 39.9992H42.5017V43.7492H37.5017V39.9992ZM47.5017 34.9992C47.5017 36.3742 46.3767 37.4992 45.0017 37.4992H43.7517V36.2492C43.7517 35.5992 43.5642 34.9867 43.2767 34.4492C43.7392 34.0117 44.3517 33.7492 45.0017 33.7492H47.5017V34.9992ZM41.2517 36.2492V37.4992H38.7517V36.2492C38.7517 35.5617 39.3142 34.9992 40.0017 34.9992C40.6892 34.9992 41.2517 35.5617 41.2517 36.2492ZM35.0017 39.9992V43.7492H25.0017V39.9992H35.0017ZM38.7517 46.2492H41.2517V63.7492H38.7517V46.2492ZM43.7517 46.2492H52.5017V63.7492H43.7517V46.2492ZM55.0017 46.2492H56.2517C56.9392 46.2492 57.5017 45.6867 57.5017 44.9992V38.7492C57.5017 38.0617 56.9392 37.4992 56.2517 37.4992H49.3017C49.7267 36.7617 50.0017 35.9117 50.0017 34.9992V32.4992C50.0017 31.8117 49.4392 31.2492 48.7517 31.2492H45.0017C43.6267 31.2492 42.3267 31.8117 41.4017 32.7742C40.9642 32.5992 40.5017 32.4992 40.0017 32.4992C39.5017 32.4992 39.0392 32.5992 38.6017 32.7742C37.6767 31.8117 36.3767 31.2492 35.0017 31.2492H31.2517C30.5642 31.2492 30.0017 31.8117 30.0017 32.4992V34.9992C30.0017 35.9117 30.2642 36.7617 30.7017 37.4992H23.7517C23.0642 37.4992 22.5017 38.0617 22.5017 38.7492V44.9992C22.5017 45.6867 23.0642 46.2492 23.7517 46.2492H25.0017V51.2492H17.1017C16.5517 49.2242 16.2517 47.1242 16.2517 44.9992C16.2517 31.8992 26.9017 21.2492 40.0017 21.2492C53.1017 21.2492 63.7517 31.8992 63.7517 44.9992C63.7517 47.1242 63.4517 49.2242 62.9017 51.2492H55.0017V46.2492ZM50.6017 66.2492C47.3392 67.8867 43.7392 68.7492 40.0017 68.7492C36.2642 68.7492 32.6767 67.8867 29.4017 66.2492H50.5892H50.6017ZM77.0517 41.9867L76.4017 44.4117C75.8892 46.3367 74.2517 47.7242 72.3517 48.0242C72.4392 47.0242 72.5142 46.0117 72.5142 44.9992C72.5142 44.3492 72.4892 43.7117 72.4517 43.0867C73.7017 41.9742 75.4142 41.5492 77.0517 41.9867ZM72.3017 26.6117L72.7392 29.0867C73.0892 31.0742 72.2142 32.9867 70.6142 34.0742C70.0517 32.5117 69.3767 30.9992 68.6017 29.5617C69.2517 28.0367 70.6392 26.9242 72.3017 26.6242V26.6117ZM61.5142 14.6992L62.9517 16.7367C64.1142 18.3992 64.1267 20.5242 63.1142 22.1742C61.9517 20.9992 60.7142 19.9242 59.3892 18.9367C59.3267 17.2617 60.1142 15.6742 61.5142 14.6992ZM38.6267 8.22422C39.0267 8.16172 39.3642 7.89922 39.5392 7.53672L39.9892 6.61172L40.4392 7.53672C40.6142 7.89922 40.9642 8.16172 41.3517 8.22422L42.4517 8.41172L41.6267 9.28672C41.3642 9.56172 41.2392 9.94922 41.3017 10.3367L41.4767 11.4742L40.5767 10.9992C40.2142 10.7992 39.7642 10.7992 39.4017 10.9992L38.5017 11.4742L38.6767 10.3367C38.7392 9.96172 38.6142 9.57422 38.3517 9.28672L37.5267 8.41172L38.6267 8.22422ZM17.0642 16.7242L18.5017 14.6742C19.9017 15.6492 20.6767 17.2367 20.6267 18.9117C19.3017 19.8992 18.0642 20.9867 16.9017 22.1492C15.8892 20.4992 15.9142 18.3742 17.0642 16.7117V16.7242ZM7.27672 29.0742L7.71422 26.5992C9.38922 26.8992 10.7642 28.0117 11.4267 29.5492C10.6392 30.9867 9.97672 32.4992 9.41422 34.0617C7.81422 32.9742 6.93922 31.0617 7.28922 29.0742H7.27672ZM3.61422 44.3992L2.96422 41.9867C4.60172 41.5492 6.31422 41.9742 7.56422 43.0867C7.52672 43.7242 7.50172 44.3617 7.50172 44.9992C7.50172 46.0117 7.56422 47.0242 7.66422 48.0242C5.76422 47.7242 4.12672 46.3367 3.61422 44.3992ZM4.91422 63.2867L3.10172 58.7492H8.75172V64.9992C8.75172 65.6867 9.31422 66.2492 10.0017 66.2492H20.0017V68.7492H3.10172L4.91422 64.2117C5.03922 63.9117 5.03922 63.5867 4.91422 63.2867ZM22.5017 69.3492V66.2492H24.6142C29.1142 69.5117 34.4142 71.2492 40.0017 71.2492C45.5892 71.2492 50.8892 69.5117 55.3892 66.2492H57.5017V69.3492C52.3767 73.0367 46.3517 74.9992 40.0017 74.9992C33.6517 74.9992 27.6267 73.0367 22.5017 69.3492ZM75.0892 64.2117L76.9017 68.7492H60.0017V66.2492H70.0017C70.6892 66.2492 71.2517 65.6867 71.2517 64.9992V58.7492H76.9017L75.0892 63.2867C74.9767 63.5867 74.9767 63.9117 75.0892 64.2117Z" fill="white"/>
<path d="M20 57.5H16.25C15.5625 57.5 15 58.0625 15 58.75C15 59.4375 15.5625 60 16.25 60H20C20.6875 60 21.25 59.4375 21.25 58.75C21.25 58.0625 20.6875 57.5 20 57.5Z" fill="white"/>
<path d="M63.75 57.5H60C59.3125 57.5 58.75 58.0625 58.75 58.75C58.75 59.4375 59.3125 60 60 60H63.75C64.4375 60 65 59.4375 65 58.75C65 58.0625 64.4375 57.5 63.75 57.5Z" fill="white"/>
</g>
<defs>
<clipPath id="clip0_4249_6901">
<rect width="80" height="80" fill="white"/>
</clipPath>
</defs>
</svg>
