<svg width="15" height="14" viewBox="0 0 15 14" fill="none" xmlns="http://www.w3.org/2000/svg">
<path d="M7.5625 4.00586C9.4082 4.00586 10.9316 5.5293 10.9316 7.375C10.9316 9.25 9.4082 10.7441 7.5625 10.7441C5.6875 10.7441 4.19336 9.25 4.19336 7.375C4.19336 5.5293 5.6875 4.00586 7.5625 4.00586ZM7.5625 9.57227C8.76367 9.57227 9.73047 8.60547 9.73047 7.375C9.73047 6.17383 8.76367 5.20703 7.5625 5.20703C6.33203 5.20703 5.36523 6.17383 5.36523 7.375C5.36523 8.60547 6.36133 9.57227 7.5625 9.57227ZM11.8398 3.88867C11.8398 3.44922 11.4883 3.09766 11.0488 3.09766C10.6094 3.09766 10.2578 3.44922 10.2578 3.88867C10.2578 4.32812 10.6094 4.67969 11.0488 4.67969C11.4883 4.67969 11.8398 4.32812 11.8398 3.88867ZM14.0664 4.67969C14.125 5.76367 14.125 9.01562 14.0664 10.0996C14.0078 11.1543 13.7734 12.0625 13.0117 12.8535C12.25 13.6152 11.3125 13.8496 10.2578 13.9082C9.17383 13.9668 5.92188 13.9668 4.83789 13.9082C3.7832 13.8496 2.875 13.6152 2.08398 12.8535C1.32227 12.0625 1.08789 11.1543 1.0293 10.0996C0.970703 9.01562 0.970703 5.76367 1.0293 4.67969C1.08789 3.625 1.32227 2.6875 2.08398 1.92578C2.875 1.16406 3.7832 0.929688 4.83789 0.871094C5.92188 0.8125 9.17383 0.8125 10.2578 0.871094C11.3125 0.929688 12.25 1.16406 13.0117 1.92578C13.7734 2.6875 14.0078 3.625 14.0664 4.67969ZM12.6602 11.2422C13.0117 10.3926 12.9238 8.3418 12.9238 7.375C12.9238 6.4375 13.0117 4.38672 12.6602 3.50781C12.4258 2.95117 11.9863 2.48242 11.4297 2.27734C10.5508 1.92578 8.5 2.01367 7.5625 2.01367C6.5957 2.01367 4.54492 1.92578 3.69531 2.27734C3.10938 2.51172 2.66992 2.95117 2.43555 3.50781C2.08398 4.38672 2.17188 6.4375 2.17188 7.375C2.17188 8.3418 2.08398 10.3926 2.43555 11.2422C2.66992 11.8281 3.10938 12.2676 3.69531 12.502C4.54492 12.8535 6.5957 12.7656 7.5625 12.7656C8.5 12.7656 10.5508 12.8535 11.4297 12.502C11.9863 12.2676 12.4551 11.8281 12.6602 11.2422Z" fill="white"/>
</svg>
