<svg width="14" height="14" viewBox="0 0 14 14" fill="none" xmlns="http://www.w3.org/2000/svg">
<path d="M12.8672 0.8125C13.3652 0.8125 13.8047 1.25195 13.8047 1.7793V13C13.8047 13.5273 13.3652 13.9375 12.8672 13.9375H1.58789C1.08984 13.9375 0.679688 13.5273 0.679688 13V1.7793C0.679688 1.25195 1.08984 0.8125 1.58789 0.8125H12.8672ZM4.63477 12.0625V5.82227H2.70117V12.0625H4.63477ZM3.66797 4.94336C4.2832 4.94336 4.78125 4.44531 4.78125 3.83008C4.78125 3.21484 4.2832 2.6875 3.66797 2.6875C3.02344 2.6875 2.52539 3.21484 2.52539 3.83008C2.52539 4.44531 3.02344 4.94336 3.66797 4.94336ZM11.9297 12.0625V8.63477C11.9297 6.96484 11.5488 5.64648 9.58594 5.64648C8.64844 5.64648 8.00391 6.17383 7.74023 6.67188H7.71094V5.82227H5.86523V12.0625H7.79883V8.98633C7.79883 8.16602 7.94531 7.375 8.9707 7.375C9.9668 7.375 9.9668 8.3125 9.9668 9.01562V12.0625H11.9297Z" fill="white"/>
</svg>
