<svg width="80" height="80" viewBox="0 0 80 80" fill="none" xmlns="http://www.w3.org/2000/svg">
<g opacity="0.8">
<path d="M57.4564 3.77344C-5.23665 3.77387 69.342 3.77964 10.8172 3.77344C6.93308 3.77344 3.77344 6.93308 3.77344 10.8172V15.434C3.77344 17.6751 5.51153 19.4983 7.70696 19.6763C7.70199 71.3578 7.70711 16.2128 7.70475 52.6067C7.70475 56.4769 10.8666 59.6254 14.7537 59.6254H27.9318C28.7653 59.6254 29.4412 58.9496 29.4412 58.116C29.4412 57.2824 28.7653 56.6066 27.9318 56.6066H14.7537C12.5315 56.6066 10.7236 54.8119 10.7236 52.6067V44.184H29.5613C30.3949 44.184 31.0708 43.5081 31.0708 42.6745C31.0708 41.841 30.3949 41.1651 29.5613 41.1651H10.7236V35.1797C13.1912 35.179 3.79979 35.1816 35.0559 35.1731C35.8894 35.1731 36.5653 34.4972 36.5653 33.6636C36.5653 32.83 35.8894 32.1542 35.0559 32.1542H31.1467V6.79525H37.124V30.7656C37.124 31.5992 37.7998 32.2751 38.6334 32.2751C39.467 32.2751 40.1428 31.5992 40.1428 30.7656V19.7161H57.5315V27.9126C57.5315 28.7462 58.2074 29.422 59.041 29.422C59.8746 29.422 60.5504 28.7462 60.5504 27.9126V19.6762C62.7454 19.4978 64.4832 17.6748 64.4832 15.434V10.8172C64.4832 6.93308 61.3309 3.77344 57.4564 3.77344ZM10.7258 19.7109H28.1263V32.1542H10.7258V19.7109ZM6.79231 15.434V10.8172C6.79231 8.59803 8.59802 6.79231 10.8172 6.79231H28.1263V16.6921C24.9414 16.6921 12.5363 16.6921 8.04968 16.6921C7.34434 16.6921 6.79231 16.1393 6.79231 15.434ZM61.4643 15.434C61.4643 16.1393 60.9123 16.6921 60.207 16.6921H40.1465V6.79231H57.4564C59.6667 6.79231 61.4643 8.59803 61.4643 10.8172V15.434Z" fill="white"/>
<path d="M74.0134 44.5951C73.3958 43.3119 72.0035 42.8292 70.8847 42.4408C70.4241 42.2808 69.6532 42.014 69.4962 41.8224C69.3407 41.6263 69.2507 40.806 69.1969 40.3159C69.0687 39.1433 68.9088 37.684 67.8017 36.7981C66.6992 35.9166 65.2428 36.0824 64.0746 36.2143C63.5808 36.2711 62.7553 36.364 62.5283 36.2534C62.3094 36.1414 61.8819 35.4559 61.6269 35.0469C60.9975 34.0379 60.2148 32.782 58.8159 32.4636C57.4531 32.1533 56.2805 32.897 55.2435 33.5522C54.7895 33.8389 54.1033 34.2715 53.8314 34.2715C53.5587 34.2715 52.8725 33.8389 52.4185 33.5522C51.38 32.8962 50.2052 32.1526 48.8461 32.4636C47.448 32.7813 46.6645 34.0372 46.0358 35.0462C45.7801 35.4559 45.3526 36.1414 45.1337 36.2534C44.9045 36.364 44.0797 36.2696 43.5889 36.2143C42.4185 36.0802 40.9636 35.9151 39.861 36.7981C38.7547 37.6825 38.5948 39.1418 38.4665 40.3144C38.4127 40.8046 38.3228 41.6249 38.168 41.8202C38.0111 42.0125 37.2387 42.2801 36.7773 42.44C35.6585 42.8284 34.2662 43.3112 33.6486 44.5944C33.0391 45.8591 33.5248 47.2366 33.9147 48.3429C34.0805 48.8131 34.3583 49.601 34.3001 49.8567C34.2375 50.0911 33.6736 50.6527 33.3361 50.9881C32.49 51.829 31.4375 52.8763 31.4375 54.3187C31.4375 55.7611 32.4907 56.8076 33.3376 57.6486C33.6744 57.9832 34.2382 58.5433 34.3009 58.7762C34.3591 59.032 34.082 59.8191 33.9161 60.2894C33.5262 61.3964 33.0413 62.7732 33.6523 64.0386C34.2706 65.3203 35.6629 65.8016 36.781 66.1885C37.2423 66.3477 38.0147 66.6145 38.171 66.8054C38.3258 67.0015 38.4164 67.8203 38.4702 68.3097C38.5985 69.4823 38.7591 70.9424 39.8662 71.8268C40.9688 72.7053 42.4251 72.541 43.5926 72.4068C44.0842 72.3508 44.9096 72.2565 45.1374 72.3671C45.3563 72.4791 45.7838 73.1638 46.0388 73.5736C46.6675 74.5818 47.4509 75.8377 48.8483 76.1554C50.2022 76.4605 51.383 75.7213 52.42 75.066C52.874 74.7801 53.5594 74.3467 53.8314 74.3467C54.1026 74.3467 54.8153 74.797 55.2413 75.066C56.1117 75.6159 57.0802 76.2276 58.1717 76.2276C58.381 76.2276 58.5948 76.2048 58.8137 76.1554C60.2111 75.8377 60.9938 74.5826 61.6225 73.5736C61.8782 73.1645 62.305 72.4791 62.5239 72.3671C62.7516 72.2558 63.5756 72.3494 64.068 72.4076C65.2369 72.5402 66.691 72.7068 67.7944 71.8268C68.9014 70.9431 69.0613 69.4838 69.191 68.3112C69.2448 67.8225 69.3348 67.0037 69.4895 66.8076C69.6473 66.6153 70.4197 66.3485 70.881 66.1885C71.9991 65.8023 73.3906 65.3211 74.0097 64.0394C74.62 62.7739 74.135 61.3964 73.7459 60.2901C73.58 59.8199 73.3029 59.032 73.3611 58.7785C73.4238 58.5433 73.9876 57.9832 74.3252 57.6479C75.1713 56.8069 76.2245 55.7611 76.2245 54.3187C76.2245 52.8756 75.1713 51.829 74.3252 50.9873C73.9884 50.6527 73.4245 50.0918 73.3619 49.8582C73.3044 49.6025 73.5815 48.8146 73.7473 48.3436C74.1372 47.2373 74.6229 45.8606 74.0134 44.5951ZM72.1974 55.5061C71.478 56.2217 70.6622 57.0317 70.4175 58.1078C70.1661 59.2126 70.5553 60.3174 70.898 61.2917C71.0594 61.7509 71.3292 62.5181 71.3034 62.7046C71.1479 62.9021 70.3629 63.1734 69.8942 63.3355C68.9257 63.6709 67.8283 64.0504 67.131 64.9231C66.4301 65.8009 66.3026 66.9595 66.1899 67.981C66.1361 68.4711 66.0454 69.2922 65.9371 69.4506C65.7108 69.5582 64.8986 69.4646 64.4107 69.4079C63.3877 69.2907 62.2269 69.158 61.212 69.6482C60.2118 70.1309 59.6008 71.1112 59.0613 71.9764C58.796 72.4017 58.353 73.1129 58.1843 73.2065C57.9396 73.1992 57.2593 72.7702 56.8532 72.5137C55.9739 71.958 54.9767 71.3278 53.8314 71.3278C52.686 71.3278 51.6881 71.958 50.8081 72.5137C50.402 72.7702 49.7224 73.1992 49.5389 73.2183C49.309 73.1129 48.8653 72.401 48.5999 71.9757C48.0612 71.1112 47.4494 70.1309 46.45 69.6482C45.8943 69.3806 45.2958 69.2988 44.6996 69.2988C44.2058 69.2988 43.7142 69.3548 43.2506 69.4079C42.7649 69.4639 41.9497 69.5582 41.7706 69.4867C41.6151 69.2914 41.5245 68.4704 41.4707 67.9795C41.3586 66.958 41.2311 65.8001 40.5302 64.9223C39.833 64.0489 38.7356 63.6694 37.7678 63.3348C37.2983 63.1726 36.5134 62.9014 36.383 62.7591C36.3321 62.5174 36.6019 61.7502 36.7633 61.2925C37.1067 60.3174 37.4959 59.2126 37.2445 58.107C36.9999 57.0317 36.1847 56.221 35.4646 55.5061C35.105 55.1493 34.5035 54.5516 34.4549 54.3357C34.5028 54.0851 35.1285 53.463 35.4646 53.1284C36.1847 52.4127 36.9999 51.6013 37.2438 50.526C37.4951 49.4197 37.1052 48.3141 36.7618 47.339C36.6004 46.8806 36.3299 46.1134 36.3557 45.9262C36.5105 45.7279 37.2969 45.4552 37.7664 45.2923C38.7348 44.957 39.8315 44.5767 40.5287 43.7018C41.2282 42.824 41.3557 41.6654 41.4677 40.6439C41.5215 40.153 41.6114 39.332 41.7205 39.1728C41.9446 39.0652 42.7605 39.1588 43.2476 39.214C44.2721 39.3298 45.4315 39.4624 46.4471 38.9716C47.4465 38.4888 48.0575 37.5086 48.597 36.644C48.8623 36.2188 49.3068 35.5061 49.4763 35.4125C49.721 35.4191 50.4012 35.8488 50.8073 36.1053C51.6881 36.661 52.686 37.2904 53.8314 37.2904C54.9767 37.2904 55.9739 36.661 56.8547 36.1053C57.2608 35.8488 57.941 35.4191 58.1253 35.4007C58.3552 35.5061 58.7997 36.2188 59.065 36.644C59.6045 37.5086 60.2155 38.4888 61.2157 38.9716C62.2305 39.4624 63.3906 39.332 64.4144 39.214C64.9015 39.1595 65.7174 39.0659 65.8965 39.1367C66.052 39.332 66.142 40.1538 66.1958 40.6454C66.3078 41.6669 66.4353 42.8255 67.1347 43.7033C67.8312 44.5774 68.9279 44.9577 69.8956 45.2931C70.3651 45.4559 71.1508 45.7286 71.2813 45.8724C71.3328 46.1141 71.0624 46.8821 70.9002 47.3405C70.5568 48.3149 70.1676 49.4204 70.4182 50.526C70.6622 51.602 71.4773 52.4127 72.1966 53.1284C72.5261 53.4556 73.1319 54.0578 73.2027 54.3187C73.1319 54.5774 72.5489 55.1567 72.1974 55.5061Z" fill="white"/>
<path d="M53.8318 40.5156C46.2264 40.5156 40.0391 46.703 40.0391 54.3076C40.0391 61.913 46.2264 68.1004 53.8318 68.1004C61.4365 68.1004 67.6238 61.913 67.6238 54.3076C67.6238 46.703 61.4365 40.5156 53.8318 40.5156ZM53.8318 65.0815C47.8914 65.0815 43.0579 60.2481 43.0579 54.3076C43.0579 48.3672 47.8914 43.5345 53.8318 43.5345C59.7723 43.5345 64.605 48.3672 64.605 54.3076C64.605 60.2481 59.7723 65.0815 53.8318 65.0815Z" fill="white"/>
<path d="M58.2664 49.5985L51.6309 56.2332L49.397 54C48.8073 53.4104 47.8522 53.4104 47.2625 54C46.6729 54.5896 46.6729 55.5448 47.2625 56.1344L49.8569 58.7295C50.3308 59.2034 50.9602 59.4651 51.6309 59.4651C52.3009 59.4651 52.9303 59.2034 53.4027 58.7302L60.4008 51.7329C60.9904 51.1433 60.9904 50.1881 60.4008 49.5985C59.8112 49.0088 58.856 49.0088 58.2664 49.5985Z" fill="white"/>
</g>
</svg>
