<svg width="80" height="80" viewBox="0 0 80 80" fill="none" xmlns="http://www.w3.org/2000/svg">
<g opacity="0.8" clip-path="url(#clip0_4249_6923)">
<path d="M9.26562 45.6719H13.8906C14.875 45.6719 15.6875 44.875 15.6875 43.875V9.07812C15.6875 8.09375 14.8906 7.28125 13.8906 7.28125H9.26562C8.28125 7.28125 7.46875 8.07812 7.46875 9.07812V43.875C7.48438 44.8594 8.28125 45.6719 9.26562 45.6719ZM9.67188 9.46875H13.5V43.4688H9.67188V9.46875ZM11.5781 47.75C9.14062 47.75 7.15625 49.7344 7.15625 52.1719C7.15625 54.6094 9.14062 56.5938 11.5781 56.5938C14.0156 56.5938 16 54.6094 16 52.1719C16 49.7344 14.0156 47.75 11.5781 47.75ZM11.5781 54.4062C10.3438 54.4062 9.34375 53.4062 9.34375 52.1719C9.34375 50.9375 10.3438 49.9375 11.5781 49.9375C12.8125 49.9375 13.8125 50.9375 13.8125 52.1719C13.8125 53.4062 12.8125 54.4062 11.5781 54.4062ZM27.0781 47.75C24.6406 47.75 22.6562 49.7344 22.6562 52.1719C22.6562 54.6094 24.6406 56.5938 27.0781 56.5938C29.5156 56.5938 31.5 54.6094 31.5 52.1719C31.5 49.7344 29.5156 47.75 27.0781 47.75ZM27.0781 54.4062C25.8438 54.4062 24.8438 53.4062 24.8438 52.1719C24.8438 50.9375 25.8438 49.9375 27.0781 49.9375C28.3125 49.9375 29.3125 50.9375 29.3125 52.1719C29.3125 53.4062 28.3125 54.4062 27.0781 54.4062ZM24.7656 45.6719H29.3906C30.375 45.6719 31.1875 44.875 31.1875 43.875V15.1094C31.1875 14.125 30.3906 13.3281 29.3906 13.3281H24.7656C23.7812 13.3281 22.9688 14.125 22.9688 15.1094V43.875C22.9688 44.8594 23.7812 45.6719 24.7656 45.6719ZM25.1562 15.5156H28.9844V43.4688H25.1562V15.5156ZM77.25 49.8438C77.25 49.7969 77.25 49.75 77.2344 49.7031C77.2344 49.6562 77.2188 49.625 77.2031 49.5781C77.2031 49.5625 77.2031 49.5625 77.1875 49.5469C77.1719 49.5156 77.1719 49.4844 77.1562 49.4531C77.1562 49.4375 77.1562 49.4375 77.1406 49.4219C77.125 49.375 77.1094 49.3438 77.0781 49.2969C77.0469 49.25 77.0312 49.2187 77 49.1875C77 49.1719 76.9844 49.1719 76.9844 49.1562C76.9688 49.125 76.9375 49.1094 76.9219 49.0781C76.9219 49.0625 76.9062 49.0625 76.9062 49.0469C76.875 49.0156 76.8438 48.9844 76.8125 48.9688C76.7812 48.9375 76.7344 48.9219 76.7031 48.8906C76.7031 48.8906 76.7031 48.8906 76.6875 48.8906L70.0938 45.0781L68.3125 44.0469L59.9219 39.2031C59.5781 39 59.1719 39 58.8281 39.2031L51.4062 43.5156V38.5312C51.9062 38.5938 52.4375 38.6406 52.9531 38.6406C59.25 38.6406 64.3594 33.5156 64.3594 27.2187C64.3594 20.9219 59.2344 15.7969 52.9531 15.7969C52.4219 15.7969 51.9062 15.8281 51.4062 15.9063V11.8438C51.4062 10.3438 50.1875 9.125 48.6875 9.125H36.4375C35.8281 9.125 35.2656 9.32812 34.8125 9.67188C34.3594 9.32812 33.7969 9.125 33.1875 9.125H20.9375C20.75 9.125 20.5781 9.14062 20.4063 9.17188V2.71875C20.4063 1.21875 19.1875 0.015625 17.6875 0.015625H5.45313C3.95313 0.015625 2.75 1.23437 2.75 2.71875V57.7656C2.75 59.2656 3.96875 60.4844 5.45313 60.4844H17.7031C18.3125 60.4844 18.875 60.2812 19.3281 59.9375C19.7812 60.2812 20.3438 60.4844 20.9531 60.4844H33.2031C33.8125 60.4844 34.375 60.2812 34.8281 59.9375C35.2812 60.2812 35.8438 60.4844 36.4531 60.4844H41.5312V69.2344C41.5312 69.625 41.7344 69.9844 42.0781 70.1875L50.4688 75.0312L58.8594 79.875H58.875C58.9062 79.8906 58.9531 79.9219 59 79.9375C59.0312 79.9531 59.0781 79.9688 59.1094 79.9844C59.125 79.9844 59.125 79.9844 59.1406 80C59.1719 80.0156 59.2031 80.0156 59.2344 80.0156H59.2656C59.3125 80.0156 59.3594 80.0313 59.3906 80.0313C59.4375 80.0313 59.4844 80.0312 59.5156 80.0156H59.5469C59.5781 80.0156 59.6094 80 59.6406 80C59.6562 80 59.6562 80 59.6719 79.9844C59.7188 79.9688 59.75 79.9531 59.7969 79.9375C59.8438 79.9219 59.875 79.9062 59.9219 79.875H59.9375L76.7031 70.1875C77.0469 69.9844 77.25 69.625 77.25 69.2344V49.8438ZM59.3906 58.2812L55.2656 55.9062L69.5625 47.3125L73.9688 49.8594L59.3906 58.2812ZM67.4062 46.0625L52.5156 55C52.1875 55.2031 51.9844 55.5469 51.9844 55.9375V58.2344L49.8125 57.0938V54.0469L65.7031 45.0938L67.2188 45.9688L67.4062 46.0625ZM59.3906 41.4219L63.5156 43.7969L48.75 52.125L44.7969 49.8438L51.5469 45.9531L59.3906 41.4219ZM62.1875 27.2187C62.1875 32.3125 58.0469 36.4531 52.9688 36.4531C47.875 36.4531 43.7344 32.3125 43.7344 27.2187C43.7344 22.125 47.875 17.9844 52.9688 17.9844C58.0469 17.9844 62.1875 22.125 62.1875 27.2187ZM44.4844 19.5781C42.6562 21.6094 41.5469 24.2812 41.5469 27.2187C41.5469 30.1562 42.6562 32.8281 44.4844 34.8594V43.4844H40.6562V15.5156H44.4844V19.5781ZM17.7031 58.2812H5.45313C5.17188 58.2812 4.9375 58.0469 4.9375 57.75V2.71875C4.9375 2.4375 5.17188 2.20312 5.45313 2.20312H17.7031C18 2.20312 18.2344 2.4375 18.2344 2.71875V57.7656C18.2344 58.0469 18 58.2812 17.7031 58.2812ZM33.2031 58.2812H20.9531C20.6719 58.2812 20.4219 58.0469 20.4219 57.75V11.8438C20.4219 11.5625 20.6563 11.3125 20.9531 11.3125H33.2031C33.5 11.3125 33.7344 11.5469 33.7344 11.8438V57.75C33.7344 58.0469 33.4844 58.2812 33.2031 58.2812ZM36.4375 58.2812C36.1562 58.2812 35.9062 58.0469 35.9062 57.75V11.8438C35.9062 11.5625 36.1406 11.3125 36.4375 11.3125H48.6875C48.9688 11.3125 49.2188 11.5469 49.2188 11.8438V16.4219C48.3125 16.7344 47.4531 17.1719 46.6562 17.6875V15.1094C46.6562 14.125 45.8594 13.3281 44.875 13.3281H40.25C39.2656 13.3281 38.4688 14.125 38.4688 15.1094V43.875C38.4688 44.8594 39.2656 45.6719 40.25 45.6719H44.875C45.8594 45.6719 46.6562 44.875 46.6562 43.875V36.7344C47.4375 37.25 48.2969 37.6875 49.2188 38V44.7656L42.0625 48.9062C42.0312 48.9219 41.9844 48.9531 41.9531 48.9844C41.9219 49.0156 41.8906 49.0312 41.8594 49.0625L41.8437 49.0781C41.8125 49.1094 41.7969 49.125 41.7812 49.1562C41.7812 49.1719 41.7656 49.1719 41.7656 49.1875C41.7344 49.2187 41.7187 49.2656 41.6875 49.2969C41.6719 49.3281 41.6406 49.375 41.625 49.4062C41.625 49.4219 41.6094 49.4219 41.6094 49.4375C41.5937 49.4688 41.5938 49.5 41.5781 49.5312C41.5781 49.5469 41.5781 49.5469 41.5625 49.5625C41.5469 49.6094 41.5469 49.6406 41.5312 49.6875C41.5312 49.7344 41.5156 49.7812 41.5156 49.8281V49.8438V58.2812H36.4375ZM43.7031 68.5938V51.75L47.625 54.0156V57.75C47.625 58.1562 47.8438 58.5312 48.2188 58.7187L52.5781 61C52.7344 61.0781 52.9062 61.125 53.0937 61.125C53.2969 61.125 53.4844 61.0781 53.6562 60.9688C53.9844 60.7656 54.1875 60.4219 54.1875 60.0312V57.7812L58.3125 60.1562V77L51.5625 73.1094L43.7031 68.5938ZM60.4844 77.0156V60.1719L75.0625 51.75V68.5938L60.4844 77.0156ZM47.1406 28.4375C46.7344 27.9844 46.7812 27.2969 47.2344 26.8906C47.6875 26.4844 48.375 26.5312 48.7812 26.9844L51.1094 29.625L57.1094 22.4219C57.5 21.9531 58.1875 21.8906 58.6562 22.2812C59.125 22.6719 59.1875 23.3594 58.7969 23.8281L51.9844 32C51.9688 32.0312 51.9375 32.0469 51.9219 32.0781C51.8281 32.1719 51.7344 32.2344 51.625 32.2969C51.4688 32.375 51.3125 32.4062 51.1562 32.4062H51.1406C50.9844 32.4062 50.8281 32.375 50.6875 32.3125C50.5781 32.2656 50.4688 32.1875 50.375 32.1094C50.3437 32.0781 50.3281 32.0625 50.2969 32.0312L47.1406 28.4375Z" fill="#012B43"/>
</g>
<defs>
<clipPath id="clip0_4249_6923">
<rect width="80" height="80" fill="white"/>
</clipPath>
</defs>
</svg>
