<svg width="93" height="93" viewBox="0 0 93 93" fill="none" xmlns="http://www.w3.org/2000/svg">
<path d="M46.5 93C72.1812 93 93 72.1812 93 46.5C93 20.8188 72.1812 0 46.5 0C20.8188 0 0 20.8188 0 46.5C0 72.1812 20.8188 93 46.5 93Z" fill="white"/>
<path d="M58.1523 44.3477C58.9727 44.875 59.5 45.8125 59.5 46.75C59.5 47.7461 58.9727 48.6836 58.1523 49.1523L41.2773 59.4648C40.3984 59.9922 39.2852 60.0508 38.4062 59.5234C37.5273 59.0547 37 58.1172 37 57.0625V36.4375C37 35.4414 37.5273 34.5039 38.4062 34.0352C39.2852 33.5078 40.3984 33.5078 41.2773 34.0938L58.1523 44.3477Z" fill="#B91202"/>
</svg>
