<svg width="34" height="30" viewBox="0 0 34 30" fill="none" xmlns="http://www.w3.org/2000/svg">
<path d="M32.53 1V0.5H32.03H31.4058C28.6746 0.5 26.2804 0.985173 24.2383 1.97406C22.1466 2.92665 20.5553 4.66365 19.4474 7.12565C18.3353 9.59702 17.7983 13.0375 17.7983 17.4067V19.2792C17.7983 21.8653 18.1271 23.9142 18.8281 25.3799C19.5133 26.8126 20.4099 27.8601 21.5419 28.4594C22.6236 29.0321 23.7738 29.32 24.9858 29.32C26.8812 29.32 28.4226 28.7153 29.5445 27.4645C30.7091 26.2327 31.2817 24.6801 31.2817 22.8458C31.2817 20.8995 30.6822 19.3274 29.4313 18.2025C28.2591 17.0355 26.7634 16.4608 24.9858 16.4608C24.6536 16.4608 24.3149 16.4755 23.97 16.5047V14.9992C23.97 12.894 24.2043 11.2031 24.6536 9.90828C25.1552 8.57388 25.9189 7.63589 26.9305 7.05022C27.9568 6.45607 29.3756 6.13667 31.2275 6.13667H32.03H32.53V5.63667V1ZM15.2317 1V0.5H14.7317H14.1075C11.3762 0.5 8.98204 0.985172 6.93993 1.97406C4.84828 2.92664 3.25694 4.66365 2.14904 7.12565C1.03692 9.59702 0.5 13.0375 0.5 17.4067V19.2792C0.5 21.8653 0.828775 23.9142 1.52977 25.3799L1.98083 25.1642L1.52977 25.3799C2.21495 26.8126 3.11162 27.8601 4.24356 28.4594C5.32526 29.0321 6.47546 29.32 7.6875 29.32C9.58284 29.32 11.1242 28.7153 12.2462 27.4646C13.4107 26.2327 13.9833 24.6801 13.9833 22.8458C13.9833 20.8995 13.3839 19.3274 12.1329 18.2025C10.9608 17.0355 9.46504 16.4608 7.6875 16.4608C7.35525 16.4608 7.01661 16.4755 6.67167 16.5047V14.9992C6.67167 12.894 6.90592 11.2031 7.35528 9.90827C7.85683 8.57387 8.62056 7.63589 9.63218 7.05022C10.6584 6.45607 12.0772 6.13667 13.9292 6.13667H14.7317H15.2317V5.63667V1Z" fill="white" stroke="#0055FF"/>
</svg>
