<svg width="23" height="21" viewBox="0 0 23 21" fill="none" xmlns="http://www.w3.org/2000/svg">
<path d="M3.76074 0.5C4.19043 0.5 4.58105 0.851562 4.65918 1.28125L4.7373 1.75H21.1436C21.9639 1.75 22.5889 2.57031 22.3545 3.35156L20.2451 10.8516C20.0889 11.3984 19.6201 11.75 19.0342 11.75H6.65137L7.00293 13.625H19.0732C19.5811 13.625 20.0107 14.0547 20.0107 14.5625C20.0107 15.1094 19.5811 15.5 19.0732 15.5H6.22168C5.79199 15.5 5.40137 15.1875 5.32324 14.7578L2.97949 2.375H0.948242C0.401367 2.375 0.0107422 1.98438 0.0107422 1.4375C0.0107422 0.929688 0.401367 0.5 0.948242 0.5H3.76074ZM5.01074 18.625C5.01074 17.6094 5.83105 16.75 6.88574 16.75C7.90137 16.75 8.76074 17.6094 8.76074 18.625C8.76074 19.6797 7.90137 20.5 6.88574 20.5C5.83105 20.5 5.01074 19.6797 5.01074 18.625ZM20.0107 18.625C20.0107 19.6797 19.1514 20.5 18.1357 20.5C17.0811 20.5 16.2607 19.6797 16.2607 18.625C16.2607 17.6094 17.0811 16.75 18.1357 16.75C19.1514 16.75 20.0107 17.6094 20.0107 18.625Z" fill="white"/>
</svg>
