<svg width="15" height="15" viewBox="0 0 15 15" fill="none" xmlns="http://www.w3.org/2000/svg">
<path d="M3.75 14.0625C3.68109 14.0625 3.61172 14.047 3.54656 14.0161C3.38484 13.9378 3.28125 13.7742 3.28125 13.5938V11.25H1.875C1.09969 11.25 0.46875 10.6191 0.46875 9.84375V2.34375C0.46875 1.56844 1.09969 0.9375 1.875 0.9375H13.125C13.9003 0.9375 14.5312 1.56844 14.5312 2.34375V9.84375C14.5312 10.6191 13.9003 11.25 13.125 11.25H7.43016L4.04297 13.9598C3.95813 14.0278 3.85453 14.0625 3.75 14.0625ZM1.875 1.875C1.61625 1.875 1.40625 2.08547 1.40625 2.34375V9.84375C1.40625 10.102 1.61625 10.3125 1.875 10.3125H3.75C4.00922 10.3125 4.21875 10.522 4.21875 10.7812V12.6187L6.97266 10.4152C7.05609 10.3486 7.15875 10.3125 7.26562 10.3125H13.125C13.3837 10.3125 13.5938 10.102 13.5938 9.84375V2.34375C13.5938 2.08547 13.3837 1.875 13.125 1.875H1.875Z" fill="white"/>
<path d="M11.25 5.625H3.75C3.49078 5.625 3.28125 5.415 3.28125 5.15625C3.28125 4.8975 3.49078 4.6875 3.75 4.6875H11.25C11.5092 4.6875 11.7188 4.8975 11.7188 5.15625C11.7188 5.415 11.5092 5.625 11.25 5.625Z" fill="white"/>
<path d="M7.5 7.5H3.75C3.49078 7.5 3.28125 7.29 3.28125 7.03125C3.28125 6.7725 3.49078 6.5625 3.75 6.5625H7.5C7.75922 6.5625 7.96875 6.7725 7.96875 7.03125C7.96875 7.29 7.75922 7.5 7.5 7.5Z" fill="white"/>
</svg>
