<svg width="20" height="20" viewBox="0 0 20 20" fill="none" xmlns="http://www.w3.org/2000/svg">
<rect width="20" height="20" rx="10" fill="white"/>
<path d="M11.4791 10.416L10.6416 11.2564C10.302 11.5972 9.70438 11.6045 9.3574 11.2564L8.51984 10.416L5.51172 13.4339C5.62369 13.4857 5.74715 13.5166 5.8784 13.5166H14.1206C14.2518 13.5166 14.3753 13.4857 14.4872 13.4339L11.4791 10.416Z" fill="#0055FF"/>
<path d="M14.1205 6.48438H5.87836C5.74711 6.48438 5.62365 6.51527 5.51172 6.56705L8.72611 9.79211C8.72633 9.79232 8.72658 9.79236 8.7268 9.79258C8.72701 9.79279 8.72705 9.79309 8.72705 9.79309L9.77223 10.8417C9.88324 10.9527 10.1157 10.9527 10.2267 10.8417L11.2717 9.79326C11.2717 9.79326 11.2719 9.79279 11.2721 9.79258C11.2721 9.79258 11.2726 9.79232 11.2728 9.79211L14.4871 6.56703C14.3752 6.51523 14.2518 6.48438 14.1205 6.48438Z" fill="#0055FF"/>
<path d="M5.09348 6.97656C5.03555 7.09371 5 7.22375 5 7.36305V12.6365C5 12.7758 5.03551 12.9058 5.09346 13.023L8.1068 9.99986L5.09348 6.97656Z" fill="#0055FF"/>
<path d="M14.9039 6.97656L11.8906 9.9999L14.9039 13.023C14.9619 12.9059 14.9974 12.7759 14.9974 12.6365V7.36309C14.9974 7.22375 14.9619 7.09371 14.9039 6.97656Z" fill="#0055FF"/>
</svg>
