<svg width="22" height="22" viewBox="0 0 22 22" fill="none" xmlns="http://www.w3.org/2000/svg">
<g clip-path="url(#clip0_4249_3239)">
<path d="M9.96863 0.916016C4.98038 0.916016 0.916992 4.97801 0.916992 9.96458C0.916992 14.9511 4.98038 19.021 9.96863 19.021C12.0993 19.021 14.0588 18.2746 15.6075 17.0353L19.3778 20.8024C19.5681 20.9847 19.8222 21.0853 20.0858 21.0826C20.3494 21.0799 20.6014 20.9742 20.7879 20.788C20.9744 20.6018 21.0805 20.3501 21.0836 20.0866C21.0867 19.8232 20.9864 19.569 20.8043 19.3785L17.0339 15.6094C18.2747 14.0589 19.0222 12.0969 19.0222 9.96458C19.0222 4.97801 14.9569 0.916016 9.96863 0.916016ZM9.96863 2.92727C13.8696 2.92727 17.0083 6.06498 17.0083 9.96458C17.0083 13.8642 13.8696 17.0098 9.96863 17.0098C6.06769 17.0098 2.9289 13.8642 2.9289 9.96458C2.9289 6.06498 6.06769 2.92727 9.96863 2.92727Z" fill="white"/>
</g>
<defs>
<clipPath id="clip0_4249_3239">
<rect width="22" height="22" fill="white"/>
</clipPath>
</defs>
</svg>
