<svg width="21" height="21" viewBox="0 0 21 21" fill="none" xmlns="http://www.w3.org/2000/svg">
<path d="M10.4972 15.8875C7.51584 15.8875 5.10976 13.4814 5.10976 10.5C5.10976 7.51861 7.51584 5.11249 10.4972 5.11249C13.4785 5.11249 15.8846 7.51861 15.8846 10.5C15.8846 13.4814 13.4785 15.8875 10.4972 15.8875ZM10.4972 6.99851C8.56916 6.99851 6.99575 8.57195 6.99575 10.5C6.99575 12.4281 8.56916 14.0015 10.4972 14.0015C12.4252 14.0015 13.9986 12.4281 13.9986 10.5C13.9986 8.57195 12.4252 6.99851 10.4972 6.99851ZM16.1052 17.3638C15.4092 17.3638 14.847 16.8016 14.847 16.1055C14.847 15.4094 15.4092 14.8473 16.1052 14.8473C16.8013 14.8473 17.3634 15.4068 17.3634 16.1055C17.3636 16.2708 17.3312 16.4345 17.2681 16.5873C17.2049 16.74 17.1123 16.8788 16.9954 16.9957C16.8785 17.1126 16.7397 17.2053 16.587 17.2684C16.4342 17.3316 16.2705 17.364 16.1052 17.3638ZM20.9988 10.5C20.9988 11.95 21.012 13.3868 20.9305 14.8342C20.8491 16.5153 20.4656 18.0073 19.2363 19.2367C18.0044 20.4686 16.515 20.8495 14.8339 20.9309C13.3839 21.0124 11.9471 20.9992 10.4998 20.9992C9.04985 20.9992 7.61303 21.0124 6.16571 20.9309C4.4846 20.8495 2.99262 20.466 1.76331 19.2367C0.53138 18.0047 0.150505 16.5153 0.0690761 14.8342C-0.0123524 13.3842 0.000781304 11.9474 0.000781304 10.5C0.000781304 9.05265 -0.0123524 7.61318 0.0690761 6.16582C0.150505 4.48469 0.534007 2.99268 1.76331 1.76335C2.99525 0.531391 4.4846 0.150508 6.16571 0.0690783C7.61566 -0.0123517 9.05248 0.000781169 10.4998 0.000781169C11.9498 0.000781169 13.3866 -0.0123517 14.8339 0.0690783C16.515 0.150508 18.007 0.534018 19.2363 1.76335C20.4682 2.99531 20.8491 4.48469 20.9305 6.16582C21.0146 7.61318 20.9988 9.05002 20.9988 10.5ZM18.6873 4.30607C18.4956 3.82799 18.2644 3.47075 17.894 3.103C17.5237 2.73263 17.1691 2.50147 16.691 2.30972C15.3093 1.76072 12.0286 1.88418 10.4972 1.88418C8.9658 1.88418 5.68239 1.76072 4.30073 2.30709C3.82267 2.49884 3.46543 2.73 3.09769 3.10038C2.72732 3.47075 2.49617 3.82537 2.30442 4.30344C1.75806 5.68775 1.88152 8.96859 1.88152 10.5C1.88152 12.0314 1.75806 15.3149 2.30442 16.6966C2.49617 17.1746 2.72732 17.5319 3.09769 17.8996C3.46806 18.2674 3.82267 18.5012 4.30073 18.6929C5.68239 19.2393 8.9658 19.1158 10.4972 19.1158C12.0286 19.1158 15.312 19.2393 16.6936 18.6929C17.1717 18.5012 17.5289 18.27 17.8967 17.8996C18.267 17.5293 18.4982 17.1746 18.6899 16.6966C19.2363 15.3149 19.1128 12.0314 19.1128 10.5C19.1128 8.96859 19.2363 5.68775 18.6873 4.30607Z" fill="white"/>
</svg>
