<svg width="20" height="20" viewBox="0 0 20 20" fill="none" xmlns="http://www.w3.org/2000/svg">
<rect width="20" height="20" rx="10" fill="white"/>
<g clip-path="url(#clip0_4249_1536)">
<path d="M10 5C9.00584 5.00132 8.05278 5.39683 7.34981 6.09981C6.64683 6.80278 6.25132 7.75584 6.25 8.75C6.25 11.4422 9.74375 14.8141 9.89219 14.9563C9.92106 14.9843 9.95974 15 10 15C10.0403 15 10.0789 14.9843 10.1078 14.9563C10.2562 14.8141 13.75 11.4422 13.75 8.75C13.7487 7.75584 13.3532 6.80278 12.6502 6.09981C11.9472 5.39683 10.9942 5.00132 10 5ZM10 10.4688C9.66006 10.4688 9.32776 10.3679 9.04511 10.1791C8.76247 9.99023 8.54217 9.7218 8.41208 9.40774C8.28199 9.09368 8.24796 8.74809 8.31428 8.41469C8.38059 8.08128 8.54429 7.77503 8.78466 7.53466C9.02503 7.29429 9.33128 7.13059 9.66469 7.06428C9.99809 6.99796 10.3437 7.03199 10.6577 7.16208C10.9718 7.29217 11.2402 7.51247 11.4291 7.79511C11.6179 8.07776 11.7188 8.41006 11.7188 8.75C11.7185 9.20576 11.5373 9.64277 11.215 9.96504C10.8928 10.2873 10.4558 10.4685 10 10.4688Z" fill="#0055FF"/>
</g>
<defs>
<clipPath id="clip0_4249_1536">
<rect width="10" height="10" fill="white" transform="translate(5 5)"/>
</clipPath>
</defs>
</svg>
