<svg width="20" height="20" viewBox="0 0 20 20" fill="none" xmlns="http://www.w3.org/2000/svg">
<rect width="20" height="20" rx="10" fill="white"/>
<g clip-path="url(#clip0_4249_1504)">
<path d="M12.6026 11.6161C12.2759 11.2935 11.868 11.2935 11.5434 11.6161C11.2957 11.8616 11.0481 12.1072 10.8047 12.3569C10.7381 12.4255 10.6819 12.4401 10.6007 12.3943C10.4405 12.3069 10.2699 12.2362 10.1159 12.1404C9.39796 11.6889 8.79658 11.1083 8.26386 10.4549C7.99959 10.1303 7.76445 9.78278 7.60006 9.39157C7.56676 9.3125 7.573 9.26047 7.63751 9.19597C7.88514 8.95666 8.12652 8.71112 8.36999 8.46557C8.70918 8.1243 8.70918 7.72477 8.36791 7.38142C8.17439 7.18581 7.98086 6.99437 7.78734 6.79876C7.58757 6.599 7.38988 6.39715 7.18804 6.19946C6.86133 5.88108 6.45348 5.88108 6.12886 6.20154C5.87915 6.44709 5.63984 6.69888 5.38597 6.94026C5.15083 7.16292 5.03222 7.43552 5.00725 7.7539C4.96771 8.27204 5.09465 8.76106 5.2736 9.23758C5.63984 10.2239 6.19753 11.1 6.87382 11.9032C7.78734 12.9895 8.87773 13.8489 10.1533 14.469C10.7277 14.7478 11.3228 14.9622 11.97 14.9975C12.4153 15.0225 12.8023 14.9101 13.1124 14.5626C13.3246 14.3254 13.5639 14.109 13.7887 13.8822C14.1216 13.5451 14.1237 13.1372 13.7928 12.8043C13.3975 12.4068 13 12.0114 12.6026 11.6161Z" fill="#0055FF"/>
<path d="M12.2049 9.95709L12.9728 9.826C12.8521 9.12057 12.5191 8.48173 12.0135 7.97399C11.4787 7.4392 10.8024 7.10209 10.0574 6.99805L9.94922 7.77006C10.5256 7.85122 11.05 8.11133 11.4641 8.52543C11.8553 8.91664 12.1113 9.4119 12.2049 9.95709Z" fill="#0055FF"/>
<path d="M13.4052 6.61894C12.5187 5.73248 11.3971 5.17272 10.159 5L10.0508 5.77202C11.1204 5.92184 12.0901 6.40669 12.8558 7.17038C13.5821 7.89662 14.0586 8.8143 14.2313 9.82354L14.9992 9.69244C14.7973 8.52297 14.2459 7.46171 13.4052 6.61894Z" fill="#0055FF"/>
</g>
<defs>
<clipPath id="clip0_4249_1504">
<rect width="10" height="10" fill="white" transform="translate(5 5)"/>
</clipPath>
</defs>
</svg>
