<svg width="13" height="16" viewBox="0 0 13 16" fill="none" xmlns="http://www.w3.org/2000/svg">
<path d="M6.68303 0.515625C2.63279 0.515625 0.515625 3.14062 0.515625 6.04688C0.515625 7.45312 1.25203 8.85938 2.44869 9.60938C2.8169 9.79688 2.72485 9.60938 3.001 8.48438C3.001 8.39062 3.001 8.29688 2.90895 8.20312C1.25203 6.14062 2.63279 2.10938 6.49893 2.10937C12.114 2.10937 11.0094 9.98438 7.51149 9.98438C6.77508 10.0781 6.13073 9.51562 6.13073 8.76562V8.39062C6.49893 7.35937 6.77508 6.42188 6.86713 5.39062C6.86713 3.42188 4.01356 3.70312 4.01356 6.32812C4.01356 6.79688 4.10561 7.26563 4.28971 7.64063C4.28971 7.64063 3.3692 11.4844 3.1851 12.1406C3.001 13.2656 3.09305 14.3906 3.27715 15.4219C3.1851 15.5156 3.27715 15.5156 3.27715 15.5156H3.3692C4.01356 14.5781 4.56586 13.6406 4.93407 12.6094C5.02612 12.1406 5.48637 10.4531 5.48637 10.4531C5.94662 11.1094 6.77508 11.4844 7.60354 11.4844C10.4571 11.4844 12.4822 8.95312 12.4822 5.85937C12.4822 2.76562 9.90481 0.515625 6.68303 0.515625Z" fill="#012B43"/>
</svg>
