<svg width="15" height="15" viewBox="0 0 15 15" fill="none" xmlns="http://www.w3.org/2000/svg">
<path d="M11.4258 9.72656C10.5574 9.72656 9.79216 10.1537 9.31151 10.8034L5.15596 8.67551C5.22495 8.44034 5.27344 8.19662 5.27344 7.93945C5.27344 7.59064 5.20192 7.25903 5.07838 6.95402L9.42735 4.33699C9.91134 4.905 10.6227 5.27344 11.4258 5.27344C12.8798 5.27344 14.0625 4.09069 14.0625 2.63672C14.0625 1.18274 12.8798 0 11.4258 0C9.97181 0 8.78906 1.18274 8.78906 2.63672C8.78906 2.97179 8.85806 3.28963 8.97252 3.58471L4.6106 6.20941C4.12702 5.65828 3.42589 5.30273 2.63672 5.30273C1.18274 5.30273 0 6.48548 0 7.93945C0 9.39343 1.18274 10.5762 2.63672 10.5762C3.51943 10.5762 4.29759 10.1365 4.77642 9.46857L8.91829 11.5895C8.842 11.8358 8.78906 12.0923 8.78906 12.3633C8.78906 13.8173 9.97181 15 11.4258 15C12.8798 15 14.0625 13.8173 14.0625 12.3633C14.0625 10.9093 12.8798 9.72656 11.4258 9.72656Z" fill="white"/>
</svg>
