<svg width="19" height="16" viewBox="0 0 19 16" fill="none" xmlns="http://www.w3.org/2000/svg">
<path d="M18.3801 2.31175C17.711 2.62556 17.0418 2.81384 16.251 2.93936C16.981 2.43727 17.5893 1.74689 17.8935 0.868233C17.1635 1.30756 16.3727 1.62137 15.5819 1.80966C14.9127 1.05652 13.9394 0.617187 12.9052 0.617187C10.8978 0.617187 9.1945 2.31175 9.1945 4.44564C9.1945 4.75945 9.25533 5.01049 9.31616 5.3243C6.27456 5.19878 3.53712 3.62974 1.71216 1.37033C1.408 1.80966 1.22551 2.43727 1.22551 3.12765C1.22551 4.44564 1.89466 5.63811 2.86797 6.26572C2.25965 6.26572 1.71216 6.07744 1.22551 5.76363V5.82639C1.22551 7.64648 2.50298 9.21551 4.20627 9.52932C3.90211 9.59208 3.59795 9.65484 3.23296 9.65484C2.98963 9.65484 2.74631 9.65484 2.56381 9.59208C3.05047 11.0984 4.38877 12.2281 6.03123 12.2281C4.75376 13.2322 3.17213 13.8599 1.46883 13.8599C1.16468 13.8599 0.860515 13.8599 0.617188 13.7971C2.07715 14.9896 4.02378 15.6172 6.09207 15.6172C12.8444 15.6172 16.5552 9.84313 16.5552 4.82221V4.32012C17.2851 3.75526 17.8935 3.12765 18.3801 2.31175Z" fill="white"/>
</svg>
