<svg width="15" height="15" viewBox="0 0 15 15" fill="none" xmlns="http://www.w3.org/2000/svg">
<g clip-path="url(#clip0_4249_2977)">
<path d="M7.39415 7.22556C8.38681 7.22556 9.24626 6.86953 9.9487 6.16709C10.6509 5.46477 11.007 4.60544 11.007 3.61266C11.007 2.62023 10.651 1.76078 9.94859 1.05823C9.24615 0.356025 8.3867 0 7.39415 0C6.40137 0 5.54204 0.356025 4.83971 1.05835C4.13739 1.76067 3.78125 2.62012 3.78125 3.61266C3.78125 4.60544 4.13739 5.46489 4.83971 6.16721C5.54227 6.86942 6.40172 7.22556 7.39415 7.22556ZM5.46136 1.67988C6.00026 1.14097 6.63243 0.879019 7.39415 0.879019C8.15575 0.879019 8.78804 1.14097 9.32706 1.67988C9.86596 2.21889 10.128 2.85118 10.128 3.61266C10.128 4.37438 9.86596 5.00655 9.32706 5.54557C8.78804 6.08458 8.15575 6.34654 7.39415 6.34654C6.63266 6.34654 6.00049 6.08447 5.46136 5.54557C4.92234 5.00667 4.66027 4.37438 4.66027 3.61266C4.66027 2.85118 4.92234 2.21889 5.46136 1.67988Z" fill="#000407"/>
<path d="M13.7147 11.5348C13.6945 11.2425 13.6535 10.9236 13.5932 10.587C13.5323 10.2478 13.4539 9.9271 13.3601 9.63401C13.263 9.33109 13.1313 9.03194 12.9682 8.74527C12.7992 8.44772 12.6005 8.18863 12.3776 7.97542C12.1445 7.75238 11.8591 7.57305 11.529 7.44225C11.2001 7.31213 10.8356 7.24621 10.4457 7.24621C10.2926 7.24621 10.1445 7.30904 9.85851 7.49523C9.6825 7.61002 9.47662 7.74277 9.24683 7.88959C9.05033 8.01479 8.78414 8.13209 8.45535 8.23829C8.13457 8.34209 7.80888 8.39474 7.4873 8.39474C7.16595 8.39474 6.84025 8.34209 6.51924 8.23829C6.1908 8.13221 5.92449 8.01491 5.72834 7.88971C5.50072 7.74425 5.29472 7.6115 5.11608 7.49512C4.83032 7.30892 4.68224 7.24609 4.52911 7.24609C4.1391 7.24609 3.77472 7.31213 3.44593 7.44236C3.11611 7.57294 2.83058 7.75226 2.59724 7.97554C2.37431 8.18886 2.17564 8.44784 2.00672 8.74527C1.84387 9.03194 1.71204 9.33097 1.61499 9.63413C1.52126 9.92721 1.44287 10.2478 1.38199 10.587C1.32156 10.9232 1.28071 11.2421 1.26045 11.5351C1.24054 11.8215 1.23047 12.1197 1.23047 12.4209C1.23047 13.2039 1.47938 13.8378 1.97021 14.3053C2.45499 14.7666 3.09631 15.0005 3.87646 15.0005H11.0991C11.879 15.0005 12.5203 14.7666 13.0052 14.3053C13.4961 13.8381 13.745 13.204 13.745 12.4208C13.7449 12.1185 13.7347 11.8204 13.7147 11.5348ZM12.3991 13.6684C12.0788 13.9733 11.6535 14.1215 11.0989 14.1215H3.87646C3.32176 14.1215 2.8965 13.9733 2.57629 13.6685C2.26215 13.3695 2.10949 12.9613 2.10949 12.4209C2.10949 12.1398 2.11876 11.8623 2.1373 11.5959C2.15538 11.3345 2.19234 11.0474 2.24716 10.7423C2.30129 10.4409 2.37019 10.1582 2.45213 9.90215C2.53075 9.65667 2.63798 9.4136 2.77096 9.17945C2.89787 8.9563 3.0439 8.76484 3.20503 8.61057C3.35575 8.46626 3.54572 8.34816 3.76957 8.25958C3.97659 8.17764 4.20925 8.13278 4.46182 8.12603C4.49261 8.14239 4.54742 8.17364 4.63623 8.23154C4.81693 8.3493 5.02522 8.48366 5.25547 8.63071C5.51502 8.79619 5.84942 8.94565 6.24893 9.07463C6.65737 9.20669 7.07394 9.27375 7.48741 9.27375C7.90089 9.27375 8.31757 9.20669 8.72578 9.07474C9.12563 8.94554 9.45992 8.79619 9.71981 8.63048C9.95544 8.47988 10.1579 8.34942 10.3386 8.23154C10.4274 8.17375 10.4822 8.14239 10.513 8.12603C10.7657 8.13278 10.9983 8.17764 11.2055 8.25958C11.4292 8.34816 11.6192 8.46637 11.7699 8.61057C11.931 8.76472 12.0771 8.95618 12.204 9.17957C12.3371 9.4136 12.4444 9.65679 12.5229 9.90203C12.605 10.1584 12.674 10.441 12.728 10.7421C12.7827 11.0478 12.8198 11.3351 12.8379 11.596V11.5962C12.8565 11.8616 12.8659 12.139 12.866 12.4209C12.8659 12.9614 12.7132 13.3695 12.3991 13.6684Z" fill="#000407"/>
</g>
<defs>
<clipPath id="clip0_4249_2977">
<rect width="15" height="15" fill="white"/>
</clipPath>
</defs>
</svg>
