<svg width="15" height="15" viewBox="0 0 15 15" fill="none" xmlns="http://www.w3.org/2000/svg">
<g opacity="0.8" clip-path="url(#clip0_4249_7690)">
<path d="M7.39415 7.22556C8.38681 7.22556 9.24626 6.86953 9.9487 6.16709C10.6509 5.46477 11.007 4.60544 11.007 3.61266C11.007 2.62023 10.651 1.76078 9.94859 1.05823C9.24615 0.356025 8.3867 0 7.39415 0C6.40137 0 5.54204 0.356025 4.83971 1.05835C4.13739 1.76067 3.78125 2.62012 3.78125 3.61266C3.78125 4.60544 4.13739 5.46489 4.83971 6.16721C5.54227 6.86942 6.40172 7.22556 7.39415 7.22556ZM5.46136 1.67988C6.00026 1.14097 6.63243 0.879019 7.39415 0.879019C8.15575 0.879019 8.78804 1.14097 9.32706 1.67988C9.86596 2.21889 10.128 2.85118 10.128 3.61266C10.128 4.37438 9.86596 5.00655 9.32706 5.54557C8.78804 6.08458 8.15575 6.34654 7.39415 6.34654C6.63266 6.34654 6.00049 6.08447 5.46136 5.54557C4.92234 5.00667 4.66027 4.37438 4.66027 3.61266C4.66027 2.85118 4.92234 2.21889 5.46136 1.67988Z" fill="white"/>
<path d="M13.7186 11.5348C13.6984 11.2425 13.6574 10.9236 13.5971 10.587C13.5362 10.2478 13.4578 9.9271 13.364 9.63401C13.2669 9.33109 13.1352 9.03194 12.9721 8.74527C12.8031 8.44772 12.6044 8.18863 12.3815 7.97542C12.1484 7.75238 11.863 7.57305 11.5329 7.44225C11.204 7.31213 10.8395 7.24621 10.4496 7.24621C10.2965 7.24621 10.1484 7.30904 9.86242 7.49523C9.68641 7.61002 9.48053 7.74277 9.25073 7.88959C9.05424 8.01479 8.78805 8.13209 8.45926 8.23829C8.13848 8.34209 7.81278 8.39474 7.4912 8.39474C7.16985 8.39474 6.84415 8.34209 6.52315 8.23829C6.1947 8.13221 5.9284 8.01491 5.73225 7.88971C5.50462 7.74425 5.29863 7.6115 5.11999 7.49512C4.83423 7.30892 4.68614 7.24609 4.53302 7.24609C4.14301 7.24609 3.77863 7.31213 3.44984 7.44236C3.12002 7.57294 2.83449 7.75226 2.60114 7.97554C2.37821 8.18886 2.17954 8.44784 2.01063 8.74527C1.84778 9.03194 1.71594 9.33097 1.6189 9.63413C1.52517 9.92721 1.44678 10.2478 1.38589 10.587C1.32547 10.9232 1.28461 11.2421 1.26436 11.5351C1.24445 11.8215 1.23438 12.1197 1.23438 12.4209C1.23438 13.2039 1.48328 13.8378 1.97412 14.3053C2.45889 14.7666 3.10022 15.0005 3.88036 15.0005H11.103C11.8829 15.0005 12.5242 14.7666 13.0091 14.3053C13.5 13.8381 13.7489 13.204 13.7489 12.4208C13.7488 12.1185 13.7386 11.8204 13.7186 11.5348ZM12.403 13.6684C12.0827 13.9733 11.6574 14.1215 11.1028 14.1215H3.88036C3.32567 14.1215 2.90041 13.9733 2.5802 13.6685C2.26606 13.3695 2.1134 12.9613 2.1134 12.4209C2.1134 12.1398 2.12267 11.8623 2.1412 11.5959C2.15929 11.3345 2.19625 11.0474 2.25107 10.7423C2.3052 10.4409 2.37409 10.1582 2.45603 9.90215C2.53465 9.65667 2.64188 9.4136 2.77486 9.17945C2.90178 8.9563 3.04781 8.76484 3.20894 8.61057C3.35966 8.46626 3.54963 8.34816 3.77348 8.25958C3.9805 8.17764 4.21316 8.13278 4.46573 8.12603C4.49651 8.14239 4.55133 8.17364 4.64014 8.23154C4.82084 8.3493 5.02912 8.48366 5.25938 8.63071C5.51893 8.79619 5.85332 8.94565 6.25284 9.07463C6.66128 9.20669 7.07784 9.27375 7.49132 9.27375C7.90479 9.27375 8.32147 9.20669 8.72968 9.07474C9.12954 8.94554 9.46382 8.79619 9.72372 8.63048C9.95935 8.47988 10.1618 8.34942 10.3425 8.23154C10.4313 8.17375 10.4861 8.14239 10.5169 8.12603C10.7696 8.13278 11.0023 8.17764 11.2094 8.25958C11.4331 8.34816 11.6231 8.46637 11.7738 8.61057C11.9349 8.76472 12.081 8.95618 12.2079 9.17957C12.341 9.4136 12.4483 9.65679 12.5268 9.90203C12.6089 10.1584 12.6779 10.441 12.7319 10.7421C12.7866 11.0478 12.8237 11.3351 12.8418 11.596V11.5962C12.8604 11.8616 12.8698 12.139 12.8699 12.4209C12.8698 12.9614 12.7171 13.3695 12.403 13.6684Z" fill="white"/>
</g>
<defs>
<clipPath id="clip0_4249_7690">
<rect width="15" height="15" fill="white"/>
</clipPath>
</defs>
</svg>
