<svg width="32" height="41" viewBox="0 0 32 41" fill="none" xmlns="http://www.w3.org/2000/svg">
<path d="M11.1218 30.0361C10.4163 29.808 9.76916 29.4289 9.22536 28.9252C8.68155 28.4215 8.25421 27.8053 7.9731 27.1197C7.87191 26.8825 7.70646 26.6782 7.49537 26.5299C7.28428 26.3815 7.03595 26.2951 6.77834 26.2802C6.03507 26.2291 5.31145 26.0192 4.65639 25.6646L0.611622 36.2981C0.568967 36.4092 0.559094 36.5302 0.583172 36.6467C0.607251 36.7632 0.66427 36.8704 0.747466 36.9555C0.830661 37.0406 0.93654 37.1 1.05254 37.1268C1.16854 37.1536 1.28979 37.1466 1.40191 37.1065L6.29919 35.3467L8.78828 39.9173C8.84292 40.0146 8.92235 40.0958 9.01852 40.1526C9.11469 40.2094 9.22417 40.2398 9.33587 40.2406H9.37943C9.49746 40.2327 9.61068 40.1909 9.70558 40.1203C9.80048 40.0497 9.87304 39.9533 9.91459 39.8427L13.5798 30.2165C13.2983 30.2662 13.0131 30.2912 12.7273 30.2911C12.1821 30.2904 11.6403 30.2044 11.1218 30.0361ZM31.7501 36.2981L27.7053 25.6646C27.0525 26.0192 26.3309 26.2291 25.5896 26.2802C25.331 26.2942 25.0814 26.3802 24.8692 26.5286C24.6569 26.6769 24.4905 26.8817 24.3886 27.1197C24.1075 27.8053 23.6802 28.4215 23.1364 28.9252C22.5926 29.4289 21.9454 29.808 21.2399 30.0361C20.7214 30.2044 20.1797 30.2904 19.6345 30.2911C19.3487 30.2912 19.0634 30.2662 18.782 30.2165L22.4471 39.8427C22.4887 39.9533 22.5613 40.0497 22.6562 40.1203C22.7511 40.1909 22.8643 40.2327 22.9823 40.2406H23.0259C23.1376 40.2398 23.247 40.2094 23.3432 40.1526C23.4394 40.0958 23.5188 40.0146 23.5735 39.9173L26.0625 35.3467L30.9598 37.1065C31.0719 37.1466 31.1932 37.1536 31.3092 37.1268C31.4252 37.1 31.5311 37.0406 31.6143 36.9555C31.6975 36.8704 31.7545 36.7632 31.7786 36.6467C31.8026 36.5302 31.7928 36.4092 31.7501 36.2981ZM16.1809 6.03906C14.4578 6.03906 12.7735 6.54965 11.3408 7.50626C9.9082 8.46288 8.79158 9.82254 8.13221 11.4133C7.47283 13.0041 7.30031 14.7546 7.63645 16.4433C7.9726 18.1321 8.80232 19.6834 10.0207 20.9009C11.2391 22.1184 12.7914 22.9476 14.4813 23.2835C16.1712 23.6194 17.9229 23.447 19.5147 22.7881C21.1066 22.1292 22.4672 21.0133 23.4245 19.5816C24.3817 18.15 24.8927 16.4668 24.8927 14.7449C24.89 12.4368 23.9713 10.224 22.3381 8.59186C20.7049 6.95976 18.4906 6.0417 16.1809 6.03906ZM21.4752 13.7437L19.2785 15.8823L19.7975 18.902C19.817 19.0162 19.8042 19.1337 19.7605 19.2411C19.7167 19.3484 19.6438 19.4415 19.55 19.5096C19.4562 19.5778 19.3451 19.6184 19.2294 19.6268C19.1137 19.6353 18.998 19.6112 18.8952 19.5574L16.1809 18.1321L13.4671 19.5574C13.3644 19.6112 13.2486 19.6353 13.1329 19.6268C13.0172 19.6184 12.9062 19.5778 12.8124 19.5096C12.7185 19.4415 12.6456 19.3484 12.6019 19.2411C12.5582 19.1337 12.5453 19.0162 12.5648 18.902L13.0832 15.8823L10.8866 13.7437C10.8034 13.6627 10.7445 13.5601 10.7167 13.4473C10.6888 13.3346 10.6931 13.2164 10.7291 13.106C10.765 12.9956 10.8312 12.8974 10.92 12.8226C11.0089 12.7479 11.117 12.6995 11.2319 12.6829L14.2661 12.242L15.6227 9.49467C15.6798 9.39741 15.7613 9.31677 15.8593 9.26074C15.9572 9.2047 16.068 9.17522 16.1809 9.17522C16.2937 9.17522 16.4046 9.2047 16.5025 9.26074C16.6004 9.31677 16.6819 9.39741 16.739 9.49467L18.0956 12.2426L21.1298 12.6829C21.2448 12.6995 21.3528 12.7479 21.4417 12.8226C21.5306 12.8974 21.5967 12.9956 21.6327 13.106C21.6686 13.2164 21.6729 13.3346 21.6451 13.4473C21.6172 13.5601 21.5584 13.6627 21.4752 13.7437Z" fill="white"/>
<path d="M17.1218 13.082L16.1779 11.1719L15.234 13.082C15.1894 13.1724 15.1234 13.2506 15.0418 13.3099C14.9602 13.3691 14.8654 13.4076 14.7655 13.4221L12.6562 13.7286L14.1831 15.2159C14.2552 15.2863 14.3092 15.3732 14.3403 15.469C14.3714 15.5649 14.3787 15.6668 14.3617 15.7662L14.0014 17.8659L15.8886 16.8748C15.9778 16.8279 16.0771 16.8035 16.1779 16.8035C16.2787 16.8035 16.378 16.8279 16.4672 16.8748L18.3543 17.8659L17.9941 15.7662C17.9771 15.6668 17.9846 15.5648 18.0158 15.4689C18.047 15.3731 18.1011 15.2863 18.1733 15.2159L19.6995 13.7286L17.5903 13.4221C17.4904 13.4076 17.3956 13.3691 17.314 13.3099C17.2323 13.2506 17.1664 13.1724 17.1218 13.082Z" fill="white"/>
<path d="M20.8553 28.852C21.3886 28.6802 21.878 28.3942 22.2894 28.0141C22.7008 27.6339 23.0243 27.1686 23.2373 26.6507C23.4277 26.1974 23.7407 25.8061 24.1413 25.5207C24.5418 25.2354 25.014 25.0672 25.5049 25.0351C26.0735 24.9984 26.6271 24.8369 27.1261 24.5621C27.6252 24.2872 28.0575 23.9058 28.3922 23.445C28.7199 22.9949 28.9441 22.4781 29.049 21.9314C29.1539 21.3847 29.1368 20.8217 28.999 20.2823C28.8825 19.8108 28.902 19.3159 29.0553 18.855C29.2086 18.3942 29.4894 17.9861 29.8652 17.678C30.3003 17.3217 30.6508 16.8732 30.8912 16.3649C31.1316 15.8566 31.256 15.3013 31.2554 14.7391C31.2547 14.1769 31.129 13.6219 30.8874 13.1142C30.6458 12.6065 30.2943 12.1588 29.8583 11.8035C29.4839 11.4943 29.2046 11.0856 29.0529 10.6245C28.9012 10.1634 28.8831 9.66881 29.0008 9.19791C29.1376 8.65937 29.1539 8.09731 29.0486 7.55174C28.9434 7.00617 28.719 6.4905 28.3916 6.04142C28.0561 5.58021 27.623 5.19861 27.1231 4.92377C26.6231 4.64894 26.0687 4.48764 25.4993 4.45136C25.0094 4.41843 24.5383 4.24994 24.1387 3.96474C23.7391 3.67953 23.4268 3.28886 23.2367 2.83642C23.024 2.31853 22.7007 1.85326 22.2895 1.47306C21.8783 1.09286 21.3891 0.806888 20.8559 0.635083C20.315 0.458336 19.742 0.401601 19.177 0.468832C18.6119 0.536064 18.0682 0.725644 17.584 1.02436C17.1618 1.28218 16.6765 1.4186 16.1817 1.4186C15.6869 1.4186 15.2017 1.28218 14.7794 1.02436C14.2952 0.725644 13.7515 0.536064 13.1865 0.468832C12.6214 0.401601 12.0484 0.458336 11.5075 0.635083C10.9745 0.807004 10.4854 1.09303 10.0743 1.47322C9.6632 1.85341 9.34004 2.31862 9.12732 2.83642C8.93672 3.28966 8.62355 3.68089 8.22293 3.96624C7.8223 4.2516 7.35006 4.41979 6.85914 4.45198C6.29051 4.48868 5.73696 4.65019 5.23791 4.92502C4.73885 5.19985 4.30656 5.58124 3.9718 6.04204C3.64415 6.49219 3.41989 7.00902 3.31502 7.55569C3.21015 8.10237 3.22724 8.66543 3.36508 9.20475C3.48161 9.67638 3.4621 10.1713 3.30881 10.6323C3.15551 11.0933 2.8747 11.5015 2.49888 11.8097C2.06388 12.1661 1.71356 12.6146 1.47326 13.1228C1.23295 13.6311 1.10866 14.1863 1.10938 14.7484C1.11009 15.3105 1.23579 15.8655 1.47739 16.3731C1.71899 16.8807 2.07044 17.3284 2.50635 17.6836C2.88068 17.9929 3.15979 18.4016 3.31142 18.8627C3.46306 19.3238 3.48101 19.8183 3.36321 20.2892C3.22643 20.8277 3.2101 21.3898 3.31539 21.9353C3.42069 22.4809 3.64502 22.9966 3.97242 23.4457C4.30792 23.9069 4.74106 24.2885 5.24098 24.5633C5.7409 24.8381 6.29532 24.9994 6.86474 25.0357C7.35467 25.0687 7.82577 25.2371 8.22535 25.5224C8.62493 25.8076 8.93723 26.1982 9.12732 26.6507C9.34007 27.1686 9.66331 27.6338 10.0745 28.014C10.4857 28.3942 10.975 28.6802 11.5081 28.852C12.049 29.0287 12.622 29.0855 13.1871 29.0183C13.7522 28.951 14.2958 28.7614 14.78 28.4627C15.2022 28.2051 15.6873 28.0688 16.182 28.0688C16.6767 28.0688 17.1618 28.2051 17.584 28.4627C18.0682 28.7613 18.6117 28.9508 19.1767 29.018C19.7416 29.0852 20.3145 29.0286 20.8553 28.852ZM16.182 24.6931C14.2128 24.6931 12.2879 24.1096 10.6506 23.0163C9.01325 21.923 7.73712 20.3691 6.98355 18.5511C6.22998 16.733 6.03281 14.7325 6.41698 12.8025C6.80114 10.8725 7.74939 9.09962 9.14181 7.70815C10.5342 6.31668 12.3083 5.36908 14.2396 4.98517C16.171 4.60127 18.1729 4.7983 19.9922 5.55136C21.8114 6.30442 23.3664 7.57967 24.4604 9.21587C25.5544 10.8521 26.1384 12.7757 26.1384 14.7435C26.1354 17.3814 25.0855 19.9104 23.219 21.7757C21.3524 23.6409 18.8217 24.6901 16.182 24.6931Z" fill="white"/>
</svg>
