<svg width="207" height="60" viewBox="0 0 207 60" fill="none" xmlns="http://www.w3.org/2000/svg">
<path fill-rule="evenodd" clip-rule="evenodd" d="M6.12752 47.0356V44.423C7.30272 45.4449 8.59494 46.3219 9.97676 47.0356H6.12752ZM6.12752 15.0057L13.7116 11.1967L17.8133 13.0742V9.41043L25.3974 5.59836L29.497 7.47485V3.81311L37.0801 0L41.1808 1.87856V37.3442C35.9025 41.6062 28.4873 45.6018 19.6617 44.932C13.2274 44.4437 8.94645 42.2054 6.12752 39.23V15.0057Z" fill="#3C5997"/>
<path fill-rule="evenodd" clip-rule="evenodd" d="M37.3233 41.12V3.04903L41.4188 4.92656V38.1518C40.1137 39.2245 38.7446 40.2157 37.3191 41.12H37.3233ZM25.6385 45.6909V8.64636L29.7371 10.5249V44.7154C28.3976 45.1452 27.0274 45.4714 25.6385 45.6909ZM13.9548 44.9113V14.2437L18.0534 16.1212V45.7718C16.6661 45.5979 15.2953 45.3098 13.9548 44.9103V44.9113Z" fill="white"/>
<path fill-rule="evenodd" clip-rule="evenodd" d="M1.05221 24.2876C1.05221 24.2876 -5.66645 45.5717 14.8512 51.422C35.3688 57.2723 51.7074 39.3648 54.3399 31.327C56.9723 23.2892 49.892 30.5961 49.892 30.5961C49.892 30.5961 37.7261 48.769 19.6617 47.3984C1.59724 46.0279 0.507174 30.8656 1.05221 24.2876Z" fill="white"/>
<path fill-rule="evenodd" clip-rule="evenodd" d="M41.2251 29.9606L58.3972 22.3748L57.2237 41.2091L41.2251 29.9606Z" fill="#24272B"/>
<path fill-rule="evenodd" clip-rule="evenodd" d="M52.9799 42.1028C52.9799 42.1028 42.4285 55.6208 24.0065 55.2579C5.58455 54.895 0.133172 40.7322 0.133172 40.7322C4.5326 63.2563 31.6607 64.1054 46.0943 53.1554C45.915 55.043 45.7361 56.9308 45.5575 58.8191C45.5575 58.8191 52.3576 48.9535 52.9757 42.1028H52.9799Z" fill="#24272B"/>
<path fill-rule="evenodd" clip-rule="evenodd" d="M74.4845 32.5845H81.9584V29.3779H74.4845V25.6643H82.9403V22.6184H70.999V39.1605H74.4845V32.5845ZM90.5821 39.1605H94.182V22.6879H90.5821V39.1605ZM114.04 39.1605H117.089V22.6412H114.04V32.9163L106.725 22.6412H102.599V39.1605H105.74V27.7845L114.04 39.1657V39.1605ZM127.203 39.1605L128.923 35.5154H137.2L138.805 39.1605H142.286L134.971 22.6879H131.348L123.92 39.1605H127.203ZM133.233 25.7867L135.898 32.1698H130.464L133.215 25.7877L133.233 25.7867ZM160.68 39.1605H163.73V22.6412H160.68V32.9163L153.365 22.6412H149.244V39.1605H152.383V27.7845L160.682 39.1657L160.68 39.1605ZM186.889 34.7534C185.422 34.0847 185.377 33.9924 183.817 33.1848C183.408 33.964 182.794 34.615 182.041 35.0667C181.289 35.5183 180.428 35.7531 179.553 35.7455C178.276 35.7268 177.057 35.2033 176.161 34.2882C175.265 33.373 174.762 32.1397 174.762 30.8547C174.762 29.5698 175.265 28.3365 176.161 27.4213C177.057 26.5062 178.276 25.9827 179.553 25.964C180.387 25.9622 181.207 26.1807 181.931 26.5977C182.656 27.0146 183.259 27.6154 183.68 28.3402C185.239 27.5792 185.353 27.5108 186.752 26.7716C186.04 25.4781 184.997 24.4 183.731 23.6494C182.465 22.8989 181.022 22.5031 179.553 22.5033C174.968 22.5033 171.253 26.2874 171.253 30.8553C171.253 32.7208 171.873 34.5328 173.015 36.0022C174.157 37.4716 175.756 38.5137 177.555 38.9624C179.355 39.411 181.252 39.2402 182.943 38.4774C184.635 37.7145 186.024 36.4034 186.889 34.7534ZM205.238 32.5845V29.3779H197.763V25.6643H206.224V22.6184H194.276V39.1605H207V36.1146H197.76V32.5845H205.238Z" fill="white"/>
<path fill-rule="evenodd" clip-rule="evenodd" d="M82.0717 48.5461H83.6852V42.533H85.9962V41.1656H79.7401V42.5196H82.0717V48.5461ZM91.1622 48.5461L91.9318 46.9122H95.6409L96.3621 48.5461H97.921L94.6436 41.1656H93.0208L89.6929 48.5461H91.1622ZM93.8616 42.5538L95.0526 45.4141H92.6252L93.8616 42.5538ZM109.854 44.6075C108.591 44.6075 107.142 44.5972 106.105 44.5972V45.9615C106.2 45.9767 106.296 45.9802 106.392 45.9719C106.804 45.9719 107.553 45.9615 107.882 45.9615H108.046C107.748 46.6644 106.927 47.0781 106.105 47.0781C105.809 47.0845 105.516 47.0315 105.241 46.9221C104.966 46.8128 104.716 46.6494 104.505 46.4414C104.293 46.2335 104.126 45.9852 104.011 45.7111C103.897 45.4371 103.838 45.1428 103.838 44.8455C103.838 44.5482 103.897 44.2538 104.011 43.9798C104.126 43.7057 104.293 43.4574 104.505 43.2495C104.716 43.0415 104.966 42.8781 105.241 42.7688C105.516 42.6595 105.809 42.6065 106.105 42.6129C106.489 42.6079 106.867 42.7058 107.201 42.8966C107.535 43.0873 107.812 43.364 108.005 43.6983C108.726 43.3365 108.775 43.3054 109.422 42.9726C109.087 42.3847 108.604 41.8958 108.022 41.5548C107.439 41.2139 106.778 41.0328 106.105 41.0298C105.435 41.0295 104.777 41.2077 104.197 41.5462C103.618 41.8848 103.138 42.3716 102.806 42.9573C102.474 43.5429 102.302 44.2065 102.308 44.8807C102.313 45.5549 102.496 46.2155 102.837 46.7956C103.179 47.3756 103.667 47.8544 104.252 48.1833C104.837 48.5121 105.498 48.6793 106.168 48.6679C106.837 48.6564 107.492 48.4668 108.066 48.1182C108.639 47.7696 109.111 47.2744 109.433 46.6831C109.813 46.1865 109.854 44.8221 109.854 44.6096V44.6075ZM120.125 48.4943V47.1299H116.366V41.1345H114.784V48.4953L120.125 48.4943ZM125.26 48.5461H126.873V41.1656H125.26V48.5461ZM137.503 48.5461H138.87V41.1448H137.506V45.7479L134.228 41.1448H132.38V48.5461H133.787V43.4464L137.506 48.5461H137.503ZM149.089 45.5997V44.1649H145.741V42.4988H149.531V41.1345H144.182V48.5461H149.883V47.1817H145.743V45.5997H149.089ZM163.192 48.5254H164.775V41.1448H163.192V43.801H159.792V41.1241H158.22V48.5254H159.792V45.383H163.192V48.5254ZM174.938 45.5997V44.1649H171.589V42.4988H175.38V41.1345H170.022V48.5461H175.724V47.1817H171.584V45.5997H174.938ZM185.219 45.8174C186.441 45.5479 186.965 44.535 186.965 43.5366C186.965 42.3381 186.257 41.1697 184.407 41.1697H181.1V48.5502H182.723V45.8993H183.514L185.362 48.5461H187.335L185.275 45.8174H185.219ZM183.976 42.4263C184.746 42.4263 185.383 42.5714 185.383 43.5324C185.383 44.4738 184.746 44.649 183.976 44.649H182.723V42.4263H183.976ZM197.473 45.5997V44.1649H194.124V42.4988H197.915V41.1345H192.557V48.5461H198.259V47.1817H194.121V45.5997H197.473Z" fill="white"/>
</svg>
