<svg width="134" height="60" viewBox="0 0 134 60" fill="none" xmlns="http://www.w3.org/2000/svg">
<path d="M0.00338148 47.1398C-0.00605195 47.0515 0.00431285 46.9622 0.0337147 46.8784C0.0631166 46.7946 0.110809 46.7185 0.173289 46.6557C0.23577 46.5929 0.311452 46.545 0.394777 46.5154C0.478102 46.4858 0.566956 46.4754 0.654811 46.4849H1.12483C1.21041 46.4791 1.2962 46.4924 1.37611 46.5237C1.45601 46.5551 1.52806 46.6037 1.58711 46.6663C1.64617 46.7288 1.69078 46.8037 1.71777 46.8855C1.74476 46.9674 1.75347 47.0542 1.74328 47.1398V48.6611C1.74312 48.9782 1.70855 49.2945 1.6402 49.6041H1.69174C2.1503 48.5795 2.89388 47.7101 3.83283 47.1007C4.77178 46.4914 5.866 46.1681 6.98357 46.1699C10.2428 46.1699 11.389 48.0352 11.389 51.2808V59.0135C11.3984 59.1018 11.388 59.1911 11.3586 59.2749C11.3292 59.3587 11.2815 59.4348 11.2191 59.4976C11.1566 59.5604 11.0809 59.6083 10.9976 59.6379C10.9142 59.6675 10.8254 59.6779 10.7375 59.6684H10.249C9.83667 59.6684 9.63052 59.4321 9.63052 59.0135V51.7595C9.63052 49.687 9.29244 47.8549 6.763 47.8549C3.96556 47.8486 1.77626 50.1554 1.77626 53.2207V59.0135C1.77626 59.428 1.57011 59.6684 1.15781 59.6684H0.654811C0.566956 59.6779 0.478102 59.6675 0.394777 59.6379C0.311452 59.6083 0.23577 59.5604 0.173289 59.4976C0.110809 59.4348 0.0631166 59.3587 0.0337147 59.2749C0.00431285 59.1911 -0.00605195 59.1018 0.00338148 59.0135V47.1398Z" fill="#899ECE"/>
<path d="M22.1108 51.6062H22.8653V51.1917C22.8653 48.6486 21.4841 47.7844 19.6329 47.7844C18.5099 47.792 17.4105 48.1088 16.454 48.7005C16.0892 48.8849 15.8006 48.831 15.5676 48.4932L15.4109 48.2321C15.2048 47.8901 15.2543 47.5502 15.5923 47.3409C16.8509 46.5771 18.2948 46.1776 19.7648 46.1865C22.8921 46.1865 24.6381 47.944 24.6381 51.2455V59.03C24.6381 59.4446 24.432 59.685 24.0197 59.685H23.6074C23.5191 59.6969 23.4291 59.6882 23.3447 59.6596C23.2602 59.6309 23.1835 59.583 23.1205 59.5196C23.0574 59.4562 23.0098 59.3791 22.9812 59.2942C22.9527 59.2093 22.9441 59.1189 22.956 59.03V57.9813C22.9524 57.6474 22.9787 57.3137 23.0343 56.9844H22.9828C23.0096 56.9844 21.8098 60 18.5506 60C16.3345 60 14.1204 58.6881 14.1204 56.1471C14.1081 51.8321 19.5875 51.6062 22.1108 51.6062ZM18.8516 58.4891C21.381 58.4891 22.8653 55.8673 22.8653 53.5606V52.9388H22.1355C20.074 52.9388 15.9325 53.0176 15.9325 55.9793C15.9325 57.2021 16.9076 58.4891 18.8516 58.4891Z" fill="#899ECE"/>
<path d="M28.8353 48.0828H27.7407C27.6569 48.0937 27.5718 48.085 27.4918 48.0576C27.4119 48.0302 27.3393 47.9847 27.2795 47.9247C27.2198 47.8646 27.1746 47.7916 27.1473 47.7113C27.12 47.6309 27.1115 47.5453 27.1222 47.4611V47.2538C27.1222 46.8393 27.3284 46.5989 27.7407 46.5989H28.8642V43.4984C28.8544 43.4099 28.8645 43.3203 28.8938 43.2363C28.923 43.1522 28.9707 43.0759 29.0332 43.0128C29.0957 42.9498 29.1715 42.9016 29.255 42.8719C29.3385 42.8423 29.4276 42.8318 29.5156 42.8414H29.9856C30.3979 42.8414 30.6041 43.0776 30.6041 43.4984V46.5906H33.2634C33.3513 46.5807 33.4404 46.5909 33.5239 46.6203C33.6074 46.6497 33.6832 46.6976 33.7458 46.7605C33.8084 46.8234 33.856 46.8997 33.8853 46.9837C33.9146 47.0676 33.9247 47.1571 33.9148 47.2455V47.4528C33.9148 47.8673 33.6819 48.0745 33.2634 48.0745H30.6041V54.6798C30.6041 57.7202 32.4594 58.087 33.4716 58.1388C33.9932 58.1927 34.1766 58.3461 34.1766 58.7938V59.1357C34.1766 59.5503 33.9705 59.7575 33.4469 59.7575C30.5793 59.7575 28.8312 58.0021 28.8312 54.9098L28.8353 48.0828Z" fill="#899ECE"/>
<path d="M36.4917 47.1398C36.4917 46.7253 36.6978 46.4849 37.1101 46.4849H37.6049C37.6928 46.475 37.7819 46.4852 37.8654 46.5146C37.9489 46.544 38.0247 46.5919 38.0873 46.6548C38.1499 46.7178 38.1975 46.794 38.2268 46.878C38.2561 46.9619 38.2662 47.0514 38.2563 47.1398V54.3938C38.2563 56.4663 38.5697 58.2984 41.0991 58.2984C44.0965 58.2984 45.9477 55.6518 45.9477 52.7958V47.1398C45.9383 47.0515 45.9487 46.9622 45.9781 46.8784C46.0075 46.7946 46.0552 46.7185 46.1176 46.6557C46.1801 46.5929 46.2558 46.545 46.3391 46.5154C46.4225 46.4858 46.5113 46.4754 46.5992 46.4849H47.0939C47.5062 46.4849 47.7124 46.7212 47.7124 47.1398V59.0135C47.7124 59.428 47.5062 59.6684 47.0939 59.6684H46.6239C46.2116 59.6684 46.0054 59.4321 46.0054 59.0135V57.4922C46.0054 57.1762 46.0316 56.8608 46.0838 56.5492H46.0322C45.5354 57.8342 43.7646 59.9834 40.8785 59.9834C37.7863 59.9834 36.4979 58.3047 36.4979 54.8725L36.4917 47.1398Z" fill="#899ECE"/>
<path d="M51.7776 47.1398C51.7682 47.0515 51.7785 46.9622 51.8079 46.8784C51.8373 46.7946 51.885 46.7185 51.9475 46.6557C52.01 46.5929 52.0857 46.545 52.169 46.5154C52.2523 46.4858 52.3412 46.4754 52.429 46.4849H52.8991C52.9846 46.4791 53.0704 46.4924 53.1503 46.5237C53.2302 46.5551 53.3023 46.6037 53.3613 46.6663C53.4204 46.7288 53.465 46.8037 53.492 46.8855C53.519 46.9674 53.5277 47.0542 53.5175 47.1398V48.9222C53.5168 49.2743 53.4823 49.6255 53.4144 49.9709H53.466C54.0844 48.058 55.6037 46.4061 57.6879 46.4061C58.1579 46.4061 58.3661 46.6134 58.3661 47.0279V47.4984C58.3661 47.9129 58.0796 48.1533 57.6364 48.1533C54.874 48.1533 53.5443 51.3243 53.5443 54.0767V59.0052C53.5443 59.4197 53.3382 59.6601 52.9259 59.6601H52.4311C52.3433 59.6696 52.2544 59.6592 52.1711 59.6296C52.0877 59.6 52.0121 59.5521 51.9496 59.4893C51.8871 59.4265 51.8394 59.3504 51.81 59.2666C51.7806 59.1828 51.7702 59.0935 51.7797 59.0052L51.7776 47.1398Z" fill="#899ECE"/>
<path d="M65.7772 46.1699C69.2693 46.1699 71.2504 48.7129 71.2504 52.4601C71.2505 52.5484 71.2328 52.6358 71.1984 52.7171C71.164 52.7983 71.1136 52.8718 71.0502 52.933C70.9869 52.9941 70.9119 53.0418 70.8297 53.0731C70.7476 53.1044 70.66 53.1186 70.5722 53.115H61.1368C61.2151 56.4704 63.5095 58.3834 66.2204 58.3834C67.4683 58.3763 68.6785 57.9528 69.661 57.1793C70.0266 56.943 70.3131 56.9948 70.5207 57.3347L70.7268 57.6497C70.7734 57.7178 70.8057 57.7947 70.8218 57.8757C70.838 57.9567 70.8375 58.0402 70.8205 58.121C70.8036 58.2018 70.7704 58.2784 70.7231 58.3459C70.6758 58.4135 70.6154 58.4706 70.5454 58.514C69.2794 59.4539 67.7507 59.9681 66.1771 59.9834C62.2603 59.9834 59.3227 57.1523 59.3227 53.0901C59.3123 48.7647 62.2314 46.1699 65.7772 46.1699ZM69.4528 51.7782C69.3477 49.001 67.6799 47.6331 65.7236 47.6331C63.5343 47.6331 61.6315 49.1025 61.2151 51.7782H69.4528Z" fill="#899ECE"/>
<path d="M72.9202 47.5336C72.7141 46.7999 73.0769 46.3004 73.8314 46.3004H75.0827C75.7342 46.3004 76.1258 46.6155 76.2557 47.2704L78.3935 55.0818C78.5501 55.7886 78.6553 56.4974 78.6553 56.4974H78.7068C78.7068 56.4974 78.812 55.7886 78.9934 55.0818L81.2363 47.2704C81.3661 46.6486 81.7825 46.3274 82.434 46.3274H83.4256C83.707 46.3034 83.987 46.3873 84.2095 46.5622C84.432 46.737 84.5806 46.99 84.6253 47.2704L86.8394 55.0818C86.9726 55.5453 87.0691 56.0186 87.128 56.4974H87.1795C87.1795 56.4974 87.2826 55.7886 87.4661 55.0818L89.577 47.2704C89.7337 46.6155 90.1254 46.3004 90.7768 46.3004H91.9766C92.7579 46.3004 93.096 46.7999 92.8878 47.5336L89.4719 58.7503C89.4128 59.0267 89.2559 59.2722 89.0303 59.4411C88.8047 59.61 88.5257 59.6908 88.2453 59.6684H86.4992C85.8478 59.6684 85.4314 59.3534 85.2747 58.7254L83.2668 52.0414C83.132 51.5649 83.0274 51.0804 82.9535 50.5906H82.9019C82.9019 50.5906 82.7721 51.3243 82.5618 52.0414L80.556 58.7254C80.5112 59.0057 80.3627 59.2587 80.1402 59.4336C79.9177 59.6085 79.6376 59.6924 79.3562 59.6684H77.5586C76.9401 59.6684 76.5402 59.3803 76.3588 58.7503L72.9202 47.5336Z" fill="#899ECE"/>
<path d="M101.857 51.4114H102.404V51.0984C102.404 49.3409 101.282 48.7398 99.9298 48.7398C98.9616 48.765 98.0139 49.0253 97.1674 49.4984C96.5139 49.7865 96.0192 49.6828 95.7058 49.0528L95.4461 48.5554C95.1327 47.9523 95.2399 47.4279 95.8584 47.088C97.2005 46.3743 98.694 45.9968 100.212 45.9875C103.653 45.9875 105.712 47.9274 105.712 51.3077V58.5616C105.712 59.2953 105.347 59.6622 104.618 59.6622H103.731C103.028 59.6622 102.663 59.2953 102.663 58.5616V58.0373C102.659 57.8439 102.677 57.6507 102.715 57.4611H102.665C102.665 57.4611 101.414 59.9772 98.493 59.9772C96.0686 59.9772 94.0876 58.4041 94.0876 55.9668C94.0876 52.0684 98.8846 51.4114 101.857 51.4114ZM99.3835 57.4404C101.239 57.4404 102.435 55.5523 102.435 53.9274V53.43H101.882C100.214 53.43 97.3736 53.6932 97.3736 55.6849C97.3736 56.5803 98.0497 57.4404 99.3794 57.4404H99.3835Z" fill="#899ECE"/>
<path d="M107.514 47.5585C107.254 46.7999 107.566 46.3004 108.374 46.3004H109.598C109.88 46.2754 110.162 46.355 110.39 46.5241C110.617 46.6932 110.776 46.9402 110.835 47.2186L113.309 54.5844C113.509 55.2473 113.675 55.9204 113.804 56.601H113.857C113.973 55.92 114.129 55.2466 114.325 54.5844L116.799 47.2186C116.858 46.9423 117.014 46.6968 117.239 46.5279C117.465 46.359 117.743 46.2781 118.023 46.3004H119.248C120.056 46.3004 120.396 46.7999 120.134 47.5585L116.117 58.7772C116.053 59.0487 115.894 59.2882 115.669 59.4518C115.444 59.6154 115.169 59.6923 114.892 59.6684H112.806C112.187 59.6684 111.763 59.4052 111.581 58.7772L107.514 47.5585Z" fill="#899ECE"/>
<path d="M128.108 45.9875C131.889 45.9875 134 48.6818 134 52.3564C133.992 52.657 133.868 52.9426 133.654 53.1527C133.44 53.3628 133.153 53.4809 132.854 53.4818H124.746C124.952 55.8943 126.727 57.1523 128.735 57.1523C129.752 57.136 130.745 56.8361 131.602 56.286C132.254 55.973 132.722 56.0518 133.062 56.6549L133.375 57.1793C133.687 57.7803 133.582 58.3047 133.008 58.6466C131.663 59.514 130.099 59.9778 128.5 59.9834C124.095 59.9834 121.357 56.7855 121.357 52.9844C121.357 48.8704 124.119 45.9875 128.108 45.9875ZM130.716 51.4652C130.662 49.5999 129.543 48.5036 128.036 48.5036C126.342 48.5036 125.15 49.6828 124.831 51.4652H130.716Z" fill="#899ECE"/>
<path d="M15.4645 17.5583V23.5252C44.0491 10.6464 53.5402 51.7285 111.561 26.7356C113.629 25.848 115.392 24.3699 116.633 22.4844C117.873 20.5989 118.536 18.3889 118.539 16.1283C55.2347 47.115 45.4509 4.10747 16.8189 15.5438C16.4184 15.7045 16.0751 15.9825 15.8336 16.3417C15.5921 16.7009 15.4635 17.1248 15.4645 17.5583Z" fill="#899ECE"/>
<path d="M118.267 2.56549C99.2722 -5.99207 88.7091 9.27848 66.7296 13.1541C79.1067 15.3365 95.1039 13.9044 118.267 2.56549Z" fill="#6381C4"/>
<path d="M15.4645 13.0795C44.9706 -0.207582 54.1298 43.9833 117.314 13.6785C117.68 13.5028 117.989 13.2266 118.206 12.8819C118.423 12.5373 118.538 12.138 118.539 11.7303V5.68468C61.1533 33.7822 47.7495 1.05667 24.4134 3.22042C21.9677 3.44625 19.6941 4.58256 18.0386 6.40647C16.3831 8.23039 15.465 10.6103 15.4645 13.0795Z" fill="#899ECE"/>
<path d="M15.7366 26.8558C34.7271 18.2982 45.2922 33.5667 67.2738 37.4444C54.8905 39.6248 38.8974 38.1947 15.7366 26.8558Z" fill="white"/>
</svg>
