<svg width="30" height="30" viewBox="0 0 30 30" fill="none" xmlns="http://www.w3.org/2000/svg">
<path d="M4.64455 10.3555H0.878906C0.393516 10.3555 0 10.749 0 11.2344V20.6485C0 21.1338 0.393516 21.5274 0.878906 21.5274H4.64455C5.12994 21.5274 5.52346 21.1338 5.52346 20.6485V11.2344C5.52346 10.749 5.12994 10.3555 4.64455 10.3555Z" fill="white"/>
<path d="M21.1172 20.5235C21.6026 20.5235 21.9961 20.13 21.9961 19.6446V17.6993H22.0586C22.544 17.6993 22.9375 17.3057 22.9375 16.8204C22.9375 16.335 22.544 15.9415 22.0586 15.9415H21.9961V11.1719C21.9961 10.8165 21.782 10.496 21.4536 10.3599C21.1253 10.2239 20.7473 10.299 20.4958 10.5504C20.4958 10.5504 17.7517 13.2935 16.4507 14.5936C15.8663 15.1811 15.5312 15.9928 15.5312 16.8204C15.5312 17.3057 15.9248 17.6993 16.4102 17.6993H20.2383V19.6446C20.2383 20.13 20.6318 20.5235 21.1172 20.5235ZM17.5999 15.9415C17.6298 15.9044 17.6615 15.8689 17.6951 15.8351C18.3534 15.1773 19.383 14.1482 20.2383 13.2932V15.9415H17.5999Z" fill="white"/>
<path d="M13.996 19.6445C13.996 19.1591 13.6025 18.7656 13.1171 18.7656H9.5999C9.62973 18.7286 9.66148 18.693 9.69506 18.6593C10.9943 17.361 13.7385 14.6177 13.7385 14.6177C13.9034 14.4528 13.9961 14.2292 13.9961 13.9961V13.5254C13.9961 11.743 12.5461 10.293 10.7637 10.293C8.96439 10.293 7.53125 11.7504 7.53125 13.5244V13.5254C7.53125 14.0107 7.92477 14.4038 8.41016 14.4038C8.89555 14.4038 9.28906 14.0098 9.28906 13.5244C9.28906 12.7181 9.93828 12.0508 10.7637 12.0508C11.5768 12.0508 12.2383 12.7123 12.2383 13.5254V13.6319C11.5256 14.3444 9.5099 16.3593 8.45065 17.4179C7.86629 18.0054 7.53125 18.817 7.53125 19.6445C7.53125 20.1299 7.92477 20.5234 8.41016 20.5234H13.1172C13.6025 20.5234 13.996 20.1299 13.996 19.6445Z" fill="white"/>
<path d="M14.9992 1.75781C19.4105 1.75781 23.1274 4.78758 24.1785 8.87549C24.5329 8.69807 24.9322 8.59764 25.3547 8.59764H25.9203C24.7307 3.67102 20.2859 0 14.9992 0C9.71244 0 5.26764 3.67102 4.07812 8.59764H4.64373C5.06625 8.59764 5.46551 8.69807 5.81988 8.87549C6.87094 4.78758 10.5879 1.75781 14.9992 1.75781Z" fill="white"/>
<path d="M24.0037 22.9141C23.1252 24.9395 21.1063 26.36 18.7617 26.36H17.6136C17.2456 25.2669 16.2117 24.4772 14.9961 24.4772C13.4733 24.4772 12.2344 25.7161 12.2344 27.2389C12.2344 28.7617 13.4733 30.0006 14.9961 30.0006C16.2116 30.0006 17.2455 29.2108 17.6136 28.1178H18.7617C21.9521 28.1178 24.6813 26.1067 25.7493 23.2857H25.3515C24.8593 23.2857 24.3984 23.1498 24.0037 22.9141Z" fill="white"/>
<path d="M29.1211 10.3555H25.3555C24.8701 10.3555 24.4766 10.749 24.4766 11.2344V20.6485C24.4766 21.1338 24.8701 21.5274 25.3555 21.5274H29.1211C29.6065 21.5274 30 21.1338 30 20.6485V11.2344C30 10.749 29.6065 10.3555 29.1211 10.3555Z" fill="white"/>
</svg>
