<svg width="30" height="30" viewBox="0 0 30 30" fill="none" xmlns="http://www.w3.org/2000/svg">
<path fill-rule="evenodd" clip-rule="evenodd" d="M4.95898 7.06777L2.84375 9.56211H3.44668C3.64063 9.56211 3.79824 9.71973 3.79824 9.91367V16.0455H6.1168V9.91367C6.1168 9.71973 6.27441 9.56211 6.46836 9.56211H7.07129L4.95898 7.06777ZM19.7281 21.7385C19.843 21.9166 19.857 22.1375 19.7662 22.3291C19.7088 22.4469 19.6584 22.5688 19.6156 22.6918C19.5441 22.8922 19.3789 23.0381 19.1709 23.0826L18.3553 23.2578V24.4596L19.1709 24.6354C19.3789 24.6799 19.5441 24.8258 19.6156 25.0262C19.6584 25.1492 19.7088 25.2711 19.7662 25.3889C19.857 25.5805 19.843 25.8008 19.7281 25.9795L19.2758 26.6809L20.1254 27.5305L20.8262 27.077C21.0055 26.9615 21.2258 26.948 21.4174 27.0406C21.5346 27.0975 21.6564 27.1479 21.7789 27.1912C21.9799 27.2609 22.1258 27.4268 22.1715 27.6342L22.3461 28.4504H23.5473L23.7242 27.6342C23.767 27.4268 23.9135 27.2615 24.1145 27.1912C24.2363 27.1479 24.3582 27.0975 24.4783 27.0406C24.6699 26.948 24.8896 26.9621 25.0695 27.0775L25.7703 27.5305L26.6199 26.6809L26.1652 25.9795C26.0504 25.8008 26.0363 25.5799 26.1295 25.3889C26.1869 25.2711 26.2373 25.1492 26.2801 25.0262C26.3492 24.8258 26.5168 24.6799 26.7225 24.6354L27.5381 24.4596V23.2578L26.7225 23.0826C26.5145 23.0381 26.3492 22.8922 26.2801 22.6918C26.2373 22.5693 26.1869 22.4469 26.1295 22.3291C26.0363 22.1375 26.0504 21.9172 26.1652 21.7385L26.6199 21.0371L25.7703 20.1875L25.0695 20.6404C24.8902 20.7559 24.6699 20.7699 24.4783 20.6773C24.3588 20.6205 24.2369 20.5701 24.1145 20.5268C23.9135 20.4564 23.7676 20.2912 23.7242 20.0832L23.5473 19.2676H22.3461L22.1715 20.0838C22.1258 20.2912 21.9799 20.457 21.7789 20.5268C21.657 20.5701 21.5352 20.6205 21.4174 20.6773C21.2258 20.7699 21.0061 20.7559 20.8262 20.6404L20.1254 20.1875L19.2758 21.0371L19.7281 21.7385ZM20.3691 23.859C20.3691 22.4375 21.5246 21.2814 22.9461 21.2814C24.367 21.2814 25.5254 22.4375 25.5254 23.859C25.5254 25.2799 24.3676 26.4365 22.9461 26.4365C21.5246 26.4365 20.3691 25.2799 20.3691 23.859ZM14.9691 20.5221L15.7684 18.6518H16.9074C17.948 18.6518 18.9365 18.977 19.7592 19.5705C19.7328 19.5893 19.7064 19.6104 19.6848 19.6338L18.7203 20.5965C18.517 20.7998 18.4836 21.1104 18.6412 21.3518L19.1076 22.0742C19.0549 22.1826 19.0098 22.2945 18.9688 22.407L18.1291 22.5875C17.8467 22.6479 17.6504 22.891 17.6504 23.1781V24.5398C17.6504 24.827 17.8467 25.0701 18.1291 25.1305L18.9688 25.3109C19.0092 25.4234 19.0572 25.5354 19.1076 25.6438L18.6412 26.3662C18.4836 26.6076 18.517 26.9182 18.7203 27.1215L19.6848 28.0842C19.8881 28.2875 20.1969 28.3203 20.4383 28.1645L21.1607 27.6975C21.2709 27.7484 21.3811 27.7947 21.4936 27.8357L21.6254 28.4504H14.6486L15.4906 26.3773C15.5123 26.3246 15.5193 26.2678 15.5147 26.2109L14.9691 20.5221ZM11.9094 26.2109L12.4572 20.5221L11.6557 18.6518H10.5189C7.81777 18.6518 5.61934 20.8496 5.61934 23.5508V28.4504H12.7777L11.9357 26.3773C11.9141 26.3246 11.9047 26.2678 11.9094 26.2109ZM14.2895 20.818H13.134L12.6172 26.1922L13.5359 28.4504H13.8875L14.8063 26.1922L14.2895 20.818ZM15.0025 18.6518H12.4209L13.0455 20.1148H14.3779L15.0025 18.6518ZM22.4674 7.06777L20.3521 9.56211H20.9574C21.1514 9.56211 21.309 9.71973 21.309 9.91367V16.0455H23.6275V9.91367C23.6275 9.71973 23.7828 9.56211 23.9768 9.56211H24.582L22.4674 7.06777ZM12.5527 4.65195V7.70879C12.9213 7.60098 13.3109 7.54238 13.7129 7.54238C14.1148 7.54238 14.5021 7.60098 14.8707 7.70879V4.65195C14.8707 4.45801 15.0283 4.30039 15.2223 4.30039H15.8275L13.7123 1.80664L11.5977 4.30039H12.2006C12.3975 4.30039 12.5527 4.45859 12.5527 4.65195ZM13.7129 8.24551C11.8156 8.24551 10.2752 9.7877 10.2752 11.6832C10.2752 13.5793 11.8162 15.1215 13.7129 15.1215C15.6078 15.1215 17.1512 13.5793 17.1512 11.6832C17.1512 9.7877 15.6078 8.24551 13.7129 8.24551Z" fill="white"/>
</svg>
