<svg width="112" height="28" viewBox="0 0 112 28" fill="none" xmlns="http://www.w3.org/2000/svg">
<path fill-rule="evenodd" clip-rule="evenodd" d="M111.294 21.5672C106.636 29.4645 99.259 27.173 97.0435 25.3788C96.1005 26.0186 94.4472 27.4209 92.2425 27.2589C87.5472 26.9143 85.8659 20.2046 85.8659 20.2046C85.8996 20.2314 84.4672 20.6988 83.6931 20.6905C83.6832 22.6582 81.9823 27.3585 77.3919 27.2984C72.2408 27.2312 71.1936 19.557 71.1936 19.557C71.1936 19.557 70.681 20.2688 68.732 20.9778C68.8301 19.4661 68.7584 27.0683 62.5846 27.18C57.7038 27.2685 56.3863 19.4387 56.3863 19.4387C56.3863 19.4387 55.5396 20.3182 53.8987 20.6233C54.003 19.087 53.8334 27.2058 47.6589 27.18C43.4862 27.1627 42.0603 22.3569 42.1712 21.6899C42.3127 20.8398 40.761 27.2996 36.7079 27.199C35.0353 27.1498 33.7883 25.9388 33.0059 24.3243C31.9584 25.5228 30.4376 27.199 28.7316 27.199C25.6692 27.199 24.3191 24.6376 24.5477 17.3218C24.5673 16.4542 24.5046 16.1129 23.6421 15.9831C23.1243 15.8967 22.5941 15.7331 22.0331 15.6469C21.8533 16.2469 20.3283 27.0037 15.0842 27.2079C13.3249 27.2764 12.363 25.7524 11.573 24.6213C10.362 26.2233 8.76335 27.2589 6.486 27.2589C2.62834 27.2589 0 24.1404 0 20.2934C0 16.4464 2.62834 13.3281 6.486 13.3281C7.16807 13.3281 7.35954 13.4259 7.98266 13.6077C6.7012 1.94037 9.72749 0.116933 12.3748 0.116933C14.9164 0.116933 19.2585 6.01595 13.1488 20.979C14.5053 25.442 17.4296 25.1896 18.8348 16.0021C19.1208 14.1346 18.3561 11.6144 19.5455 11.2627C21.7199 10.6199 21.9506 12.5485 22.9701 12.8699C24.0481 13.2095 24.6773 13.1763 25.7121 13.3924C27.4805 13.7378 28.1706 14.6877 27.9551 16.8035C27.6964 19.4806 27.2438 23.3771 28.6238 23.852C29.6189 24.197 31.4358 22.1332 31.7547 21.004C32.0734 19.8749 32.1399 19.4884 32.1683 18.6602C32.2114 16.89 32.2655 15.5925 32.5673 14.2538C32.6965 13.7358 32.8438 13.3927 33.4299 13.3693C33.9121 13.357 34.794 13.2118 35.1823 13.5139C35.6997 13.9027 35.635 14.2972 35.5756 15.3355C34.9738 30.1392 39.6056 22.7491 40.9866 16.8318C40.4948 10.1408 40.8324 0.239457 45.0253 0.0733942C47.206 -0.0129681 48.17 1.73397 48.2761 3.03789C48.576 6.72066 46.8959 12.8211 44.6864 16.9236C43.4236 25.2946 50.2077 26.9498 51.2926 20.2681C49.5176 19.4242 47.5993 16.0083 49.1603 14.3436C50.0362 13.4094 53.6822 14.7515 53.7419 17.6787C55.5303 17.2004 55.7691 16.1906 55.7939 16.3579C55.3023 9.66689 55.7583 0.239544 59.9515 0.0734796C62.1318 -0.0128826 63.0957 1.73406 63.2017 3.03798C63.5017 6.72074 61.8216 12.8212 59.6124 16.9238C58.3494 25.2946 65.1336 26.9499 66.2182 20.2682C64.9041 20.0146 62.1301 16.3814 63.7306 14.3437C64.586 13.2548 68.2186 15.5193 68.6253 17.7756C70.3434 17.2894 70.5767 16.3117 70.6014 16.4763C70.1096 9.78547 70.5656 0.358124 74.7588 0.19206C76.9391 0.105698 77.903 1.85264 78.0091 3.15656C78.309 6.83932 76.6289 12.9399 74.4194 17.0424C73.1568 25.4134 79.9408 27.0683 81.0257 20.3866C79.2198 20.0859 76.6533 16.2497 78.7189 14.2872C79.5442 13.5031 82.6977 15.5385 83.4359 17.8607C84.4615 17.8212 85.1 17.4675 85.2368 17.4318C83.5994 9.57695 84.8184 0.152267 89.3291 0.0735948C91.7671 0.0311141 94.1506 1.39164 93.1044 8.8645C92.1058 15.9945 88.5161 18.9866 88.5245 19.0324C88.7333 19.8866 90.5753 27.0351 95.2138 23.2633C94.9737 22.7196 94.7333 22.1642 94.599 21.4913C93.8301 17.5716 95.3402 13.1443 99.4447 12.4288C101.796 12.0188 104.012 13.1637 104.362 15.7449C104.938 19.9684 101.124 23.0272 99.6741 23.6907C99.0245 23.3217 105.562 27.5146 109.442 19.1119C109.667 18.6322 109.938 18.6728 110.29 18.9201C110.538 19.0947 111.951 20.4338 111.294 21.5672ZM9.2921 19.2556C9.09468 18.6654 8.68955 17.365 8.54628 16.8015C7.75727 16.1154 7.1941 16.0039 6.18134 16.0039C3.93067 16.0039 2.60596 18.0848 2.60596 20.3286C2.60596 22.5724 4.04913 24.6536 6.29982 24.6536C8.25029 24.6536 9.73478 23.3274 10.1877 21.4501C9.87068 20.7182 9.55621 20.0456 9.2921 19.2556ZM12.3197 3.20536C10.7382 3.20536 10.2018 6.97792 10.3059 10.1963C10.398 13.0417 11.1931 15.5467 11.6055 16.6692C11.7102 16.8098 11.6908 16.7183 11.7843 16.8675C14.5302 10.8511 13.3913 3.20536 12.3197 3.20536ZM45.2512 3.32386C43.2073 3.08945 43.2205 11.604 43.4742 13.5139C44.5358 11.8157 46.3798 3.78111 45.2512 3.32386ZM60.1769 3.32386C58.1329 3.08945 58.1461 11.604 58.4 13.5139C59.4615 11.8157 61.3056 3.78111 60.1769 3.32386ZM74.9844 3.44233C72.9403 3.20791 72.9535 11.7225 73.2074 13.6326C74.2688 11.9342 76.113 3.89954 74.9844 3.44233ZM89.5547 2.82543C86.3701 3.46493 87.1116 14.0828 87.5953 15.9451C91.3465 10.7929 91.4238 2.6319 89.5547 2.82543ZM101.49 16.0942C101.328 15.4172 100.518 15.0554 99.9593 15.1446C98.3604 15.363 96.8095 17.3544 97.4098 20.3863C97.5435 21.0615 97.8779 21.6831 97.8724 21.6624C101.451 19.2616 101.755 17.3698 101.49 16.0942ZM34.0567 11.0257C33.5997 11.0258 33.153 10.8903 32.773 10.6365C32.3929 10.3827 32.0967 10.0218 31.9217 9.59961C31.7467 9.17742 31.701 8.71281 31.7901 8.26458C31.8792 7.81634 32.0993 7.4046 32.4224 7.08142C32.7455 6.75824 33.1572 6.53815 33.6054 6.44898C34.0537 6.35981 34.5183 6.40555 34.9405 6.58045C35.3628 6.75534 35.7236 7.05151 35.9775 7.43151C36.2314 7.81151 36.3669 8.25827 36.3669 8.71527C36.3669 9.01867 36.3072 9.3191 36.191 9.59939C36.075 9.8797 35.9049 10.1344 35.6903 10.3489C35.4757 10.5635 35.2211 10.7337 34.9408 10.8498C34.6606 10.9659 34.3602 11.0257 34.0567 11.0257Z" fill="#141416"/>
</svg>
