<svg width="167" height="48" viewBox="0 0 167 48" fill="none" xmlns="http://www.w3.org/2000/svg">
<path fill-rule="evenodd" clip-rule="evenodd" d="M4.04667 38.1062V34.0595H22.2567V38.1062H4.04667ZM18.3887 17.8728H7.91292L13.1517 25.1231L18.3887 17.8728ZM26.3033 13.8262L13.1517 32.0362L0 13.8262H26.3033Z" fill="#141416"/>
<path d="M42.3536 34.0607V27.5658H36.1251V34.0607H32.3701V17.8741H36.1251V24.2088H42.3536V17.8707H46.1085V34.0573L42.3536 34.0607Z" fill="black"/>
<path d="M50.8464 34.0608V17.8741H61.103V21.3155H54.6014V24.2088H60.5213V27.4782H54.6014V30.6363H61.103V34.0608H50.8464Z" fill="black"/>
<path d="M65.5764 34.0608V17.8741H69.3297V30.6397H75.8245V34.0642L65.5764 34.0608Z" fill="black"/>
<path d="M78.9757 34.0608V17.8741H82.7357V30.6397H89.2289V34.0642L78.9757 34.0608Z" fill="black"/>
<path d="M99.821 34.3255C94.8065 34.3255 91.6045 30.7257 91.6045 25.9759C91.6045 21.2261 94.9616 17.6044 99.9761 17.6044C104.991 17.6044 108.193 21.2059 108.193 25.9759C108.193 30.7459 104.814 34.3255 99.821 34.3255ZM99.8834 20.9631C97.3222 20.9631 95.599 23.0606 95.599 25.9759C95.599 28.8912 97.3222 30.9904 99.8834 30.9904C102.445 30.9904 104.169 28.8693 104.169 25.9759C104.169 23.0825 102.45 20.9631 99.8834 20.9631Z" fill="black"/>
<path d="M116.306 34.3255C114.473 34.3255 112.26 33.5971 110.852 32.6681L111.889 29.2672C113.192 30.2165 114.893 30.8353 116.417 30.8353C117.743 30.8353 118.25 30.2165 118.25 29.4223C118.25 28.5793 117.83 28.0077 115.357 27.0145C112.507 25.8663 111.518 24.2089 111.518 22.2648C111.518 19.9042 113.438 17.6044 117.215 17.6044C118.982 17.6044 120.795 18.2232 121.744 18.8639L120.791 22.2209C119.862 21.5802 118.362 20.8956 117.212 20.8956C115.843 20.8956 115.291 21.5364 115.291 22.199C115.291 23.2596 116.107 23.6137 118.141 24.4736C121.166 25.755 122.071 27.2135 122.071 29.2891C122.071 31.8739 120.194 34.3255 116.306 34.3255Z" fill="black"/>
<path d="M126.097 34.0608V17.8741H129.852V34.0608H126.097Z" fill="black"/>
<path d="M148.572 24.9609V32.6917C146.715 33.7934 144.589 34.359 142.431 34.3255C137.683 34.3255 133.928 30.9246 133.928 25.9759C133.928 21.0272 137.727 17.6044 142.63 17.6044C144.751 17.6044 146.451 18.1574 148.062 18.9971L146.494 22.022C145.379 21.4349 144.139 21.1244 142.879 21.1165C139.654 21.1165 137.932 23.1264 137.932 25.9759C137.932 29.0682 140.008 30.9904 142.653 30.9904C143.845 30.9904 144.442 30.8572 145.039 30.5486V28.1628H141.79V24.9592L148.572 24.9609Z" fill="black"/>
<path d="M166.404 34.3694L156.641 25.6016V34.0608H152.886V17.6499L153.392 17.5605L163.023 26.2626V17.8708H166.778V34.3036L166.404 34.3694Z" fill="black"/>
</svg>
