<svg width="125" height="36" viewBox="0 0 125 36" fill="none" xmlns="http://www.w3.org/2000/svg">
<path d="M6.42617 0.290208C3.8706 1.35993 1.06117 4.38205 0.173863 8.17545C-0.949845 12.9818 3.72643 15.0143 4.10998 14.3479C4.56141 13.5648 3.27204 13.3 3.00664 10.8063C2.66362 7.58533 4.16102 3.98631 6.04556 2.40717C6.39586 2.11378 6.37919 2.52213 6.37919 3.27745C6.37919 4.62814 6.30456 16.7534 6.30456 19.284C6.30456 22.7081 6.16313 23.7894 5.90912 24.8578C5.65176 25.9406 5.238 26.6722 5.55153 26.954C5.90181 27.2693 7.3974 26.5194 8.26322 25.311C9.30147 23.8617 9.6649 22.1212 9.73015 20.231C9.80896 17.9524 9.8056 14.3368 9.80896 12.2745C9.81212 10.3831 9.84082 4.84447 9.77581 1.51487C9.75987 0.698193 7.49492 -0.158626 6.42605 0.289214L6.42617 0.290208ZM97.1745 16.315C97.0921 18.0951 96.698 19.4866 96.209 20.468C95.2622 22.368 93.2976 22.958 92.4635 20.2267C92.0089 18.7378 91.9877 16.2513 92.3145 14.1736C92.6472 12.057 93.5761 10.4586 95.1143 10.6027C96.6314 10.7452 97.3416 12.7002 97.1745 16.315ZM71.5978 27.3594C71.5772 30.3172 71.1117 32.9106 70.1135 33.6638C68.6976 34.7319 66.7946 33.9307 67.1887 31.7724C67.5373 29.8624 69.1862 27.9119 71.6018 25.5287C71.6018 25.5287 71.6068 26.0722 71.5978 27.3594ZM71.2111 16.2978C71.1246 17.9191 70.7042 19.5479 70.2457 20.4682C69.2991 22.3682 67.3202 22.9622 66.5002 20.2269C65.9395 18.358 66.0737 15.9392 66.3512 14.4151C66.7112 12.4377 67.5838 10.6032 69.1509 10.6032C70.6746 10.6032 71.4259 12.2747 71.2111 16.2978ZM56.3946 16.273C56.3017 17.9901 55.9667 19.4256 55.4291 20.4682C54.4564 22.3551 52.5322 22.9536 51.6836 20.2269C51.0718 18.2607 51.2801 15.5798 51.5346 14.1316C51.9122 11.9824 52.858 10.4588 54.3343 10.6032C55.8509 10.7513 56.5881 12.7002 56.3946 16.273ZM124.296 18.2787C123.925 18.2787 123.756 18.6608 123.616 19.3041C123.13 21.5406 122.62 22.0456 121.962 22.0456C121.227 22.0456 120.566 20.9382 120.396 18.7213C120.263 16.9781 120.284 13.7688 120.455 10.5765C120.49 9.92058 120.309 9.2716 118.55 8.6325C117.793 8.3576 116.692 7.95283 116.144 9.27538C114.596 13.0118 113.991 15.9783 113.848 17.1833C113.841 17.2457 113.764 17.2584 113.751 17.1127C113.66 16.1476 113.457 14.3936 113.432 10.7087C113.427 9.98972 113.275 9.37773 112.481 8.8767C111.966 8.55159 110.403 7.97659 109.84 8.66066C109.352 9.22011 108.787 10.7257 108.2 12.5104C107.723 13.9609 107.391 14.9422 107.391 14.9422C107.391 14.9422 107.397 11.0283 107.403 9.54376C107.405 8.98368 107.021 8.79706 106.905 8.76322C106.384 8.61189 105.356 8.35909 104.92 8.35909C104.382 8.35909 104.251 8.65982 104.251 9.09801C104.251 9.15538 104.166 14.251 104.166 17.814C104.166 17.9688 104.166 18.1376 104.167 18.317C103.87 19.9546 102.905 22.1777 101.855 22.1777C100.804 22.1777 100.309 21.2483 100.309 17.0006C100.309 14.5226 100.383 13.4451 100.419 11.6528C100.441 10.6205 100.482 9.82776 100.479 9.64787C100.472 9.0962 99.5177 8.81815 99.0738 8.71539C98.6279 8.61177 98.2403 8.57163 97.9377 8.58886C97.5094 8.61303 97.2063 8.89403 97.2063 9.28051C97.2063 9.48773 97.2087 9.88178 97.2087 9.88178C96.657 9.01487 95.7697 8.41149 95.1794 8.23664C93.5893 7.76441 91.9301 8.18283 90.6786 9.93412C89.6839 11.3256 89.0843 12.9016 88.8483 15.1659C88.6757 16.8212 88.7321 18.4999 89.0387 19.9195C88.6682 21.5214 87.9803 22.1777 87.2271 22.1777C86.1336 22.1777 85.3409 20.3929 85.4329 17.3061C85.4937 15.2759 85.8999 13.8511 86.344 11.7898C86.5333 10.9111 86.3795 10.4511 85.9936 10.0102C85.6397 9.60584 84.8857 9.39925 83.8017 9.65334C83.0295 9.8345 81.9256 10.0293 80.9155 10.1789C80.9155 10.1789 80.9765 9.93579 81.0265 9.50707C81.2892 7.25876 78.8461 7.44118 78.0666 8.15929C77.6013 8.58803 77.2846 9.09368 77.1644 10.0028C76.9737 11.4456 78.1504 12.1261 78.1504 12.1261C77.7644 13.8933 76.818 16.202 75.841 17.8711C75.3177 18.7653 74.9173 19.428 74.4005 20.1324C74.3986 19.8701 74.3972 19.6078 74.3963 19.3468C74.3844 15.6313 74.4339 12.7071 74.4557 11.6532C74.477 10.6209 74.5184 9.84914 74.516 9.66925C74.5102 9.26574 74.2746 9.11337 73.7845 8.92043C73.3511 8.74979 72.8387 8.63168 72.3073 8.59049C71.6364 8.53816 71.2323 8.89396 71.2428 9.3147C71.2448 9.39415 71.2448 9.88193 71.2448 9.88193C70.6931 9.01501 69.8058 8.41165 69.2155 8.23678C67.6254 7.76476 65.9662 8.18319 64.7147 9.93426C63.7202 11.3257 63.0689 13.2783 62.8844 15.1488C62.7125 16.892 62.7442 18.3735 62.9785 19.6214C62.7257 20.8711 61.9988 22.1778 61.1768 22.1778C60.126 22.1778 59.5281 21.2484 59.5281 17.0007C59.5281 14.5227 59.6025 13.4452 59.6391 11.6532C59.6603 10.6209 59.7013 9.82792 59.699 9.64823C59.6912 9.09656 58.7373 8.81851 58.2934 8.71553C57.829 8.60814 57.428 8.56863 57.1201 8.59132C56.7138 8.62159 56.4282 8.98539 56.4282 9.2567V9.88193C55.8766 9.01501 54.9893 8.41165 54.3989 8.23678C52.8088 7.76476 51.1589 8.18993 49.8981 9.93426C49.076 11.0716 48.4104 12.3326 48.0678 15.124C47.9688 15.9306 47.9251 16.686 47.9308 17.3921C47.6029 19.397 46.1549 21.7079 44.9704 21.7079C44.2773 21.7079 43.6172 20.3635 43.6172 17.4984C43.6172 13.6819 43.8534 8.24793 43.8934 7.72421C43.8934 7.72421 45.3899 7.69878 45.6797 7.69541C46.4262 7.68721 47.1023 7.70486 48.0966 7.65401C48.5953 7.62858 49.0757 5.83884 48.561 5.61734C48.3278 5.51709 46.6791 5.42925 46.0255 5.41537C45.4759 5.40292 43.9459 5.28969 43.9459 5.28969C43.9459 5.28969 44.0831 1.6829 44.1151 1.30189C44.1422 0.98433 43.7313 0.82083 43.4957 0.72162C42.9228 0.47931 42.4103 0.363294 41.8027 0.23804C40.9633 0.0648762 40.5825 0.234257 40.5081 0.942711C40.3961 2.01791 40.3381 5.16717 40.3381 5.16717C39.7221 5.16717 37.6179 5.04675 37.0018 5.04675C36.4293 5.04675 35.8114 7.50879 36.6029 7.53905C37.5135 7.57436 39.1004 7.60483 40.1525 7.63657C40.1525 7.63657 40.1056 13.16 40.1056 14.8653C40.1056 15.0467 40.1072 15.2214 40.1075 15.3909C39.5285 18.4089 37.4891 20.0391 37.4891 20.0391C37.9271 18.0425 37.0324 16.5432 35.4209 15.2741C34.8272 14.8064 33.6551 13.921 32.3437 12.9507C32.3437 12.9507 33.1033 12.2022 33.7768 10.6961C34.2541 9.62936 34.2747 8.40852 33.1033 8.13932C31.1677 7.69419 29.5717 9.11572 29.0957 10.6333C28.7269 11.8089 28.9236 12.6813 29.6461 13.5875C29.6989 13.6537 29.756 13.7214 29.8151 13.7895C29.3781 14.6317 28.7779 15.7655 28.2695 16.6448C26.8585 19.086 25.7926 21.0169 24.987 21.0169C24.3431 21.0169 24.3517 19.0565 24.3517 17.221C24.3517 15.6387 24.4686 13.2597 24.5619 10.7966C24.5928 9.98201 24.1855 9.51796 23.5027 9.09765C23.0878 8.8423 22.2024 8.34023 21.6896 8.34023C20.9221 8.34023 18.7076 8.44467 16.6153 14.4971C16.3516 15.26 15.8335 16.65 15.8335 16.65L15.8781 9.37169C15.8781 9.20105 15.7872 9.03607 15.5791 8.92321C15.2266 8.73176 14.2848 8.34023 13.4475 8.34023C13.0485 8.34023 12.8494 8.5258 12.8494 8.89568L12.7764 20.2827C12.7764 21.1478 12.7989 22.1572 12.8845 22.5986C12.9697 23.0406 13.1078 23.4002 13.2788 23.6141C13.4495 23.8277 13.647 23.9905 13.9727 24.0578C14.2758 24.1202 15.9355 24.3333 16.0218 23.699C16.1251 22.9389 16.1291 22.1168 17.0006 19.0505C18.3574 14.2767 20.1263 11.9474 20.9579 11.1202C21.1033 10.9757 21.2694 10.967 21.2614 11.2037C21.2259 12.2503 21.101 14.8655 21.017 17.0874C20.7917 23.0332 21.8734 24.1353 23.4191 24.1353C24.6017 24.1353 26.2687 22.9603 28.0557 19.9859C29.1698 18.1323 30.2515 16.3148 31.0286 15.0049C31.5702 15.5062 32.178 16.0458 32.7854 16.6223C34.1968 17.9619 34.6602 19.2348 34.3528 20.4424C34.1176 21.3655 33.232 22.3169 31.6558 21.3922C31.1964 21.1224 31.0003 20.914 30.5383 20.6099C30.2901 20.4465 29.9112 20.3976 29.684 20.5688C29.0939 21.0138 28.7564 21.5797 28.5637 22.2804C28.3762 22.9622 29.059 23.3226 29.7668 23.6378C30.3763 23.9091 31.6862 24.155 32.5216 24.183C35.7766 24.2919 38.3841 22.6114 40.1992 18.2766C40.5242 22.0202 41.907 24.1387 44.3096 24.1387C45.9159 24.1387 47.5263 22.0624 48.2306 20.0199C48.4328 20.8525 48.732 21.5765 49.1185 22.1888C50.9698 25.122 54.5613 24.4907 56.3653 21.9999C56.9231 21.2303 57.008 20.9537 57.008 20.9537C57.2711 23.3056 59.1651 24.1273 60.2495 24.1273C61.464 24.1273 62.718 23.5532 63.5969 21.5745C63.6999 21.7892 63.8124 21.9943 63.9351 22.1887C65.7864 25.1219 69.3779 24.4906 71.1819 21.9998C71.267 21.883 71.3408 21.777 71.4053 21.6819L71.4582 23.2267C71.4582 23.2267 70.4291 24.1708 69.7973 24.75C67.0169 27.3009 64.9027 29.2363 64.7472 31.4901C64.5475 34.3638 66.8782 35.4319 68.6414 35.5718C70.514 35.7204 72.1175 34.686 73.1032 33.2384C73.9701 31.9642 74.5375 29.2218 74.4959 26.5132C74.4793 25.4286 74.452 24.0495 74.4305 22.5712C75.4078 21.4364 76.5088 20.002 77.5227 18.323C78.6275 16.4933 79.8115 14.0362 80.4178 12.1239C80.4178 12.1239 81.4466 12.1327 82.5445 12.0609C82.8956 12.038 82.9965 12.1096 82.9316 12.3671C82.8532 12.6781 81.5445 17.7258 82.7389 21.0883C83.5564 23.3902 85.3993 24.1308 86.4919 24.1308C87.771 24.1308 88.9945 23.1649 89.6502 21.7306C89.7292 21.8905 89.8118 22.0452 89.902 22.1881C91.7533 25.1213 95.3322 24.4862 97.1488 21.9992C97.5588 21.4381 97.7915 20.953 97.7915 20.953C98.1813 23.3871 100.074 24.139 101.158 24.139C102.288 24.139 103.36 23.676 104.229 21.6184C104.266 22.5244 104.323 23.2652 104.413 23.4987C104.468 23.6416 104.789 23.8209 105.023 23.9075C106.056 24.2906 107.11 24.1094 107.499 24.0306C107.769 23.976 107.98 23.7593 108.009 23.1998C108.085 21.7308 108.038 19.2627 108.483 17.4284C109.231 14.3499 109.928 13.1558 110.259 12.5646C110.444 12.2334 110.653 12.1788 110.661 12.5293C110.676 13.2386 110.712 15.3215 111.001 18.12C111.214 20.1782 111.498 21.3948 111.716 21.7798C112.339 22.8808 113.109 22.9329 113.736 22.9329C114.134 22.9329 114.968 22.8228 114.894 22.1221C114.857 21.7806 114.921 19.6699 115.658 16.6371C116.139 14.6566 116.942 12.867 117.231 12.2128C117.338 11.9715 117.387 12.1617 117.386 12.1988C117.325 13.5627 117.188 18.024 117.744 20.464C118.497 23.7694 120.676 24.1393 121.435 24.1393C123.056 24.1393 124.382 22.9062 124.828 19.6618C124.936 18.881 124.777 18.2781 124.299 18.2781" fill="#262626"/>
</svg>
