<svg width="123" height="48" viewBox="0 0 123 48" fill="none" xmlns="http://www.w3.org/2000/svg">
<path d="M52.2211 18.3392H56.8903L50.2551 35.05H46.0774L39.3193 18.3392H44.1114L48.1663 29.5207L52.2211 18.3392ZM58.3648 34.9271H62.9111V18.3392H58.3648V34.9271ZM65 29.5207H69.5463C69.6692 30.6265 70.4064 31.7324 72.3724 31.7324C74.0927 31.7324 74.9528 31.118 74.9528 30.2579C74.9528 27.4318 65.7372 30.135 65.7372 23.4999C65.7372 20.428 68.3176 17.9705 72.3724 17.9705C77.4103 17.9705 79.1305 21.1653 79.2534 23.6227H74.9528C74.8299 22.5169 74.0927 21.6567 72.4953 21.6567C71.0208 21.6567 70.1607 22.394 70.1607 23.2541C70.1607 26.0802 79.3762 23.2541 79.3762 30.135C79.3762 33.084 76.7959 35.4186 72.3724 35.4186C67.0888 35.2958 65.2457 32.7154 65 29.5207ZM81.588 34.9271H86.1343V18.3392H81.588V34.9271ZM96.8243 31.3638C99.1589 31.3638 101.002 29.6436 101.002 26.5717C101.002 23.6227 99.1589 21.7796 96.8243 21.7796C94.4897 21.7796 92.6466 23.4999 92.6466 26.5717C92.6466 29.6436 94.4897 31.3638 96.8243 31.3638ZM88.1003 26.5717C88.1003 21.7796 91.5408 17.8477 96.8243 17.8477C102.108 17.8477 105.548 21.7796 105.548 26.5717C105.548 31.3638 102.108 35.2958 96.8243 35.2958C91.5408 35.2958 88.1003 31.3638 88.1003 26.5717ZM111.815 20.3051C112.552 18.8306 114.272 17.8477 116.73 17.8477C120.785 17.8477 122.874 20.5509 122.874 24.4828V34.9271H118.327V24.9743C118.327 23.0084 117.467 21.6567 115.501 21.6567C113.289 21.6567 112.061 23.0084 112.061 25.343V34.9271H107.514V18.3392H111.815V20.3051Z" fill="#0075DC"/>
<path d="M0 45.0035H41.9V3.10352H0V45.0035Z" fill="#0075DC"/>
<path d="M14.7448 16.2509C16.0964 16.2509 17.2022 15.2679 17.2022 13.7934C17.2022 12.4418 16.0964 11.3359 14.7448 11.3359C13.3932 11.3359 12.2873 12.3189 12.2873 13.7934C12.2873 15.2679 13.3932 16.2509 14.7448 16.2509ZM9.58407 29.2755C9.46119 29.8899 9.33832 30.5043 9.33832 31.1186C9.33832 33.2075 10.4442 34.682 12.9017 34.682C14.9905 34.682 16.5879 33.4532 17.8166 31.4873L17.0794 34.4362H21.1342L23.4688 25.2207C24.0832 22.8861 25.1891 21.6573 26.9093 21.6573C28.2609 21.6573 29.121 22.5175 29.121 23.8691C29.121 24.2377 29.121 24.7292 28.9981 25.2207L27.7694 29.5213C27.6465 30.1356 27.5237 30.75 27.5237 31.3644C27.5237 33.3304 28.7524 34.8049 31.2099 34.8049C33.2987 34.8049 35.019 33.4532 36.002 30.1356L34.4046 29.5213C33.6674 31.733 32.9301 32.1016 32.4386 32.1016C31.9471 32.1016 31.5785 31.733 31.5785 30.9958C31.5785 30.6271 31.7014 30.2585 31.7014 29.8899L32.8072 25.7122C33.053 24.7292 33.1759 23.8691 33.1759 23.1318C33.1759 20.06 31.3327 18.4626 28.9981 18.4626C26.9093 18.4626 24.6976 20.4286 23.5917 22.3946L24.3289 18.8312H18.1852L17.3251 22.026H20.1512L18.431 28.784C17.0794 31.8559 14.499 31.9788 14.1304 31.8559C13.6389 31.733 13.2703 31.4873 13.2703 30.8729C13.2703 30.5043 13.3932 29.8899 13.516 29.2755L16.2193 18.5855H9.46119L8.60107 21.7802H11.4272L9.58407 29.2755Z" fill="white"/>
</svg>
