<svg width="188" height="48" viewBox="0 0 188 48" fill="none" xmlns="http://www.w3.org/2000/svg">
<g clip-path="url(#clip0_4249_42646)">
<path d="M54.5974 21.2016V30.8144H56.9942C57.6059 30.8053 58.2095 30.6736 58.7694 30.4272C59.3293 30.1807 59.8341 29.8245 60.2539 29.3795C61.1155 28.4673 61.587 27.2547 61.5678 26.0001C61.5861 25.3769 61.481 24.7562 61.2587 24.1737C61.0363 23.5913 60.7011 23.0585 60.2722 22.6059C59.8507 22.1604 59.3424 21.8058 58.7786 21.5641C58.2149 21.3223 57.6076 21.1986 56.9942 21.2004H54.5987L54.5974 21.2016ZM56.9942 18.1876C61.4614 18.1876 64.8409 21.6489 64.8409 26.0001C64.8409 30.3512 61.4614 33.8321 56.9942 33.8321H51.7081C51.6577 33.8314 51.6079 33.8209 51.5616 33.801C51.5153 33.7811 51.4734 33.7523 51.4382 33.7162C51.403 33.6801 51.3753 33.6374 51.3566 33.5906C51.3379 33.5438 51.3286 33.4938 51.3292 33.4434V18.5922C51.3292 18.3771 51.4991 18.2023 51.7081 18.2023L56.9942 18.1876ZM76.3554 31.1493C78.3843 31.1554 80.2165 29.9075 80.9975 27.9874C81.38 27.0492 81.4823 26.0203 81.2918 25.0252C81.1013 24.0301 80.6263 23.1116 79.9243 22.3811C79.2347 21.6625 78.3432 21.1701 77.3677 20.9689C76.3923 20.7677 75.3787 20.8672 74.461 21.2542C72.5861 22.0462 71.3615 23.9198 71.3578 26.0001C71.3578 28.8356 73.592 31.1358 76.3567 31.1493H76.3554ZM76.3567 17.8332C81.0586 17.8332 84.6531 21.5389 84.6531 26.0001C84.6531 30.4612 81.0586 34.1669 76.3554 34.1669C71.6536 34.1669 68.0896 30.4795 68.0896 26.0001C68.0896 21.5206 71.6841 17.8332 76.3554 17.8332H76.3567ZM96.0748 31.1493C98.8407 31.1419 101.079 28.8393 101.076 26.0037C101.072 23.1657 98.8297 20.8679 96.065 20.8667C93.2979 20.8667 91.0539 23.1633 91.0502 26.0001C91.0502 27.3665 91.5795 28.6767 92.5218 29.6423C92.983 30.1181 93.535 30.4967 94.145 30.7555C94.7551 31.0143 95.4109 31.1482 96.0736 31.1493H96.0748ZM96.0736 17.8332C100.761 17.8332 104.355 21.5206 104.355 26.0001C104.355 30.4795 100.746 34.1669 96.0736 34.1669C91.4022 34.1669 87.7771 30.4795 87.7771 26.0001C87.7771 21.5206 91.3717 17.8332 96.0736 17.8332ZM115.319 21.2016H111.939V25.3388H115.319C115.586 25.3507 115.852 25.3076 116.102 25.2124C116.352 25.1172 116.579 24.9718 116.771 24.7852C117.162 24.4063 117.384 23.8807 117.389 23.3283C117.399 23.048 117.352 22.7686 117.251 22.5069C117.15 22.2452 116.998 22.0066 116.802 21.8054C116.611 21.6074 116.38 21.4517 116.124 21.3483C115.869 21.2449 115.594 21.1962 115.319 21.2053V21.2016ZM108.67 18.5922C108.67 18.3771 108.841 18.2023 109.05 18.2023H115.413C118.446 18.2023 120.641 20.4817 120.641 23.3442C120.665 25.2802 119.607 27.0585 117.92 27.9251L120.854 33.2454C120.895 33.3065 120.918 33.3777 120.92 33.4511C120.923 33.5245 120.905 33.5971 120.869 33.6609C120.833 33.7238 120.781 33.7752 120.717 33.809C120.653 33.8428 120.581 33.8576 120.509 33.8516H117.934C117.863 33.8526 117.793 33.8334 117.732 33.7962C117.671 33.759 117.621 33.7054 117.59 33.6414L114.761 28.3761H111.927V33.4312C111.928 33.4817 111.919 33.5318 111.9 33.5788C111.881 33.6257 111.854 33.6686 111.819 33.7048C111.783 33.741 111.741 33.7699 111.695 33.7899C111.649 33.8098 111.599 33.8204 111.548 33.8211H109.067C109.017 33.8204 108.967 33.8098 108.92 33.7899C108.874 33.7699 108.832 33.741 108.797 33.7048C108.761 33.6686 108.734 33.6257 108.715 33.5788C108.696 33.5318 108.687 33.4817 108.688 33.4312L108.671 18.5934L108.67 18.5922ZM129.163 21.2749V30.8889H131.558C132.17 30.8807 132.774 30.7498 133.334 30.5042C133.894 30.2586 134.399 29.9032 134.819 29.4589C135.681 28.5478 136.154 27.3361 136.136 26.0819C136.155 25.458 136.051 24.8363 135.829 24.2528C135.608 23.6692 135.273 23.1353 134.844 22.6817C134.421 22.2354 133.912 21.8804 133.347 21.6386C132.782 21.3969 132.174 21.2735 131.56 21.2762L129.163 21.2749ZM131.558 18.2573C136.026 18.2573 139.405 21.7223 139.405 26.0819C139.405 30.4416 136.026 33.9066 131.558 33.9066H126.288C126.238 33.906 126.188 33.8954 126.141 33.8754C126.095 33.8555 126.053 33.8265 126.018 33.7903C125.983 33.7541 125.955 33.7113 125.936 33.6643C125.918 33.6174 125.908 33.5672 125.909 33.5167V18.6667C125.909 18.4504 126.079 18.2756 126.288 18.2756L131.56 18.2573H131.558ZM149.373 22.0804L147.519 27.2211H151.224L149.373 22.0804ZM146.432 30.1263L145.218 33.5485C145.194 33.629 145.143 33.6992 145.074 33.7478C145.006 33.7965 144.923 33.821 144.839 33.8174H142.206C142.139 33.8236 142.072 33.8117 142.011 33.7829C141.95 33.7541 141.898 33.7094 141.86 33.6536C141.822 33.5971 141.799 33.5317 141.793 33.4636C141.787 33.3955 141.799 33.3271 141.827 33.2649L147.516 18.4284C147.542 18.3501 147.594 18.2827 147.662 18.2364C147.73 18.1901 147.812 18.1673 147.895 18.1717H150.84C150.923 18.1671 151.005 18.1897 151.073 18.236C151.142 18.2824 151.194 18.3499 151.22 18.4284L156.908 33.2649C156.937 33.3272 156.948 33.3957 156.942 33.4638C156.936 33.5319 156.913 33.5972 156.874 33.6536C156.836 33.7092 156.784 33.7536 156.724 33.7822C156.663 33.8108 156.595 33.8225 156.528 33.8162H153.897C153.813 33.8198 153.73 33.7953 153.661 33.7466C153.593 33.6979 153.542 33.6278 153.518 33.5473L152.304 30.1251H146.432V30.1263ZM159.96 22.4141C159.96 19.9574 162.031 17.8332 165.3 17.8332C167.061 17.7939 168.766 18.4525 170.042 19.6653C170.081 19.7021 170.112 19.7464 170.134 19.7956C170.155 19.8448 170.166 19.8977 170.166 19.9513C170.166 20.0048 170.155 20.0578 170.134 20.107C170.112 20.1562 170.081 20.2005 170.042 20.2373L168.584 21.7223C168.549 21.7584 168.508 21.787 168.461 21.8066C168.415 21.8262 168.366 21.8363 168.315 21.8363C168.265 21.8363 168.216 21.8262 168.169 21.8066C168.123 21.787 168.081 21.7584 168.047 21.7223C167.36 21.0786 166.458 20.7138 165.517 20.6993C164.209 20.6993 163.242 21.4778 163.242 22.3762C163.242 25.2802 170.97 23.6045 170.97 29.1925C170.966 32.0244 168.88 34.1669 165.191 34.1669C164.167 34.1774 163.151 33.9818 162.204 33.5917C161.257 33.2016 160.398 32.6249 159.678 31.8961C159.639 31.8593 159.608 31.8149 159.587 31.7658C159.566 31.7166 159.555 31.6636 159.555 31.6101C159.555 31.5565 159.566 31.5035 159.587 31.4544C159.608 31.4052 159.639 31.3608 159.678 31.3241L161.088 29.8769C161.124 29.8391 161.166 29.8089 161.213 29.7883C161.261 29.7677 161.312 29.757 161.363 29.757C161.415 29.757 161.466 29.7677 161.513 29.7883C161.561 29.8089 161.603 29.8391 161.638 29.8769C162.526 30.7569 163.722 31.2566 164.971 31.2703C166.606 31.2703 167.682 30.3756 167.682 29.2548C167.682 26.3496 159.958 28.0265 159.958 22.4373L159.96 22.4141ZM184.984 18.5726V24.4442H178.443V18.5726C178.443 18.5222 178.434 18.4722 178.415 18.4254C178.397 18.3786 178.369 18.3359 178.334 18.2998C178.299 18.2637 178.257 18.2349 178.21 18.215C178.164 18.1951 178.114 18.1846 178.064 18.1839H175.583C175.532 18.1846 175.483 18.1951 175.436 18.215C175.39 18.2349 175.348 18.2637 175.313 18.2998C175.278 18.3359 175.25 18.3786 175.231 18.4254C175.213 18.4722 175.203 18.5222 175.204 18.5726V33.4067C175.204 33.6218 175.375 33.7966 175.583 33.7966H178.064C178.272 33.7966 178.443 33.6218 178.443 33.4067V27.4423H184.979V33.4067C184.979 33.6218 185.15 33.7966 185.358 33.7966H187.839C188.048 33.7966 188.218 33.6218 188.218 33.4067V18.5726C188.219 18.5222 188.209 18.4722 188.191 18.4254C188.172 18.3786 188.144 18.3359 188.109 18.2998C188.074 18.2637 188.032 18.2349 187.986 18.215C187.939 18.1951 187.89 18.1846 187.839 18.1839H185.358C185.257 18.1865 185.161 18.2287 185.091 18.3015C185.021 18.3742 184.983 18.4717 184.984 18.5726ZM37.402 20.1639C35.6811 16.9739 32.3139 14.9878 28.6521 15.0001H0.946782C0.75968 15.0008 0.576938 15.0566 0.421326 15.1605C0.265714 15.2644 0.144112 15.4118 0.0716706 15.5843C0.00028855 15.7557 -0.0183025 15.9445 0.0182787 16.1265C0.0548598 16.3086 0.144948 16.4755 0.277004 16.6061L6.31234 22.5949C6.84523 23.1254 7.57123 23.4224 8.32656 23.4224H27.8577C29.2498 23.4077 30.3877 24.5102 30.4023 25.8827C30.417 27.2553 29.3011 28.3797 27.909 28.3932H14.4438C14.2565 28.3932 14.0735 28.4485 13.9174 28.5519C13.7613 28.6554 13.6392 28.8025 13.5662 28.9749C13.4942 29.1465 13.4751 29.3358 13.5115 29.5183C13.5478 29.7008 13.638 29.8683 13.7703 29.9992L19.8093 35.9929C20.3456 36.5231 21.0695 36.8201 21.8236 36.8192H27.9139C35.8376 36.8192 41.8289 28.4592 37.402 20.1603" fill="#141416"/>
</g>
<defs>
<clipPath id="clip0_4249_42646">
<rect width="188" height="48" fill="white"/>
</clipPath>
</defs>
</svg>
