<svg width="125" height="48" viewBox="0 0 125 48" fill="none" xmlns="http://www.w3.org/2000/svg">
<path d="M6.42617 10.2863C3.8706 11.356 1.06117 14.3781 0.173863 18.1715C-0.949845 22.9779 3.72643 25.0104 4.10998 24.344C4.56141 23.5609 3.27204 23.2961 3.00664 20.8024C2.66362 17.5814 4.16102 13.9824 6.04556 12.4033C6.39586 12.1099 6.37919 12.5182 6.37919 13.2735C6.37919 14.6242 6.30456 26.7495 6.30456 29.2801C6.30456 32.7042 6.16313 33.7855 5.90912 34.8539C5.65176 35.9367 5.238 36.6683 5.55153 36.9501C5.90181 37.2654 7.3974 36.5155 8.26322 35.3071C9.30147 33.8578 9.6649 32.1173 9.73015 30.2271C9.80896 27.9485 9.8056 24.3329 9.80896 22.2706C9.81212 20.3792 9.84082 14.8406 9.77581 11.511C9.75987 10.6943 7.49492 9.83747 6.42605 10.2853L6.42617 10.2863ZM97.1745 26.3111C97.0921 28.0912 96.698 29.4827 96.209 30.4641C95.2622 32.3641 93.2976 32.9541 92.4635 30.2227C92.0089 28.7339 91.9877 26.2473 92.3145 24.1697C92.6472 22.0531 93.5761 20.4547 95.1143 20.5988C96.6314 20.7413 97.3416 22.6963 97.1745 26.3111ZM71.5978 37.3555C71.5772 40.3133 71.1117 42.9067 70.1135 43.6599C68.6976 44.728 66.7946 43.9268 67.1887 41.7685C67.5373 39.8585 69.1862 37.908 71.6018 35.5248C71.6018 35.5248 71.6068 36.0683 71.5978 37.3555ZM71.2111 26.2939C71.1246 27.9152 70.7042 29.544 70.2457 30.4643C69.2991 32.3643 67.3202 32.9583 66.5002 30.223C65.9395 28.3541 66.0737 25.9352 66.3512 24.4112C66.7112 22.4337 67.5838 20.5993 69.1509 20.5993C70.6746 20.5993 71.4259 22.2708 71.2111 26.2939ZM56.3946 26.2691C56.3017 27.9862 55.9667 29.4217 55.4291 30.4643C54.4564 32.3512 52.5322 32.9497 51.6836 30.223C51.0718 28.2568 51.2801 25.5759 51.5346 24.1276C51.9122 21.9785 52.858 20.4549 54.3343 20.5993C55.8509 20.7474 56.5881 22.6963 56.3946 26.2691ZM124.296 28.2748C123.925 28.2748 123.756 28.6569 123.616 29.3002C123.13 31.5367 122.62 32.0417 121.962 32.0417C121.227 32.0417 120.566 30.9343 120.396 28.7174C120.263 26.9742 120.284 23.7649 120.455 20.5726C120.49 19.9167 120.309 19.2677 118.55 18.6286C117.793 18.3537 116.692 17.9489 116.144 19.2715C114.596 23.0079 113.991 25.9744 113.848 27.1794C113.841 27.2418 113.764 27.2545 113.751 27.1088C113.66 26.1436 113.457 24.3897 113.432 20.7048C113.427 19.9858 113.275 19.3738 112.481 18.8728C111.966 18.5477 110.403 17.9727 109.84 18.6567C109.352 19.2162 108.787 20.7218 108.2 22.5065C107.723 23.957 107.391 24.9383 107.391 24.9383C107.391 24.9383 107.397 21.0244 107.403 19.5398C107.405 18.9798 107.021 18.7931 106.905 18.7593C106.384 18.608 105.356 18.3552 104.92 18.3552C104.382 18.3552 104.251 18.6559 104.251 19.0941C104.251 19.1515 104.166 24.247 104.166 27.8101C104.166 27.9649 104.166 28.1337 104.167 28.3131C103.87 29.9507 102.905 32.1738 101.855 32.1738C100.804 32.1738 100.309 31.2444 100.309 26.9967C100.309 24.5187 100.383 23.4412 100.419 21.6489C100.441 20.6166 100.482 19.8239 100.479 19.644C100.472 19.0923 99.5177 18.8142 99.0738 18.7115C98.6279 18.6079 98.2403 18.5677 97.9377 18.585C97.5094 18.6091 97.2063 18.8901 97.2063 19.2766C97.2063 19.4838 97.2087 19.8779 97.2087 19.8779C96.657 19.011 95.7697 18.4076 95.1794 18.2327C93.5893 17.7605 91.9301 18.1789 90.6786 19.9302C89.6839 21.3217 89.0843 22.8977 88.8483 25.162C88.6757 26.8173 88.7321 28.496 89.0387 29.9156C88.6682 31.5175 87.9803 32.1738 87.2271 32.1738C86.1336 32.1738 85.3409 30.389 85.4329 27.3022C85.4937 25.272 85.8999 23.8472 86.344 21.7859C86.5333 20.9072 86.3795 20.4472 85.9936 20.0063C85.6397 19.6019 84.8857 19.3953 83.8017 19.6494C83.0295 19.8306 81.9256 20.0254 80.9155 20.175C80.9155 20.175 80.9765 19.9319 81.0265 19.5032C81.2892 17.2549 78.8461 17.4373 78.0666 18.1554C77.6013 18.5841 77.2846 19.0898 77.1644 19.9989C76.9737 21.4417 78.1504 22.1222 78.1504 22.1222C77.7644 23.8894 76.818 26.198 75.841 27.8672C75.3177 28.7614 74.9173 29.4241 74.4005 30.1285C74.3986 29.8662 74.3972 29.6039 74.3963 29.3428C74.3844 25.6274 74.4339 22.7032 74.4557 21.6493C74.477 20.617 74.5184 19.8452 74.516 19.6653C74.5102 19.2618 74.2746 19.1095 73.7845 18.9165C73.3511 18.7459 72.8387 18.6278 72.3073 18.5866C71.6364 18.5343 71.2323 18.8901 71.2428 19.3108C71.2448 19.3902 71.2448 19.878 71.2448 19.878C70.6931 19.0111 69.8058 18.4077 69.2155 18.2329C67.6254 17.7609 65.9662 18.1793 64.7147 19.9304C63.7202 21.3218 63.0689 23.2744 62.8844 25.1449C62.7125 26.8881 62.7442 28.3696 62.9785 29.6175C62.7257 30.8672 61.9988 32.1739 61.1768 32.1739C60.126 32.1739 59.5281 31.2445 59.5281 26.9968C59.5281 24.5188 59.6025 23.4413 59.6391 21.6493C59.6603 20.617 59.7013 19.824 59.699 19.6443C59.6912 19.0927 58.7373 18.8146 58.2934 18.7116C57.829 18.6042 57.428 18.5647 57.1201 18.5874C56.7138 18.6177 56.4282 18.9815 56.4282 19.2528V19.878C55.8766 19.0111 54.9893 18.4077 54.3989 18.2329C52.8088 17.7609 51.1589 18.186 49.8981 19.9304C49.076 21.0677 48.4104 22.3287 48.0678 25.1201C47.9688 25.9267 47.9251 26.6821 47.9308 27.3881C47.6029 29.3931 46.1549 31.704 44.9704 31.704C44.2773 31.704 43.6172 30.3596 43.6172 27.4945C43.6172 23.6779 43.8534 18.244 43.8934 17.7203C43.8934 17.7203 45.3899 17.6949 45.6797 17.6915C46.4262 17.6833 47.1023 17.701 48.0966 17.6501C48.5953 17.6247 49.0757 15.8349 48.561 15.6134C48.3278 15.5132 46.6791 15.4253 46.0255 15.4115C45.4759 15.399 43.9459 15.2858 43.9459 15.2858C43.9459 15.2858 44.0831 11.679 44.1151 11.298C44.1422 10.9804 43.7313 10.8169 43.4957 10.7177C42.9228 10.4754 42.4103 10.3594 41.8027 10.2341C40.9633 10.061 40.5825 10.2304 40.5081 10.9388C40.3961 12.014 40.3381 15.1633 40.3381 15.1633C39.7221 15.1633 37.6179 15.0428 37.0018 15.0428C36.4293 15.0428 35.8114 17.5049 36.6029 17.5351C37.5135 17.5705 39.1004 17.6009 40.1525 17.6327C40.1525 17.6327 40.1056 23.1561 40.1056 24.8614C40.1056 25.0428 40.1072 25.2175 40.1075 25.387C39.5285 28.4049 37.4891 30.0352 37.4891 30.0352C37.9271 28.0386 37.0324 26.5393 35.4209 25.2702C34.8272 24.8025 33.6551 23.9171 32.3437 22.9468C32.3437 22.9468 33.1033 22.1982 33.7768 20.6922C34.2541 19.6255 34.2747 18.4046 33.1033 18.1354C31.1677 17.6903 29.5717 19.1118 29.0957 20.6294C28.7269 21.805 28.9236 22.6774 29.6461 23.5836C29.6989 23.6498 29.756 23.7175 29.8151 23.7856C29.3781 24.6277 28.7779 25.7616 28.2695 26.6408C26.8585 29.0821 25.7926 31.013 24.987 31.013C24.3431 31.013 24.3517 29.0526 24.3517 27.2171C24.3517 25.6347 24.4686 23.2558 24.5619 20.7927C24.5928 19.9781 24.1855 19.5141 23.5027 19.0937C23.0878 18.8384 22.2024 18.3363 21.6896 18.3363C20.9221 18.3363 18.7076 18.4408 16.6153 24.4932C16.3516 25.2561 15.8335 26.6461 15.8335 26.6461L15.8781 19.3678C15.8781 19.1971 15.7872 19.0322 15.5791 18.9193C15.2266 18.7279 14.2848 18.3363 13.4475 18.3363C13.0485 18.3363 12.8494 18.5219 12.8494 18.8918L12.7764 30.2787C12.7764 31.1439 12.7989 32.1533 12.8845 32.5947C12.9697 33.0367 13.1078 33.3963 13.2788 33.6102C13.4495 33.8238 13.647 33.9866 13.9727 34.0539C14.2758 34.1163 15.9355 34.3294 16.0218 33.6951C16.1251 32.935 16.1291 32.1128 17.0006 29.0466C18.3574 24.2727 20.1263 21.9435 20.9579 21.1163C21.1033 20.9717 21.2694 20.9631 21.2614 21.1998C21.2259 22.2464 21.101 24.8616 21.017 27.0835C20.7917 33.0293 21.8734 34.1314 23.4191 34.1314C24.6017 34.1314 26.2687 32.9564 28.0557 29.982C29.1698 28.1284 30.2515 26.3109 31.0286 25.001C31.5702 25.5023 32.178 26.0419 32.7854 26.6184C34.1968 27.958 34.6602 29.2309 34.3528 30.4385C34.1176 31.3616 33.232 32.313 31.6558 31.3883C31.1964 31.1185 31.0003 30.9101 30.5383 30.606C30.2901 30.4426 29.9112 30.3937 29.684 30.5649C29.0939 31.0099 28.7564 31.5758 28.5637 32.2765C28.3762 32.9583 29.059 33.3187 29.7668 33.6339C30.3763 33.9052 31.6862 34.1511 32.5216 34.1791C35.7766 34.288 38.3841 32.6075 40.1992 28.2727C40.5242 32.0163 41.907 34.1348 44.3096 34.1348C45.9159 34.1348 47.5263 32.0585 48.2306 30.016C48.4328 30.8486 48.732 31.5726 49.1185 32.1849C50.9698 35.1181 54.5613 34.4868 56.3653 31.996C56.9231 31.2264 57.008 30.9498 57.008 30.9498C57.2711 33.3017 59.1651 34.1234 60.2495 34.1234C61.464 34.1234 62.718 33.5493 63.5969 31.5706C63.6999 31.7853 63.8124 31.9904 63.9351 32.1848C65.7864 35.118 69.3779 34.4867 71.1819 31.9959C71.267 31.8791 71.3408 31.7731 71.4053 31.678L71.4582 33.2228C71.4582 33.2228 70.4291 34.1669 69.7973 34.7461C67.0169 37.297 64.9027 39.2324 64.7472 41.4862C64.5475 44.3599 66.8782 45.4279 68.6414 45.5679C70.514 45.7165 72.1175 44.6821 73.1032 43.2345C73.9701 41.9603 74.5375 39.2179 74.4959 36.5093C74.4793 35.4247 74.452 34.0456 74.4305 32.5673C75.4078 31.4325 76.5088 29.9981 77.5227 28.3191C78.6275 26.4894 79.8115 24.0323 80.4178 22.12C80.4178 22.12 81.4466 22.1288 82.5445 22.057C82.8956 22.0341 82.9965 22.1057 82.9316 22.3632C82.8532 22.6742 81.5445 27.7219 82.7389 31.0844C83.5564 33.3863 85.3993 34.1269 86.4919 34.1269C87.771 34.1269 88.9945 33.161 89.6502 31.7267C89.7292 31.8866 89.8118 32.0413 89.902 32.1842C91.7533 35.1174 95.3322 34.4823 97.1488 31.9953C97.5588 31.4342 97.7915 30.9491 97.7915 30.9491C98.1813 33.3832 100.074 34.1351 101.158 34.1351C102.288 34.1351 103.36 33.6721 104.229 31.6145C104.266 32.5205 104.323 33.2613 104.413 33.4948C104.468 33.6377 104.789 33.817 105.023 33.9036C106.056 34.2867 107.11 34.1055 107.499 34.0267C107.769 33.9721 107.98 33.7554 108.009 33.1959C108.085 31.7269 108.038 29.2588 108.483 27.4245C109.231 24.346 109.928 23.1519 110.259 22.5607C110.444 22.2295 110.653 22.1749 110.661 22.5254C110.676 23.2347 110.712 25.3176 111.001 28.1161C111.214 30.1743 111.498 31.3908 111.716 31.7759C112.339 32.8769 113.109 32.929 113.736 32.929C114.134 32.929 114.968 32.8189 114.894 32.1182C114.857 31.7767 114.921 29.666 115.658 26.6332C116.139 24.6527 116.942 22.8631 117.231 22.2089C117.338 21.9676 117.387 22.1578 117.386 22.1949C117.325 23.5588 117.188 28.0201 117.744 30.4601C118.497 33.7655 120.676 34.1354 121.435 34.1354C123.056 34.1354 124.382 32.9023 124.828 29.6579C124.936 28.8771 124.777 28.2742 124.299 28.2742" fill="#262626"/>
</svg>
