<svg width="167" height="48" viewBox="0 0 167 48" fill="none" xmlns="http://www.w3.org/2000/svg">
<path fill-rule="evenodd" clip-rule="evenodd" d="M4.04667 38.1023V34.0556H22.2567V38.1023H4.04667ZM18.3887 17.8689H7.91292L13.1517 25.1192L18.3887 17.8689ZM26.3033 13.8223L13.1517 32.0323L0 13.8223H26.3033Z" fill="#141416"/>
<path d="M42.3506 34.0568V27.5619H36.1222V34.0568H32.3672V17.8701H36.1222V24.2049H42.3506V17.8668H46.1056V34.0534L42.3506 34.0568Z" fill="black"/>
<path d="M50.8435 34.0569V17.8702H61.1001V21.3116H54.5985V24.2049H60.5184V27.4743H54.5985V30.6324H61.1001V34.0569H50.8435Z" fill="black"/>
<path d="M65.5734 34.0569V17.8702H69.3267V30.6358H75.8216V34.0602L65.5734 34.0569Z" fill="black"/>
<path d="M78.9727 34.0569V17.8702H82.7327V30.6358H89.226V34.0602L78.9727 34.0569Z" fill="black"/>
<path d="M99.8181 34.3216C94.8035 34.3216 91.6016 30.7218 91.6016 25.972C91.6016 21.2222 94.9587 17.6005 99.9732 17.6005C104.988 17.6005 108.19 21.202 108.19 25.972C108.19 30.742 104.811 34.3216 99.8181 34.3216ZM99.8804 20.9592C97.3192 20.9592 95.596 23.0567 95.596 25.972C95.596 28.8873 97.3192 30.9865 99.8804 30.9865C102.442 30.9865 104.167 28.8654 104.167 25.972C104.167 23.0786 102.447 20.9592 99.8804 20.9592Z" fill="black"/>
<path d="M116.303 34.3216C114.47 34.3216 112.257 33.5932 110.849 32.6642L111.886 29.2633C113.189 30.2126 114.89 30.8314 116.415 30.8314C117.74 30.8314 118.247 30.2126 118.247 29.4184C118.247 28.5753 117.828 28.0038 115.354 27.0106C112.504 25.8624 111.515 24.2049 111.515 22.2609C111.515 19.9003 113.435 17.6005 117.212 17.6005C118.979 17.6005 120.792 18.2193 121.741 18.86L120.788 22.217C119.859 21.5763 118.359 20.8917 117.209 20.8917C115.84 20.8917 115.288 21.5325 115.288 22.1951C115.288 23.2557 116.104 23.6098 118.138 24.4697C121.163 25.7511 122.068 27.2096 122.068 29.2852C122.068 31.87 120.191 34.3216 116.303 34.3216Z" fill="black"/>
<path d="M126.095 34.0569V17.8702H129.85V34.0569H126.095Z" fill="black"/>
<path d="M148.569 24.9569V32.6878C146.712 33.7895 144.587 34.3551 142.428 34.3216C137.68 34.3216 133.925 30.9207 133.925 25.972C133.925 21.0233 137.724 17.6005 142.627 17.6005C144.748 17.6005 146.448 18.1535 148.06 18.9932L146.491 22.0181C145.376 21.431 144.137 21.1205 142.876 21.1126C139.651 21.1126 137.929 23.1225 137.929 25.972C137.929 29.0643 140.005 30.9865 142.65 30.9865C143.843 30.9865 144.439 30.8533 145.036 30.5447V28.1589H141.787V24.9553L148.569 24.9569Z" fill="black"/>
<path d="M166.401 34.3655L156.638 25.5977V34.0569H152.884V17.646L153.389 17.5566L163.02 26.2587V17.8669H166.775V34.2997L166.401 34.3655Z" fill="black"/>
</svg>
