<svg width="20" height="20" viewBox="0 0 20 20" fill="none" xmlns="http://www.w3.org/2000/svg">
<g clip-path="url(#clip0_4249_28810)">
<path d="M9.14062 1.66797H7.47396C3.30729 1.66797 1.64062 3.33464 1.64062 7.5013V12.5013C1.64062 16.668 3.30729 18.3346 7.47396 18.3346H12.474C16.6406 18.3346 18.3073 16.668 18.3073 12.5013V10.8346" stroke="#B91202" stroke-width="1.5" stroke-linecap="round" stroke-linejoin="round"/>
<path d="M18.2339 2.9662C17.2089 5.52453 14.6339 9.00787 12.4839 10.7329L11.1672 11.7829C11.0005 11.9079 10.8339 12.0079 10.6422 12.0829C10.6422 11.9579 10.6339 11.8329 10.6172 11.6995C10.5422 11.1412 10.2922 10.6162 9.84219 10.1745C9.38385 9.7162 8.83385 9.45787 8.26719 9.38287C8.13385 9.37453 8.00052 9.3662 7.86719 9.37453C7.94219 9.1662 8.05052 8.97453 8.19219 8.8162L9.24219 7.49953C10.9672 5.34953 14.4589 2.75787 17.0089 1.73287C17.4005 1.58287 17.7839 1.69953 18.0255 1.9412C18.2755 2.1912 18.3922 2.57453 18.2339 2.9662Z" stroke="#B91202" stroke-width="1.5" stroke-linecap="round" stroke-linejoin="round"/>
<path d="M10.6494 12.0751C10.6494 12.8084 10.3661 13.5084 9.84109 14.0417C9.43276 14.4501 8.88276 14.7334 8.22443 14.8167L6.58276 14.9917C5.69109 15.0917 4.92443 14.3334 5.02443 13.4251L5.19943 11.7834C5.35776 10.3251 6.57443 9.39173 7.87443 9.36673C8.00776 9.3584 8.14109 9.36673 8.27443 9.37507C8.84109 9.45007 9.39109 9.7084 9.84943 10.1667C10.2994 10.6167 10.5494 11.1334 10.6244 11.6917C10.6411 11.8251 10.6494 11.9584 10.6494 12.0751Z" stroke="#B91202" stroke-width="1.5" stroke-linecap="round" stroke-linejoin="round"/>
<path d="M13.1818 9.98255C13.1818 8.24089 11.7734 6.82422 10.0234 6.82422" stroke="#B91202" stroke-width="1.5" stroke-linecap="round" stroke-linejoin="round"/>
</g>
<defs>
<clipPath id="clip0_4249_28810">
<rect width="20" height="20" fill="white"/>
</clipPath>
</defs>
</svg>
