<svg width="15" height="15" viewBox="0 0 15 15" fill="none" xmlns="http://www.w3.org/2000/svg">
<g clip-path="url(#clip0_4249_6353)">
<path d="M7.43647 9.25015C5.33881 9.25015 4.61694 6.63452 4.25366 4.62358C4.23725 4.53452 4.27709 4.44312 4.35209 4.39155L4.92631 4.01655C4.9685 3.99312 5.09272 3.89702 5.17241 3.24546C5.18178 3.16812 5.231 3.10015 5.30131 3.06734C5.37163 3.03452 5.45366 3.03921 5.52163 3.0814C6.31381 3.58765 7.92866 3.86655 8.22397 3.42827C8.32006 3.30171 8.39506 3.14937 8.47006 3.00171C8.51694 2.90796 8.56381 2.8189 8.60835 2.7439C8.68803 2.61265 8.81928 2.52124 8.97163 2.49546C9.12397 2.46968 9.281 2.51421 9.39819 2.61499C9.67944 2.85405 9.90678 3.30171 10.1083 4.01421L10.5537 4.30952C10.6732 4.32827 10.7576 4.43843 10.7435 4.55796C10.4294 7.42671 9.41459 8.99937 7.72709 9.23374C7.62866 9.24546 7.53022 9.25015 7.43647 9.25015ZM4.72944 4.69155C5.28491 7.63999 6.22006 8.93843 7.67085 8.78374C9.10991 8.58218 9.96303 7.23687 10.2724 4.67046L9.78725 4.34702C9.74272 4.31655 9.70756 4.26968 9.6935 4.21812C9.51538 3.56655 9.31616 3.14468 9.10288 2.96187C9.08178 2.94312 9.05834 2.94312 9.04663 2.94546C9.03256 2.9478 9.01147 2.95484 8.99975 2.97827C8.95991 3.04624 8.92006 3.12593 8.87788 3.20796C8.79819 3.36499 8.70913 3.54312 8.59663 3.69312C8.13959 4.3728 6.51069 4.07984 5.57788 3.62984C5.4935 4.06577 5.36225 4.30484 5.16069 4.4103L4.72944 4.69155Z" fill="#0055FF"/>
<path d="M4.48183 4.81022C4.36699 4.81022 4.26855 4.7235 4.25683 4.60631C3.96152 1.82663 4.88496 0.300844 7.00371 0.0711569C7.77012 -0.0835306 8.90449 -0.0085306 9.66855 0.521157C10.0693 0.800063 10.3295 1.18209 10.4256 1.63444C10.6178 1.81022 10.7256 2.07506 10.7443 2.42428L10.749 4.536C10.749 4.66256 10.6482 4.76334 10.5217 4.76334C10.3975 4.76334 10.2943 4.66256 10.2943 4.536L10.2896 2.436C10.2756 2.19928 10.2076 2.03053 10.0857 1.94147C10.0365 1.90631 10.0037 1.85241 9.99433 1.79147C9.93574 1.4235 9.73887 1.12116 9.41074 0.893813C8.75918 0.441469 7.74433 0.382876 7.07402 0.518813C5.21074 0.722719 4.44199 2.04225 4.70918 4.55944C4.72324 4.68366 4.63183 4.79616 4.50762 4.81022C4.49824 4.81022 4.48887 4.81022 4.48183 4.81022Z" fill="#0055FF"/>
<path d="M7.50156 11.0453C6.95547 11.0453 6.44219 10.832 6.05312 10.4453C5.66641 10.0586 5.45312 9.54297 5.45312 8.99453V8.03594C5.45312 7.90938 5.55391 7.80859 5.68047 7.80859C5.80703 7.80859 5.90781 7.90938 5.90781 8.03594V8.99453C5.90781 9.42109 6.07422 9.82187 6.37656 10.1219C6.67891 10.4242 7.07734 10.5906 7.50156 10.5906C8.38047 10.5906 9.09766 9.87578 9.09766 8.99453V8.09453C9.09766 7.96797 9.19844 7.86719 9.325 7.86719C9.45156 7.86719 9.55234 7.96797 9.55234 8.09453V8.99453C9.55234 10.1266 8.63125 11.0453 7.50156 11.0453Z" fill="#0055FF"/>
<path d="M7.57897 14.9966C4.97741 14.9966 2.35006 14.6708 0.451625 14.0216C0.357875 13.9888 0.294594 13.8997 0.296938 13.7989C0.320375 13.077 0.477407 12.402 0.763344 11.795C1.09381 11.0919 1.67506 10.527 2.40163 10.2036L5.58444 8.78563C5.69928 8.73407 5.83288 8.78563 5.88444 8.90048C5.936 9.01532 5.88444 9.14891 5.76959 9.20048L2.58678 10.6184C1.961 10.8974 1.45944 11.3849 1.1735 11.9895C0.936782 12.4934 0.7985 13.0489 0.758657 13.6466C4.44538 14.8489 10.7477 14.8489 14.2376 13.6489C14.2001 13.0513 14.0594 12.4934 13.8227 11.9895C13.5391 11.3849 13.0376 10.8974 12.4094 10.6184L9.22663 9.20048C9.11178 9.14891 9.06022 9.01532 9.11178 8.90048C9.16335 8.78563 9.29694 8.73407 9.41178 8.78563L12.5946 10.2036C13.3212 10.527 13.9024 11.0919 14.2329 11.795C14.5188 12.402 14.6758 13.0747 14.6993 13.7989C14.7016 13.8974 14.643 13.9864 14.5493 14.0192C12.7587 14.6708 10.1829 14.9966 7.57897 14.9966Z" fill="#0055FF"/>
<path d="M3.11406 14.657C2.9875 14.657 2.88672 14.5563 2.88672 14.4297V13.0633C2.88672 12.9367 2.9875 12.8359 3.11406 12.8359C3.24063 12.8359 3.34141 12.9367 3.34141 13.0633V14.4297C3.34141 14.5563 3.23828 14.657 3.11406 14.657Z" fill="#0055FF"/>
<path d="M11.5125 14.732C11.3859 14.732 11.2852 14.6313 11.2852 14.5047V13.0633C11.2852 12.9367 11.3859 12.8359 11.5125 12.8359C11.6391 12.8359 11.7398 12.9367 11.7398 13.0633V14.5047C11.7398 14.6313 11.6367 14.732 11.5125 14.732Z" fill="#0055FF"/>
</g>
<defs>
<clipPath id="clip0_4249_6353">
<rect width="15" height="15" fill="white"/>
</clipPath>
</defs>
</svg>
