<svg width="15" height="15" viewBox="0 0 15 15" fill="none" xmlns="http://www.w3.org/2000/svg">
<g clip-path="url(#clip0_4249_6349)">
<path d="M2.76387 11.7499H3.50705V14.2969C3.50705 14.3881 3.55992 14.4711 3.64278 14.5094C3.67413 14.524 3.70801 14.5312 3.74142 14.5312C3.79567 14.5312 3.84946 14.5124 3.89249 14.476L7.12338 11.7499H12.2373C13.3886 11.7499 14.3254 10.8132 14.3254 9.6619V2.55672C14.3254 1.40545 13.3886 0.46875 12.2373 0.46875H2.76387C1.61259 0.46875 0.675781 1.40545 0.675781 2.55672V9.6619C0.675781 10.8132 1.61259 11.7499 2.76387 11.7499ZM1.14453 2.55672C1.14453 1.66386 1.871 0.9375 2.76387 0.9375H12.2373C13.1302 0.9375 13.8566 1.66386 13.8566 2.55672V9.6619C13.8566 10.5548 13.1302 11.2811 12.2373 11.2811H7.03778C6.98239 11.2811 6.92883 11.3007 6.88672 11.3364L3.9758 13.7924V11.5155C3.9758 11.3861 3.87097 11.2811 3.74142 11.2811H2.76387C1.871 11.2811 1.14453 10.5548 1.14453 9.6619V2.55672Z" fill="#0055FF"/>
</g>
<defs>
<clipPath id="clip0_4249_6349">
<rect width="15" height="15" fill="white"/>
</clipPath>
</defs>
</svg>
