<svg width="40" height="40" viewBox="0 0 40 40" fill="none" xmlns="http://www.w3.org/2000/svg">
<path d="M20.0006 15.9561C20.1664 15.9561 20.3254 16.022 20.4426 16.1392C20.5598 16.2564 20.6256 16.4154 20.6256 16.5811V20.6599C21.2225 20.1236 22.7194 18.5911 22.7194 16.7074C22.7194 14.4055 20.4819 12.6261 20.3856 12.5511C20.2758 12.4649 20.1403 12.418 20.0006 12.418C19.861 12.418 19.7254 12.4649 19.6156 12.5511C19.52 12.6255 17.2812 14.4055 17.2812 16.7074C17.2812 18.5905 18.7787 20.1236 19.3756 20.6599V16.5811C19.3756 16.4154 19.4415 16.2564 19.5587 16.1392C19.6759 16.022 19.8349 15.9561 20.0006 15.9561Z" fill="url(#paint0_linear_4249_19000)"/>
<path d="M27.1452 28.3483C26.3263 27.408 25.327 26.6417 24.2065 26.0948C23.086 25.5479 21.8671 25.2316 20.6221 25.1645V20.6602C20.4896 20.7795 20.4002 20.8508 20.3827 20.8645C20.2726 20.9507 20.1368 20.9975 19.9971 20.9975C19.8573 20.9975 19.7215 20.9507 19.6114 20.8645C19.5296 20.7991 19.4498 20.7311 19.3721 20.6608V25.1639C18.127 25.231 16.908 25.5475 15.7875 26.0945C14.667 26.6415 13.6677 27.4079 12.8489 28.3483C12.7726 28.4395 12.7238 28.5505 12.7084 28.6685C12.693 28.7864 12.7115 28.9063 12.7619 29.014C12.8122 29.1218 12.8922 29.213 12.9926 29.2768C13.0929 29.3407 13.2094 29.3746 13.3283 29.3745H26.6658C26.7847 29.3746 26.9012 29.3407 27.0016 29.2768C27.1019 29.213 27.1819 29.1218 27.2323 29.014C27.2826 28.9063 27.3011 28.7864 27.2857 28.6685C27.2703 28.5505 27.2215 28.4395 27.1452 28.3483Z" fill="url(#paint1_linear_4249_19000)"/>
<path d="M38.3344 16.9187L34.8412 15.6769L33.5513 12.5625L35.1425 9.21438C35.1978 9.09786 35.2158 8.96707 35.1939 8.83995C35.1719 8.71283 35.1112 8.59561 35.02 8.50438L31.4963 4.97938C31.405 4.88805 31.2876 4.82724 31.1604 4.80531C31.0331 4.78337 30.9022 4.80139 30.7856 4.85688L27.4369 6.44875L24.3231 5.15813L23.0812 1.66563C23.038 1.54395 22.9581 1.43866 22.8526 1.36423C22.747 1.2898 22.621 1.2499 22.4919 1.25H17.5081C17.379 1.2499 17.253 1.2898 17.1474 1.36423C17.0419 1.43866 16.962 1.54395 16.9187 1.66563L15.6769 5.15813L12.5631 6.44875L9.21438 4.85688C9.09778 4.80139 8.96686 4.78337 8.83961 4.80531C8.71237 4.82724 8.59504 4.88805 8.50375 4.97938L4.98 8.50438C4.8887 8.59554 4.82786 8.71272 4.80581 8.83984C4.78377 8.96697 4.80161 9.09779 4.85688 9.21438L6.44875 12.5625L5.15875 15.6769L1.66563 16.9187C1.54395 16.962 1.43866 17.0419 1.36423 17.1474C1.2898 17.253 1.2499 17.379 1.25 17.5081V22.4919C1.2499 22.621 1.2898 22.747 1.36423 22.8526C1.43866 22.9581 1.54395 23.038 1.66563 23.0812L5.15875 24.3231L6.44875 27.4375L4.85688 30.7856C4.80146 30.9023 4.78355 31.0332 4.8056 31.1605C4.82765 31.2877 4.88857 31.405 4.98 31.4963L8.50375 35.0206C8.59504 35.1119 8.71237 35.1728 8.83961 35.1947C8.96686 35.2166 9.09778 35.1986 9.21438 35.1431L12.5631 33.5513L15.6769 34.8419L16.9187 38.3344C16.962 38.456 17.0418 38.5612 17.1472 38.6356C17.2526 38.71 17.3785 38.75 17.5075 38.75H22.4919C22.6209 38.75 22.7468 38.71 22.8522 38.6356C22.9576 38.5612 23.0374 38.456 23.0806 38.3344L24.3231 34.8419L27.4369 33.5513L30.785 35.1431C30.9016 35.1986 31.0325 35.2166 31.1598 35.1947C31.287 35.1728 31.4043 35.1119 31.4956 35.0206L35.02 31.4956C35.1112 31.4044 35.1719 31.2872 35.1939 31.1601C35.2158 31.0329 35.1978 30.9021 35.1425 30.7856L33.5513 27.4375L34.8412 24.3231L38.3344 23.0812C38.4561 23.038 38.5613 22.9581 38.6358 22.8526C38.7102 22.747 38.7501 22.621 38.75 22.4919V17.5081C38.7501 17.379 38.7102 17.253 38.6358 17.1474C38.5613 17.0419 38.4561 16.962 38.3344 16.9187ZM20 31.875C17.6513 31.875 15.3554 31.1785 13.4026 29.8737C11.4498 28.5689 9.92772 26.7142 9.02893 24.5444C8.13014 22.3745 7.89498 19.9868 8.35318 17.6833C8.81137 15.3798 9.94236 13.2639 11.6031 11.6031C13.2639 9.94236 15.3798 8.81137 17.6833 8.35318C19.9868 7.89498 22.3745 8.13014 24.5444 9.02893C26.7142 9.92772 28.5689 11.4498 29.8737 13.4026C31.1785 15.3554 31.875 17.6513 31.875 20C31.8714 23.1483 30.6191 26.1667 28.3929 28.3929C26.1667 30.6191 23.1483 31.8714 20 31.875Z" fill="#141416"/>
<path d="M28.5468 17.8626C28.5301 17.7237 28.4672 17.5945 28.3683 17.4955C28.2694 17.3966 28.1401 17.3337 28.0012 17.317C27.8806 17.302 25.0393 16.9789 23.4131 18.6064C22.1087 19.9101 22.0575 21.9901 22.0962 22.8289L24.8975 20.082C24.9558 20.0232 25.0252 19.9765 25.1017 19.9448C25.1782 19.913 25.2602 19.8968 25.3431 19.897C25.4259 19.8972 25.5078 19.9139 25.5842 19.9461C25.6605 19.9783 25.7296 20.0253 25.7876 20.0844C25.8456 20.1436 25.8913 20.2137 25.9219 20.2906C25.9526 20.3675 25.9677 20.4498 25.9662 20.5326C25.9648 20.6154 25.947 20.6972 25.9137 20.773C25.8804 20.8489 25.8324 20.9173 25.7725 20.9745L22.9293 23.762C23.0493 23.7689 23.2012 23.7757 23.3856 23.7757C24.3618 23.7757 26.1106 23.5976 27.2575 22.4507C28.8856 20.8232 28.5606 17.9826 28.5468 17.8626ZM14.2162 20.9751C14.0978 20.8591 14.0303 20.7007 14.0286 20.535C14.0269 20.3692 14.0911 20.2095 14.2071 20.091C14.3232 19.9726 14.4815 19.9051 14.6473 19.9034C14.8131 19.9017 14.9728 19.9659 15.0912 20.082L17.8925 22.8289C17.9306 21.9901 17.88 19.9101 16.5756 18.6064C14.9487 16.9789 12.1075 17.3026 11.9881 17.317C11.8492 17.3336 11.7199 17.3963 11.6208 17.4951C11.5218 17.5939 11.4588 17.7231 11.4418 17.862C11.4275 17.9826 11.1031 20.8232 12.7306 22.4507C13.8768 23.5976 15.6262 23.7757 16.6025 23.7757C16.7868 23.7757 16.9387 23.7695 17.0587 23.762L14.2162 20.9751Z" fill="url(#paint2_linear_4249_19000)"/>
<defs>
<linearGradient id="paint0_linear_4249_19000" x1="22.7194" y1="16.5389" x2="17.2812" y2="16.5389" gradientUnits="userSpaceOnUse">
<stop stop-color="#31B978"/>
<stop offset="1" stop-color="#1AB69D"/>
</linearGradient>
<linearGradient id="paint1_linear_4249_19000" x1="27.291" y1="25.0173" x2="12.7031" y2="25.0173" gradientUnits="userSpaceOnUse">
<stop stop-color="#31B978"/>
<stop offset="1" stop-color="#1AB69D"/>
</linearGradient>
<linearGradient id="paint2_linear_4249_19000" x1="28.5821" y1="20.5285" x2="11.4062" y2="20.5285" gradientUnits="userSpaceOnUse">
<stop stop-color="#31B978"/>
<stop offset="1" stop-color="#1AB69D"/>
</linearGradient>
</defs>
</svg>
