<svg width="137" height="48" viewBox="0 0 137 48" fill="none" xmlns="http://www.w3.org/2000/svg">
<g filter="url(#filter0_d_4249_1405)">
<path d="M24.0006 15.96C24.1664 15.96 24.3254 16.0259 24.4426 16.1431C24.5598 16.2603 24.6256 16.4193 24.6256 16.585C24.6256 18.1588 26.4587 18.7893 26.6819 17.2314C26.7062 17.0615 26.7194 16.8879 26.7194 16.7113C26.7194 14.4094 24.4819 12.63 24.3856 12.555C24.2758 12.4688 24.1403 12.4219 24.0006 12.4219C23.861 12.4219 23.7254 12.4688 23.6156 12.555C23.52 12.6294 21.2812 14.4094 21.2812 16.7113C21.2812 16.888 21.2944 17.0616 21.3188 17.2316C21.5423 18.7895 23.3756 18.1588 23.3756 16.585C23.3756 16.4193 23.4415 16.2603 23.5587 16.1431C23.6759 16.0259 23.8349 15.96 24.0006 15.96Z" fill="#000407"/>
<path d="M31.1491 28.3483C30.3302 27.408 29.3309 26.6417 28.2104 26.0948C27.4913 25.7438 26.7316 25.4878 25.9505 25.3317C25.2157 25.1848 24.626 24.5777 24.626 23.8284V20.975C24.626 20.8536 24.482 20.7896 24.3866 20.8645C24.2765 20.9507 24.1408 20.9975 24.001 20.9975C23.8612 20.9975 23.7254 20.9507 23.6153 20.8645C23.5209 20.789 23.376 20.8542 23.376 20.9752V23.8313C23.376 24.5786 22.7878 25.1842 22.0549 25.3304C21.2726 25.4866 20.5117 25.7429 19.7914 26.0945C18.6709 26.6415 17.6716 27.4079 16.8528 28.3483C16.7765 28.4395 16.7277 28.5505 16.7123 28.6685C16.6969 28.7864 16.7154 28.9063 16.7658 29.014C16.8161 29.1218 16.8961 29.213 16.9965 29.2768C17.0968 29.3407 17.2133 29.3746 17.3322 29.3745H30.6697C30.7886 29.3746 30.9051 29.3407 31.0055 29.2768C31.1058 29.213 31.1858 29.1218 31.2362 29.014C31.2865 28.9063 31.305 28.7864 31.2896 28.6685C31.2742 28.5505 31.2254 28.4395 31.1491 28.3483Z" fill="#000407"/>
<path d="M42.3344 16.9187L38.8412 15.6769L37.5513 12.5625L39.1425 9.21438C39.1978 9.09786 39.2158 8.96707 39.1939 8.83995C39.1719 8.71283 39.1112 8.59561 39.02 8.50438L35.4963 4.97938C35.405 4.88805 35.2876 4.82724 35.1604 4.80531C35.0331 4.78337 34.9022 4.80139 34.7856 4.85688L31.4369 6.44875L28.3231 5.15813L27.0812 1.66563C27.038 1.54395 26.9581 1.43866 26.8526 1.36423C26.747 1.2898 26.621 1.2499 26.4919 1.25H21.5081C21.379 1.2499 21.253 1.2898 21.1474 1.36423C21.0419 1.43866 20.962 1.54395 20.9187 1.66563L19.6769 5.15813L16.5631 6.44875L13.2144 4.85688C13.0978 4.80139 12.9669 4.78337 12.8396 4.80531C12.7124 4.82724 12.595 4.88805 12.5037 4.97938L8.98 8.50438C8.8887 8.59554 8.82786 8.71272 8.80581 8.83984C8.78377 8.96697 8.80161 9.09779 8.85688 9.21438L10.4488 12.5625L9.15875 15.6769L5.66563 16.9187C5.54395 16.962 5.43866 17.0419 5.36423 17.1474C5.2898 17.253 5.2499 17.379 5.25 17.5081V22.4919C5.2499 22.621 5.2898 22.747 5.36423 22.8526C5.43866 22.9581 5.54395 23.038 5.66563 23.0812L9.15875 24.3231L10.4488 27.4375L8.85688 30.7856C8.80146 30.9023 8.78355 31.0332 8.8056 31.1605C8.82765 31.2877 8.88857 31.405 8.98 31.4963L12.5037 35.0206C12.595 35.1119 12.7124 35.1728 12.8396 35.1947C12.9669 35.2166 13.0978 35.1986 13.2144 35.1431L16.5631 33.5513L19.6769 34.8419L20.9187 38.3344C20.962 38.456 21.0418 38.5612 21.1472 38.6356C21.2526 38.71 21.3785 38.75 21.5075 38.75H26.4919C26.6209 38.75 26.7468 38.71 26.8522 38.6356C26.9576 38.5612 27.0374 38.456 27.0806 38.3344L28.3231 34.8419L31.4369 33.5513L34.785 35.1431C34.9016 35.1986 35.0325 35.2166 35.1598 35.1947C35.287 35.1728 35.4043 35.1119 35.4956 35.0206L39.02 31.4956C39.1112 31.4044 39.1719 31.2872 39.1939 31.1601C39.2158 31.0329 39.1978 30.9021 39.1425 30.7856L37.5513 27.4375L38.8412 24.3231L42.3344 23.0812C42.4561 23.038 42.5613 22.9581 42.6358 22.8526C42.7102 22.747 42.7501 22.621 42.75 22.4919V17.5081C42.7501 17.379 42.7102 17.253 42.6358 17.1474C42.5613 17.0419 42.4561 16.962 42.3344 16.9187ZM24 31.875C21.6513 31.875 19.3554 31.1785 17.4026 29.8737C15.4498 28.5689 13.9277 26.7142 13.0289 24.5444C12.1301 22.3745 11.895 19.9868 12.3532 17.6833C12.8114 15.3798 13.9424 13.2639 15.6031 11.6031C17.2639 9.94236 19.3798 8.81137 21.6833 8.35318C23.9868 7.89498 26.3745 8.13014 28.5444 9.02893C30.7142 9.92772 32.5689 11.4498 33.8737 13.4026C35.1785 15.3554 35.875 17.6513 35.875 20C35.8714 23.1483 34.6191 26.1667 32.3929 28.3929C30.1667 30.6191 27.1483 31.8714 24 31.875Z" fill="#000407"/>
<path d="M32.5507 17.8626C32.534 17.7237 32.4711 17.5945 32.3722 17.4955C32.2733 17.3966 32.144 17.3337 32.0051 17.317C31.8845 17.302 29.0432 16.9789 27.417 18.6064C27.2671 18.7562 27.1337 18.9163 27.0151 19.0836C26.138 20.3212 27.8183 21.144 28.9014 20.082C28.9597 20.0232 29.0291 19.9765 29.1056 19.9448C29.1821 19.913 29.2641 19.8968 29.347 19.897C29.4298 19.8972 29.5117 19.9139 29.5881 19.9461C29.6644 19.9783 29.7336 20.0253 29.7915 20.0844C29.8495 20.1436 29.8952 20.2137 29.9258 20.2906C29.9565 20.3675 29.9716 20.4498 29.9702 20.5326C29.9687 20.6154 29.9509 20.6972 29.9176 20.773C29.8843 20.8489 29.8363 20.9173 29.7764 20.9745L27.2592 23.4424C27.1341 23.5651 27.2142 23.7757 27.3895 23.7757C28.3657 23.7757 30.1145 23.5976 31.2614 22.4507C32.8895 20.8232 32.5645 17.9826 32.5507 17.8626ZM18.2201 20.9751C18.1017 20.8591 18.0342 20.7007 18.0325 20.535C18.0308 20.3692 18.095 20.2095 18.2111 20.091C18.3271 19.9726 18.4854 19.9051 18.6512 19.9034C18.817 19.9017 18.9767 19.9659 19.0951 20.082C20.1775 21.1434 21.8579 20.3204 20.9813 19.0836C20.8628 18.9163 20.7294 18.7562 20.5795 18.6064C18.9526 16.9789 16.1114 17.3026 15.992 17.317C15.8531 17.3336 15.7238 17.3963 15.6247 17.4951C15.5257 17.5939 15.4627 17.7231 15.4457 17.862C15.4314 17.9826 15.107 20.8232 16.7345 22.4507C17.8807 23.5976 19.6301 23.7757 20.6064 23.7757C20.7824 23.7757 20.8623 23.5656 20.7366 23.4424L18.2201 20.9751Z" fill="#000407"/>
<path d="M58.81 29.5H54.88C54.46 29.5 54.21 29.29 54.13 28.87L49.48 10.9C49.34 10.44 49.54 10.21 50.08 10.21H52.9C53.3 10.21 53.54 10.42 53.62 10.84L56.77 25.6H56.89L60.04 10.84C60.12 10.42 60.36 10.21 60.76 10.21H63.58C64.08 10.21 64.28 10.44 64.18 10.9L59.53 28.87C59.43 29.29 59.19 29.5 58.81 29.5ZM71.6645 29.5H70.9445C69.3645 29.5 68.1445 29.08 67.2845 28.24C66.4245 27.4 65.9945 26.19 65.9945 24.61V19.09C65.9945 17.51 66.4245 16.3 67.2845 15.46C68.1445 14.62 69.3645 14.2 70.9445 14.2H77.8745C78.3145 14.2 78.5345 14.41 78.5345 14.83V28.87C78.5345 29.29 78.3145 29.5 77.8745 29.5H75.3545C74.9345 29.5 74.7245 29.29 74.7245 28.87V27.88H74.6045C74.3845 28.42 73.9945 28.83 73.4345 29.11C72.8745 29.37 72.2845 29.5 71.6645 29.5ZM74.7245 23.92V17.83C74.7245 17.61 74.6045 17.5 74.3645 17.5H71.5445C70.9045 17.5 70.4545 17.64 70.1945 17.92C69.9345 18.18 69.8045 18.63 69.8045 19.27V24.43C69.8045 25.07 69.9345 25.53 70.1945 25.81C70.4545 26.07 70.9045 26.2 71.5445 26.2H72.6545C74.0345 26.2 74.7245 25.44 74.7245 23.92ZM82.1519 17.5H80.9519C80.7119 17.5 80.5419 17.46 80.4419 17.38C80.3619 17.3 80.3219 17.14 80.3219 16.9V14.83C80.3219 14.41 80.5319 14.2 80.9519 14.2H82.1519C82.3719 14.2 82.4819 14.09 82.4819 13.87V11.02C82.4819 10.6 82.7019 10.39 83.1419 10.39H85.6619C86.0819 10.39 86.2919 10.6 86.2919 11.02V13.87C86.2919 14.09 86.4119 14.2 86.6519 14.2H88.9919C89.4119 14.2 89.6219 14.41 89.6219 14.83V16.9C89.6219 17.12 89.5719 17.28 89.4719 17.38C89.3919 17.46 89.2319 17.5 88.9919 17.5H86.6519C86.4119 17.5 86.2919 17.61 86.2919 17.83V24.46C86.2919 25.08 86.4319 25.53 86.7119 25.81C86.9919 26.07 87.4519 26.2 88.0919 26.2H89.2919C89.7119 26.2 89.9219 26.41 89.9219 26.83V28.9C89.9219 29.12 89.8719 29.28 89.7719 29.38C89.6919 29.46 89.5319 29.5 89.2919 29.5H87.4619C85.8819 29.5 84.6519 29.08 83.7719 28.24C82.9119 27.4 82.4819 26.2 82.4819 24.64V17.83C82.4819 17.61 82.3719 17.5 82.1519 17.5ZM103.678 29.5H97.048C95.468 29.5 94.248 29.08 93.388 28.24C92.528 27.4 92.098 26.19 92.098 24.61V19.09C92.098 17.51 92.528 16.3 93.388 15.46C94.248 14.62 95.468 14.2 97.048 14.2H99.418C100.998 14.2 102.218 14.62 103.078 15.46C103.938 16.3 104.368 17.51 104.368 19.09V22.9C104.368 23.32 104.158 23.53 103.738 23.53H96.208C95.968 23.53 95.848 23.64 95.848 23.86V24.52C95.848 25.14 95.978 25.59 96.238 25.87C96.518 26.13 96.978 26.26 97.618 26.26H103.678C104.098 26.26 104.308 26.48 104.308 26.92V28.9C104.308 29.12 104.258 29.28 104.158 29.38C104.078 29.46 103.918 29.5 103.678 29.5ZM96.208 20.98H100.288C100.508 20.98 100.618 20.87 100.618 20.65V19.21C100.618 18.57 100.488 18.12 100.228 17.86C99.968 17.6 99.518 17.47 98.878 17.47H97.618C96.978 17.47 96.528 17.6 96.268 17.86C96.008 18.12 95.878 18.57 95.878 19.21V20.65C95.878 20.87 95.988 20.98 96.208 20.98ZM116.972 26.83V28.9C116.972 29.12 116.922 29.28 116.822 29.38C116.742 29.46 116.582 29.5 116.342 29.5H111.872C110.292 29.5 109.072 29.08 108.212 28.24C107.352 27.4 106.922 26.19 106.922 24.61V19.09C106.922 17.51 107.352 16.3 108.212 15.46C109.072 14.62 110.292 14.2 111.872 14.2H116.342C116.762 14.2 116.972 14.41 116.972 14.83V16.9C116.972 17.12 116.922 17.28 116.822 17.38C116.742 17.46 116.582 17.5 116.342 17.5H112.472C111.852 17.5 111.402 17.64 111.122 17.92C110.862 18.18 110.732 18.63 110.732 19.27V24.43C110.732 25.07 110.862 25.53 111.122 25.81C111.402 26.07 111.852 26.2 112.472 26.2H116.342C116.762 26.2 116.972 26.41 116.972 26.83ZM122.736 29.5H120.186C119.766 29.5 119.556 29.29 119.556 28.87V9.04C119.556 8.62 119.766 8.41 120.186 8.41H122.736C123.156 8.41 123.366 8.62 123.366 9.04V15.82H123.486C123.926 14.74 124.906 14.2 126.426 14.2H127.386C130.526 14.2 132.096 15.83 132.096 19.09V28.87C132.096 29.29 131.876 29.5 131.436 29.5H128.916C128.496 29.5 128.286 29.29 128.286 28.87V19.27C128.286 18.63 128.146 18.18 127.866 17.92C127.606 17.64 127.156 17.5 126.516 17.5H125.436C124.056 17.5 123.366 18.26 123.366 19.78V28.87C123.366 29.29 123.156 29.5 122.736 29.5Z" fill="#000407"/>
</g>
<defs>
<filter id="filter0_d_4249_1405" x="0" y="0" width="138" height="48" filterUnits="userSpaceOnUse" color-interpolation-filters="sRGB">
<feFlood flood-opacity="0" result="BackgroundImageFix"/>
<feColorMatrix in="SourceAlpha" type="matrix" values="0 0 0 0 0 0 0 0 0 0 0 0 0 0 0 0 0 0 127 0" result="hardAlpha"/>
<feOffset dy="4"/>
<feGaussianBlur stdDeviation="2"/>
<feComposite in2="hardAlpha" operator="out"/>
<feColorMatrix type="matrix" values="0 0 0 0 0 0 0 0 0 0 0 0 0 0 0 0 0 0 0.25 0"/>
<feBlend mode="normal" in2="BackgroundImageFix" result="effect1_dropShadow_4249_1405"/>
<feBlend mode="normal" in="SourceGraphic" in2="effect1_dropShadow_4249_1405" result="shape"/>
</filter>
</defs>
</svg>
