<svg width="130" height="40" viewBox="0 0 130 40" fill="none" xmlns="http://www.w3.org/2000/svg">
<path d="M20.0006 15.9561C20.1664 15.9561 20.3254 16.022 20.4426 16.1392C20.5598 16.2564 20.6256 16.4154 20.6256 16.5811C20.6256 18.1549 22.4587 18.7854 22.6819 17.2275C22.7062 17.0576 22.7194 16.884 22.7194 16.7074C22.7194 14.4055 20.4819 12.6261 20.3856 12.5511C20.2758 12.4649 20.1403 12.418 20.0006 12.418C19.861 12.418 19.7254 12.4649 19.6156 12.5511C19.52 12.6255 17.2812 14.4055 17.2812 16.7074C17.2812 16.8841 17.2944 17.0577 17.3188 17.2277C17.5423 18.7856 19.3756 18.1549 19.3756 16.5811C19.3756 16.4154 19.4415 16.2564 19.5587 16.1392C19.6759 16.022 19.8349 15.9561 20.0006 15.9561Z" fill="#0055FF"/>
<path d="M27.1452 28.3483C26.3263 27.408 25.327 26.6417 24.2065 26.0948C23.4874 25.7438 22.7277 25.4878 21.9465 25.3317C21.2118 25.1848 20.6221 24.5777 20.6221 23.8284V20.975C20.6221 20.8536 20.4781 20.7896 20.3827 20.8645C20.2726 20.9507 20.1368 20.9975 19.9971 20.9975C19.8573 20.9975 19.7215 20.9507 19.6114 20.8645C19.517 20.789 19.3721 20.8542 19.3721 20.9752V23.8313C19.3721 24.5786 18.7839 25.1842 18.051 25.3304C17.2687 25.4866 16.5078 25.7429 15.7875 26.0945C14.667 26.6415 13.6677 27.4079 12.8489 28.3483C12.7726 28.4395 12.7238 28.5505 12.7084 28.6685C12.693 28.7864 12.7115 28.9063 12.7619 29.014C12.8122 29.1218 12.8922 29.213 12.9926 29.2768C13.0929 29.3407 13.2094 29.3746 13.3283 29.3745H26.6658C26.7847 29.3746 26.9012 29.3407 27.0016 29.2768C27.1019 29.213 27.1819 29.1218 27.2323 29.014C27.2826 28.9063 27.3011 28.7864 27.2857 28.6685C27.2703 28.5505 27.2215 28.4395 27.1452 28.3483Z" fill="#0055FF"/>
<path d="M38.3344 16.9187L34.8412 15.6769L33.5513 12.5625L35.1425 9.21438C35.1978 9.09786 35.2158 8.96707 35.1939 8.83995C35.1719 8.71283 35.1112 8.59561 35.02 8.50438L31.4963 4.97938C31.405 4.88805 31.2876 4.82724 31.1604 4.80531C31.0331 4.78337 30.9022 4.80139 30.7856 4.85688L27.4369 6.44875L24.3231 5.15813L23.0812 1.66563C23.038 1.54395 22.9581 1.43866 22.8526 1.36423C22.747 1.2898 22.621 1.2499 22.4919 1.25H17.5081C17.379 1.2499 17.253 1.2898 17.1474 1.36423C17.0419 1.43866 16.962 1.54395 16.9187 1.66563L15.6769 5.15813L12.5631 6.44875L9.21438 4.85688C9.09778 4.80139 8.96686 4.78337 8.83961 4.80531C8.71237 4.82724 8.59504 4.88805 8.50375 4.97938L4.98 8.50438C4.8887 8.59554 4.82786 8.71272 4.80581 8.83984C4.78377 8.96697 4.80161 9.09779 4.85688 9.21438L6.44875 12.5625L5.15875 15.6769L1.66563 16.9187C1.54395 16.962 1.43866 17.0419 1.36423 17.1474C1.2898 17.253 1.2499 17.379 1.25 17.5081V22.4919C1.2499 22.621 1.2898 22.747 1.36423 22.8526C1.43866 22.9581 1.54395 23.038 1.66563 23.0812L5.15875 24.3231L6.44875 27.4375L4.85688 30.7856C4.80146 30.9023 4.78355 31.0332 4.8056 31.1605C4.82765 31.2877 4.88857 31.405 4.98 31.4963L8.50375 35.0206C8.59504 35.1119 8.71237 35.1728 8.83961 35.1947C8.96686 35.2166 9.09778 35.1986 9.21438 35.1431L12.5631 33.5513L15.6769 34.8419L16.9187 38.3344C16.962 38.456 17.0418 38.5612 17.1472 38.6356C17.2526 38.71 17.3785 38.75 17.5075 38.75H22.4919C22.6209 38.75 22.7468 38.71 22.8522 38.6356C22.9576 38.5612 23.0374 38.456 23.0806 38.3344L24.3231 34.8419L27.4369 33.5513L30.785 35.1431C30.9016 35.1986 31.0325 35.2166 31.1598 35.1947C31.287 35.1728 31.4043 35.1119 31.4956 35.0206L35.02 31.4956C35.1112 31.4044 35.1719 31.2872 35.1939 31.1601C35.2158 31.0329 35.1978 30.9021 35.1425 30.7856L33.5513 27.4375L34.8412 24.3231L38.3344 23.0812C38.4561 23.038 38.5613 22.9581 38.6358 22.8526C38.7102 22.747 38.7501 22.621 38.75 22.4919V17.5081C38.7501 17.379 38.7102 17.253 38.6358 17.1474C38.5613 17.0419 38.4561 16.962 38.3344 16.9187ZM20 31.875C17.6513 31.875 15.3554 31.1785 13.4026 29.8737C11.4498 28.5689 9.92772 26.7142 9.02893 24.5444C8.13014 22.3745 7.89498 19.9868 8.35318 17.6833C8.81137 15.3798 9.94236 13.2639 11.6031 11.6031C13.2639 9.94236 15.3798 8.81137 17.6833 8.35318C19.9868 7.89498 22.3745 8.13014 24.5444 9.02893C26.7142 9.92772 28.5689 11.4498 29.8737 13.4026C31.1785 15.3554 31.875 17.6513 31.875 20C31.8714 23.1483 30.6191 26.1667 28.3929 28.3929C26.1667 30.6191 23.1483 31.8714 20 31.875Z" fill="white"/>
<path d="M28.5468 17.8626C28.5301 17.7237 28.4672 17.5945 28.3683 17.4955C28.2694 17.3966 28.1401 17.3337 28.0012 17.317C27.8806 17.302 25.0393 16.9789 23.4131 18.6064C23.2632 18.7562 23.1298 18.9163 23.0112 19.0836C22.1341 20.3212 23.8144 21.144 24.8975 20.082C24.9558 20.0232 25.0252 19.9765 25.1017 19.9448C25.1782 19.913 25.2602 19.8968 25.3431 19.897C25.4259 19.8972 25.5078 19.9139 25.5842 19.9461C25.6605 19.9783 25.7296 20.0253 25.7876 20.0844C25.8456 20.1436 25.8913 20.2137 25.9219 20.2906C25.9526 20.3675 25.9677 20.4498 25.9662 20.5326C25.9648 20.6154 25.947 20.6972 25.9137 20.773C25.8804 20.8489 25.8324 20.9173 25.7725 20.9745L23.2553 23.4424C23.1302 23.5651 23.2103 23.7757 23.3856 23.7757C24.3618 23.7757 26.1106 23.5976 27.2575 22.4507C28.8856 20.8232 28.5606 17.9826 28.5468 17.8626ZM14.2162 20.9751C14.0978 20.8591 14.0303 20.7007 14.0286 20.535C14.0269 20.3692 14.0911 20.2095 14.2071 20.091C14.3232 19.9726 14.4815 19.9051 14.6473 19.9034C14.8131 19.9017 14.9728 19.9659 15.0912 20.082C16.1736 21.1434 17.854 20.3204 16.9774 19.0836C16.8588 18.9163 16.7255 18.7562 16.5756 18.6064C14.9487 16.9789 12.1075 17.3026 11.9881 17.317C11.8492 17.3336 11.7199 17.3963 11.6208 17.4951C11.5218 17.5939 11.4588 17.7231 11.4418 17.862C11.4275 17.9826 11.1031 20.8232 12.7306 22.4507C13.8768 23.5976 15.6262 23.7757 16.6025 23.7757C16.7785 23.7757 16.8584 23.5656 16.7327 23.4424L14.2162 20.9751Z" fill="#0055FF"/>
<path d="M54.81 29.5H50.88C50.46 29.5 50.21 29.29 50.13 28.87L45.48 10.9C45.34 10.44 45.54 10.21 46.08 10.21H48.9C49.3 10.21 49.54 10.42 49.62 10.84L52.77 25.6H52.89L56.04 10.84C56.12 10.42 56.36 10.21 56.76 10.21H59.58C60.08 10.21 60.28 10.44 60.18 10.9L55.53 28.87C55.43 29.29 55.19 29.5 54.81 29.5ZM67.6645 29.5H66.9445C65.3645 29.5 64.1445 29.08 63.2845 28.24C62.4245 27.4 61.9945 26.19 61.9945 24.61V19.09C61.9945 17.51 62.4245 16.3 63.2845 15.46C64.1445 14.62 65.3645 14.2 66.9445 14.2H73.8745C74.3145 14.2 74.5345 14.41 74.5345 14.83V28.87C74.5345 29.29 74.3145 29.5 73.8745 29.5H71.3545C70.9345 29.5 70.7245 29.29 70.7245 28.87V27.88H70.6045C70.3845 28.42 69.9945 28.83 69.4345 29.11C68.8745 29.37 68.2845 29.5 67.6645 29.5ZM70.7245 23.92V17.83C70.7245 17.61 70.6045 17.5 70.3645 17.5H67.5445C66.9045 17.5 66.4545 17.64 66.1945 17.92C65.9345 18.18 65.8045 18.63 65.8045 19.27V24.43C65.8045 25.07 65.9345 25.53 66.1945 25.81C66.4545 26.07 66.9045 26.2 67.5445 26.2H68.6545C70.0345 26.2 70.7245 25.44 70.7245 23.92ZM78.1519 17.5H76.9519C76.7119 17.5 76.5419 17.46 76.4419 17.38C76.3619 17.3 76.3219 17.14 76.3219 16.9V14.83C76.3219 14.41 76.5319 14.2 76.9519 14.2H78.1519C78.3719 14.2 78.4819 14.09 78.4819 13.87V11.02C78.4819 10.6 78.7019 10.39 79.1419 10.39H81.6619C82.0819 10.39 82.2919 10.6 82.2919 11.02V13.87C82.2919 14.09 82.4119 14.2 82.6519 14.2H84.9919C85.4119 14.2 85.6219 14.41 85.6219 14.83V16.9C85.6219 17.12 85.5719 17.28 85.4719 17.38C85.3919 17.46 85.2319 17.5 84.9919 17.5H82.6519C82.4119 17.5 82.2919 17.61 82.2919 17.83V24.46C82.2919 25.08 82.4319 25.53 82.7119 25.81C82.9919 26.07 83.4519 26.2 84.0919 26.2H85.2919C85.7119 26.2 85.9219 26.41 85.9219 26.83V28.9C85.9219 29.12 85.8719 29.28 85.7719 29.38C85.6919 29.46 85.5319 29.5 85.2919 29.5H83.4619C81.8819 29.5 80.6519 29.08 79.7719 28.24C78.9119 27.4 78.4819 26.2 78.4819 24.64V17.83C78.4819 17.61 78.3719 17.5 78.1519 17.5ZM99.678 29.5H93.048C91.468 29.5 90.248 29.08 89.388 28.24C88.528 27.4 88.098 26.19 88.098 24.61V19.09C88.098 17.51 88.528 16.3 89.388 15.46C90.248 14.62 91.468 14.2 93.048 14.2H95.418C96.998 14.2 98.218 14.62 99.078 15.46C99.938 16.3 100.368 17.51 100.368 19.09V22.9C100.368 23.32 100.158 23.53 99.738 23.53H92.208C91.968 23.53 91.848 23.64 91.848 23.86V24.52C91.848 25.14 91.978 25.59 92.238 25.87C92.518 26.13 92.978 26.26 93.618 26.26H99.678C100.098 26.26 100.308 26.48 100.308 26.92V28.9C100.308 29.12 100.258 29.28 100.158 29.38C100.078 29.46 99.918 29.5 99.678 29.5ZM92.208 20.98H96.288C96.508 20.98 96.618 20.87 96.618 20.65V19.21C96.618 18.57 96.488 18.12 96.228 17.86C95.968 17.6 95.518 17.47 94.878 17.47H93.618C92.978 17.47 92.528 17.6 92.268 17.86C92.008 18.12 91.878 18.57 91.878 19.21V20.65C91.878 20.87 91.988 20.98 92.208 20.98ZM112.972 26.83V28.9C112.972 29.12 112.922 29.28 112.822 29.38C112.742 29.46 112.582 29.5 112.342 29.5H107.872C106.292 29.5 105.072 29.08 104.212 28.24C103.352 27.4 102.922 26.19 102.922 24.61V19.09C102.922 17.51 103.352 16.3 104.212 15.46C105.072 14.62 106.292 14.2 107.872 14.2H112.342C112.762 14.2 112.972 14.41 112.972 14.83V16.9C112.972 17.12 112.922 17.28 112.822 17.38C112.742 17.46 112.582 17.5 112.342 17.5H108.472C107.852 17.5 107.402 17.64 107.122 17.92C106.862 18.18 106.732 18.63 106.732 19.27V24.43C106.732 25.07 106.862 25.53 107.122 25.81C107.402 26.07 107.852 26.2 108.472 26.2H112.342C112.762 26.2 112.972 26.41 112.972 26.83ZM118.736 29.5H116.186C115.766 29.5 115.556 29.29 115.556 28.87V9.04C115.556 8.62 115.766 8.41 116.186 8.41H118.736C119.156 8.41 119.366 8.62 119.366 9.04V15.82H119.486C119.926 14.74 120.906 14.2 122.426 14.2H123.386C126.526 14.2 128.096 15.83 128.096 19.09V28.87C128.096 29.29 127.876 29.5 127.436 29.5H124.916C124.496 29.5 124.286 29.29 124.286 28.87V19.27C124.286 18.63 124.146 18.18 123.866 17.92C123.606 17.64 123.156 17.5 122.516 17.5H121.436C120.056 17.5 119.366 18.26 119.366 19.78V28.87C119.366 29.29 119.156 29.5 118.736 29.5Z" fill="white"/>
</svg>
