<svg width="161" height="60" viewBox="0 0 161 60" fill="none" xmlns="http://www.w3.org/2000/svg">
<g opacity="0.5">
<path d="M89.8916 47.8142C88.708 47.8797 87.5212 47.8626 86.34 47.7633C85.0652 47.6663 84.4278 46.8554 84.4278 45.3306V30.7161H86.2164C86.4305 30.7171 86.6422 30.7618 86.8384 30.8475C87.0347 30.9331 87.2114 31.058 87.3578 31.2143C87.518 31.3685 87.6448 31.5539 87.7305 31.759C87.8161 31.9642 87.8588 32.1847 87.8559 32.407V34.6434H89.8916V35.3379C89.9001 35.5644 89.8605 35.7901 89.7752 36.0001C89.69 36.2101 89.5611 36.3996 89.3972 36.5561C89.2393 36.7095 89.0527 36.8302 88.8481 36.9113C88.6435 36.9925 88.4249 37.0324 88.2048 37.0288H87.8413V44.3851C87.8413 44.9487 88.1721 45.2287 88.8337 45.2287H89.877L89.8916 47.8142Z" fill="#002168"/>
<path d="M99.7248 38.3197C99.5008 37.9883 99.1968 37.7189 98.8409 37.5364C98.485 37.354 98.0888 37.2644 97.6891 37.2761C97.2784 37.2535 96.8684 37.3326 96.4956 37.5064C96.1227 37.6802 95.7985 37.9433 95.5516 38.2724C95.013 39.0775 94.7513 40.0362 94.8064 41.0033V47.8142H91.4256V30.7234H93.116C93.5634 30.7263 93.9917 30.9053 94.3081 31.2218C94.6245 31.5383 94.8035 31.9667 94.8064 32.4143V36.3415C95.0764 35.8672 95.442 35.4541 95.88 35.1286C96.3181 34.8031 96.819 34.5722 97.351 34.4506C98.3889 34.181 99.4858 34.2511 100.481 34.6506C101.417 35.055 102.226 35.7076 102.818 36.5379C103.448 37.4009 103.762 38.5936 103.76 40.1161V47.8214H100.43V40.956C100.434 40.4973 100.393 40.0393 100.306 39.5888C100.201 39.1306 100.003 38.6987 99.7248 38.3197Z" fill="#002168"/>
<path d="M114.411 43.7378H116.894C116.607 45.0164 115.866 46.1472 114.807 46.9196C113.676 47.7149 112.314 48.1161 110.932 48.0614C109.044 48.0614 107.571 47.4554 106.512 46.2433C105.453 45.0312 104.922 43.3136 104.92 41.0906C104.92 38.9694 105.433 37.3124 106.461 36.1197C107.488 34.927 108.959 34.3185 110.874 34.2943C112.859 34.2943 114.399 34.8906 115.494 36.0834C116.551 37.3076 117.081 39.0142 117.083 41.2033V41.7488C117.093 41.8722 117.075 41.9963 117.032 42.1124H108.449C108.482 43.1415 108.729 43.9015 109.195 44.3997C109.434 44.6736 109.733 44.8881 110.069 45.0263C110.406 45.1645 110.77 45.2226 111.132 45.196C111.641 45.2095 112.144 45.0837 112.586 44.8324C112.691 44.7974 112.786 44.7375 112.862 44.6578C112.942 44.5778 113.033 44.4833 113.135 44.3851C113.221 44.2247 113.346 44.0884 113.499 43.9888C113.767 43.807 114.088 43.7188 114.411 43.7378ZM108.449 39.8615H113.517C113.514 39.1395 113.27 38.4392 112.822 37.8724C112.582 37.6331 112.294 37.4474 111.977 37.3277C111.66 37.208 111.321 37.1569 110.983 37.1779C110.653 37.1657 110.325 37.2209 110.017 37.3404C109.71 37.4598 109.43 37.6409 109.195 37.8724C108.699 38.4147 108.432 39.1272 108.449 39.8615Z" fill="#002168"/>
<path d="M125.208 32.3634V36.3343C125.589 35.6869 126.138 35.1543 126.796 34.7925C127.469 34.4436 128.22 34.2721 128.977 34.2943C129.724 34.2842 130.462 34.4553 131.128 34.7928C131.794 35.1304 132.368 35.6243 132.802 36.2324C133.798 37.527 134.295 39.2009 134.292 41.2542C134.29 43.3075 133.793 44.9803 132.802 46.2724C132.284 46.9197 131.584 47.3962 130.791 47.6396C129.983 47.9158 129.134 48.0583 128.279 48.0614C126.719 48.0709 125.187 47.6413 123.859 46.8215C122.499 45.9924 121.82 44.4009 121.82 42.0469V30.6652H123.51C123.96 30.6662 124.391 30.8454 124.709 31.1637C125.028 31.4819 125.207 31.9133 125.208 32.3634ZM130.868 41.0906C130.868 39.8979 130.619 38.9694 130.122 38.3052C129.899 37.9733 129.595 37.7035 129.239 37.521C128.883 37.3385 128.487 37.2492 128.087 37.2615C127.676 37.2393 127.266 37.3186 126.893 37.4923C126.521 37.6661 126.196 37.929 125.949 38.2579C125.411 39.1008 125.15 40.0916 125.204 41.0906C125.204 42.4821 125.435 43.493 125.898 44.1233C126.13 44.459 126.443 44.7306 126.808 44.9131C127.173 45.0955 127.577 45.1828 127.985 45.1669C128.4 45.1871 128.814 45.1021 129.188 44.9196C129.561 44.7372 129.883 44.4633 130.122 44.1233C130.619 43.4348 130.868 42.4239 130.868 41.0906Z" fill="#002168"/>
<path d="M135.703 30.7161H137.491C137.714 30.7135 137.935 30.7564 138.14 30.842C138.346 30.9277 138.532 31.0543 138.687 31.2143C138.847 31.3687 138.973 31.5542 139.058 31.7593C139.143 31.9645 139.185 32.1849 139.181 32.407V33.4543H135.703V30.7161ZM135.703 34.5925H137.491C137.714 34.5899 137.935 34.6327 138.14 34.7184C138.346 34.804 138.532 34.9307 138.687 35.0906C138.847 35.245 138.973 35.4305 139.058 35.6357C139.143 35.8408 139.185 36.0613 139.181 36.2834V47.8142H135.703V34.5925Z" fill="#002168"/>
<path d="M140.566 47.8142V41.4033C140.533 40.285 140.727 39.1715 141.137 38.1306C141.478 37.3091 142.016 36.5846 142.704 36.0215C143.36 35.5124 144.111 35.1413 144.914 34.9306C145.764 34.6926 146.642 34.5703 147.524 34.567H148.022V38.0979H146.863C145.903 38.0979 145.19 38.327 144.725 38.7924C144.26 39.2579 144.031 39.9851 144.031 40.9742V47.7851L140.566 47.8142Z" fill="#002168"/>
<path d="M157.623 30.6652H159.313C159.538 30.6633 159.76 30.7089 159.966 30.7992C160.171 30.8895 160.355 31.0223 160.506 31.1888C160.662 31.3421 160.786 31.5248 160.871 31.7265C160.956 31.9281 160.999 32.1446 161 32.3634V42.0542C161 44.4106 160.321 46.0021 158.964 46.8287C157.635 47.6485 156.102 48.0781 154.54 48.0687C153.674 48.0709 152.814 47.9284 151.996 47.6469C151.212 47.3993 150.521 46.9232 150.011 46.2796C149.041 45.053 148.557 43.3803 148.557 41.2615C148.557 39.1427 149.041 37.4688 150.011 36.2397C150.686 35.3337 151.657 34.6924 152.755 34.4268C153.853 34.1612 155.009 34.288 156.023 34.7852C156.667 35.1661 157.212 35.6945 157.612 36.327L157.623 30.6652ZM151.952 41.0906C151.952 42.4142 152.2 43.4251 152.697 44.1233C152.937 44.4633 153.258 44.7372 153.632 44.9196C154.006 45.1021 154.419 45.1871 154.835 45.1669C155.242 45.1828 155.647 45.0955 156.012 44.9131C156.377 44.7306 156.69 44.459 156.921 44.1233C157.382 43.4251 157.613 42.4142 157.616 41.0906C157.67 40.0916 157.409 39.1008 156.87 38.2579C156.618 37.9346 156.293 37.6757 155.921 37.5025C155.55 37.3293 155.143 37.2467 154.733 37.2615C154.333 37.2499 153.937 37.3394 153.581 37.5219C153.225 37.7043 152.921 37.9738 152.697 38.3052C152.2 38.9815 151.952 39.91 151.952 41.0906Z" fill="#002168"/>
<path d="M87.5505 53.6178C87.2861 53.3866 86.9413 53.269 86.5908 53.2905C86.3195 53.2852 86.0515 53.3504 85.8129 53.4796C85.5943 53.5999 85.4055 53.7676 85.2603 53.9705C85.1095 54.1796 84.9964 54.4134 84.9259 54.6614C84.7757 55.178 84.7757 55.7266 84.9259 56.2432C84.9964 56.4912 85.1095 56.725 85.2603 56.9341C85.4055 57.137 85.5943 57.3047 85.8129 57.425C86.0518 57.5529 86.3198 57.6168 86.5908 57.6105C86.7755 57.6124 86.9585 57.5765 87.1288 57.505C87.2973 57.4347 87.4504 57.3322 87.5796 57.2032C87.7142 57.0727 87.8239 56.9186 87.9031 56.7486C87.9902 56.5669 88.0443 56.3711 88.0631 56.1705H88.6992C88.6472 56.714 88.4067 57.2221 88.0194 57.6068C87.6361 57.9588 87.1289 58.1445 86.609 58.1232C86.2546 58.131 85.903 58.0589 85.5802 57.9123C85.2923 57.7767 85.0369 57.5808 84.8314 57.3377C84.6245 57.0863 84.4677 56.7974 84.3697 56.4868C84.1613 55.8129 84.1613 55.0917 84.3697 54.4178C84.4677 54.1072 84.6245 53.8183 84.8314 53.5669C85.0367 53.3227 85.2921 53.1256 85.5802 52.9887C85.9019 52.838 86.2539 52.7633 86.609 52.7705C87.1037 52.7564 87.5889 52.9087 87.9867 53.2032C88.1819 53.3634 88.3423 53.5619 88.4579 53.7864C88.5736 54.0109 88.6421 54.2567 88.6592 54.5087H88.0412C87.9716 54.1688 87.8005 53.8582 87.5505 53.6178Z" fill="#002168"/>
<path d="M90.1133 52.9196V54.1087H90.1315C90.2642 53.7149 90.525 53.3769 90.8723 53.1488C91.2196 52.9208 91.6333 52.8157 92.0473 52.8505V53.4541C91.7865 53.4374 91.5252 53.4758 91.2802 53.5669C91.0586 53.6503 90.8568 53.7791 90.6878 53.945C90.5188 54.111 90.3863 54.3104 90.2987 54.5305C90.2071 54.762 90.1602 55.0088 90.1606 55.2578V57.9559H89.5426V52.9196H90.1133Z" fill="#002168"/>
<path d="M92.9161 56.3123C92.9748 56.5434 93.0759 56.7616 93.2142 56.9559C93.3539 57.1459 93.5308 57.3055 93.734 57.425C93.9645 57.5544 94.2259 57.6185 94.4901 57.6105C94.8775 57.6303 95.2577 57.5 95.5516 57.2468C95.8164 56.9918 95.9998 56.6641 96.0787 56.305H96.6967C96.5995 56.8148 96.3453 57.2815 95.9697 57.6395C95.5511 57.9786 95.0202 58.1473 94.4828 58.1123C94.1259 58.1219 93.7716 58.0498 93.4468 57.9014C93.1616 57.7698 92.9122 57.5715 92.7198 57.3232C92.5333 57.0655 92.3953 56.7759 92.3126 56.4687C92.224 56.1341 92.18 55.7893 92.1818 55.4432C92.1814 55.1116 92.2254 54.7814 92.3126 54.4614C92.3968 54.1525 92.5346 53.8608 92.7198 53.5996C92.9119 53.3436 93.1608 53.1358 93.4468 52.9923C93.768 52.8313 94.1237 52.7514 94.4828 52.7596C94.825 52.7472 95.1646 52.8225 95.4693 52.9785C95.7741 53.1344 96.034 53.3657 96.2241 53.6505C96.4101 53.9275 96.5421 54.2372 96.6131 54.5632C96.693 54.905 96.726 55.2561 96.7112 55.6068H92.8215C92.8226 55.8451 92.8544 56.0822 92.9161 56.3123ZM95.9769 54.4214C95.9047 54.2126 95.7965 54.0182 95.657 53.8469C95.5211 53.6789 95.3514 53.5414 95.159 53.4432C94.9491 53.3426 94.7193 53.2903 94.4865 53.2903C94.2537 53.2903 94.0239 53.3426 93.814 53.4432C93.6211 53.5423 93.4504 53.6796 93.3123 53.8469C93.1711 54.0195 93.0604 54.2151 92.9851 54.425C92.9025 54.6415 92.8476 54.8675 92.8215 55.0978H96.0932C96.0873 54.8673 96.0456 54.6391 95.9697 54.4214H95.9769Z" fill="#002168"/>
<path d="M97.6818 53.705C97.7775 53.4956 97.9237 53.3132 98.1072 53.1741C98.2958 53.0317 98.5108 52.9279 98.7397 52.8687C99.0032 52.8008 99.2746 52.7677 99.5467 52.7705C99.77 52.7707 99.9929 52.7926 100.212 52.836C100.426 52.8763 100.629 52.9578 100.812 53.076C100.994 53.2033 101.142 53.373 101.244 53.5705C101.364 53.8313 101.42 54.1166 101.408 54.4032V57.0905C101.402 57.1396 101.407 57.1895 101.424 57.2363C101.44 57.283 101.466 57.3255 101.501 57.3605C101.536 57.3955 101.579 57.4222 101.626 57.4384C101.672 57.4546 101.722 57.4599 101.771 57.4541C101.839 57.4546 101.906 57.441 101.968 57.4141V57.9341C101.905 57.948 101.842 57.9578 101.779 57.9632C101.709 57.9675 101.638 57.9675 101.568 57.9632C101.444 57.9659 101.32 57.9449 101.204 57.9014C101.115 57.8624 101.038 57.7995 100.983 57.7196C100.929 57.6346 100.894 57.5391 100.881 57.4396C100.862 57.3193 100.854 57.1976 100.855 57.0759C100.752 57.229 100.637 57.3748 100.514 57.5123C100.404 57.6383 100.275 57.7463 100.132 57.8323C99.9818 57.9194 99.8203 57.9855 99.6521 58.0286C99.4414 58.0785 99.2252 58.1018 99.0087 58.0977C98.7854 58.099 98.563 58.0709 98.3471 58.0141C98.1502 57.9638 97.9658 57.8734 97.8054 57.7486C97.6508 57.6243 97.5265 57.4663 97.4419 57.2868C97.3501 57.0786 97.3054 56.8526 97.311 56.625C97.2928 56.3298 97.3762 56.0372 97.5473 55.7959C97.7103 55.5909 97.9249 55.4327 98.1689 55.3377C98.4492 55.2272 98.7424 55.1527 99.0414 55.1159L100.03 54.9959C100.145 54.9849 100.259 54.968 100.372 54.945C100.461 54.9298 100.545 54.895 100.619 54.8432C100.686 54.7907 100.739 54.7219 100.772 54.6432C100.809 54.5356 100.826 54.4223 100.823 54.3087C100.818 54.1375 100.775 53.9696 100.695 53.8178C100.63 53.6882 100.533 53.5779 100.412 53.4978C100.283 53.4176 100.14 53.3633 99.9902 53.3378C99.8199 53.3067 99.6471 53.2909 99.474 53.2905C99.131 53.2765 98.7928 53.3748 98.5107 53.5705C98.3805 53.6807 98.2774 53.8193 98.2093 53.9757C98.1413 54.132 98.11 54.3019 98.1181 54.4723H97.5001C97.5114 54.2073 97.5731 53.9469 97.6818 53.705ZM100.772 55.2178C100.72 55.2973 100.639 55.3534 100.546 55.3741C100.45 55.4025 100.351 55.4256 100.252 55.4432C99.9902 55.4868 99.7212 55.5305 99.4413 55.5668C99.1835 55.5961 98.9292 55.6497 98.6815 55.7268C98.4732 55.7871 98.2808 55.8927 98.1181 56.0359C98.0413 56.1096 97.9817 56.1993 97.9434 56.2986C97.9051 56.3978 97.889 56.5043 97.8963 56.6105C97.8923 56.7556 97.9248 56.8994 97.9908 57.0286C98.0522 57.1479 98.1362 57.2541 98.238 57.3414C98.3453 57.4315 98.4687 57.5006 98.6015 57.545C98.7379 57.5883 98.8801 57.6103 99.0232 57.6105C99.254 57.6124 99.4836 57.5768 99.703 57.505C99.9096 57.4371 100.101 57.3297 100.266 57.1886C100.428 57.0517 100.558 56.8819 100.648 56.6905C100.746 56.4811 100.794 56.2523 100.79 56.0214V55.2178H100.772Z" fill="#002168"/>
<path d="M104.658 52.9196V53.4541H103.629V56.8723C103.621 57.0353 103.649 57.1981 103.713 57.3486C103.767 57.4614 103.905 57.5268 104.127 57.5377C104.304 57.539 104.482 57.5293 104.658 57.5086V58.0286H104.109C103.955 58.0653 103.793 58.0612 103.641 58.0166C103.489 57.972 103.351 57.8885 103.241 57.7743C103.131 57.6602 103.053 57.5193 103.014 57.3656C102.974 57.2119 102.976 57.0506 103.018 56.8977V53.4541H102.135V52.9341H103.018V51.4105H103.636V52.9341L104.658 52.9196Z" fill="#002168"/>
<path d="M106.181 50.9741V51.9669H105.563V50.9741H106.181ZM106.181 52.9196V57.985H105.563V52.9196H106.181Z" fill="#002168"/>
<path d="M107.486 52.9196L109.075 57.3668H109.096L110.667 52.9196H111.303L109.42 57.985H108.762L106.81 52.9196H107.486Z" fill="#002168"/>
<path d="M112.368 56.3123C112.428 56.5429 112.529 56.7608 112.666 56.9559C112.806 57.1468 112.985 57.3065 113.19 57.425C113.419 57.5538 113.679 57.6179 113.942 57.6105C114.33 57.6314 114.71 57.501 115.004 57.2468C115.27 56.9922 115.454 56.6645 115.534 56.305H116.152C116.057 56.8155 115.803 57.2827 115.425 57.6395C115.005 57.9785 114.473 58.1472 113.935 58.1123C113.579 58.1215 113.226 58.0494 112.902 57.9014C112.616 57.7719 112.366 57.5732 112.175 57.3232C111.986 57.0671 111.848 56.777 111.768 56.4687C111.677 56.1346 111.631 55.7896 111.634 55.4432C111.633 55.1113 111.678 54.7808 111.768 54.4614C111.849 54.1513 111.987 53.8591 112.175 53.5996C112.366 53.3419 112.615 53.1337 112.902 52.9923C113.222 52.8311 113.577 52.7512 113.935 52.7596C114.278 52.7466 114.618 52.8216 114.923 52.9776C115.229 53.1335 115.489 53.3652 115.68 53.6505C115.865 53.9277 115.995 54.2374 116.065 54.5632C116.145 54.905 116.178 55.2561 116.163 55.6068H112.274C112.275 55.8451 112.306 56.0822 112.368 56.3123ZM115.433 54.4214C115.36 54.2126 115.252 54.0182 115.113 53.8469C114.975 53.6796 114.804 53.5423 114.611 53.4432C114.404 53.3387 114.174 53.2863 113.942 53.2905C113.708 53.2861 113.476 53.3385 113.266 53.4432C113.073 53.5423 112.902 53.6796 112.764 53.8469C112.624 54.0204 112.514 54.2157 112.437 54.425C112.356 54.642 112.301 54.8678 112.274 55.0978H115.545C115.541 54.868 115.503 54.6401 115.433 54.4214Z" fill="#002168"/>
<path d="M120.689 53.4541V57.9995H120.071V53.4541H119.21V52.9341H120.071V52.4723C120.071 52.2712 120.088 52.0705 120.122 51.8723C120.149 51.7044 120.212 51.5444 120.307 51.4032C120.399 51.2709 120.525 51.1654 120.671 51.0978C120.866 51.0184 121.075 50.9812 121.285 50.9887C121.376 50.9887 121.46 50.9887 121.54 50.9887C121.62 50.9887 121.707 50.9887 121.805 51.0178V51.5487L121.569 51.5123C121.496 51.5123 121.423 51.5123 121.354 51.5123C121.219 51.5057 121.084 51.5332 120.962 51.5923C120.873 51.6393 120.802 51.7131 120.758 51.8032C120.715 51.901 120.691 52.0057 120.685 52.1123C120.685 52.2335 120.685 52.3608 120.685 52.4941V52.9378H121.689V53.4541H120.689Z" fill="#002168"/>
<path d="M122.903 50.9741V57.985H122.285V50.9741H122.903Z" fill="#002168"/>
<path d="M124.183 52.9196L125.851 57.2396L127.411 52.9196H128.029L125.829 58.7377C125.738 58.9523 125.651 59.1305 125.575 59.2723C125.507 59.3976 125.418 59.5107 125.313 59.6068C125.216 59.6889 125.102 59.7485 124.979 59.7814C124.821 59.8217 124.658 59.8401 124.495 59.8359H124.204C124.143 59.8334 124.081 59.8223 124.023 59.8032V59.2723L124.233 59.305C124.304 59.3105 124.374 59.3105 124.444 59.305C124.561 59.3094 124.677 59.2896 124.786 59.2468C124.872 59.2077 124.95 59.1521 125.015 59.0832C125.083 59.0087 125.14 58.9241 125.182 58.8323C125.226 58.7341 125.277 58.6286 125.328 58.5086L125.546 57.9414L123.521 52.8941L124.183 52.9196Z" fill="#002168"/>
<path d="M129.265 50.9741V51.9669H128.647V50.9741H129.265ZM129.265 52.9196V57.985H128.647V52.9196H129.265Z" fill="#002168"/>
<path d="M131.06 52.9196V53.7923H131.079C131.204 53.4879 131.424 53.2326 131.707 53.065C132.005 52.8801 132.349 52.783 132.7 52.785C133.001 52.7771 133.302 52.824 133.587 52.9232C133.808 53.0018 134.006 53.1357 134.161 53.3123C134.312 53.4891 134.417 53.7001 134.467 53.9269C134.528 54.194 134.557 54.4674 134.554 54.7414V58.0141H133.936V54.8541C133.938 54.6514 133.918 54.4491 133.878 54.2505C133.843 54.0754 133.773 53.9095 133.67 53.7632C133.57 53.6218 133.433 53.5101 133.274 53.4396C133.077 53.3539 132.864 53.3129 132.649 53.3196C132.421 53.3166 132.196 53.3625 131.987 53.4541C131.8 53.5392 131.633 53.6632 131.497 53.8178C131.358 53.9786 131.251 54.1652 131.184 54.3668C131.107 54.5892 131.065 54.8224 131.06 55.0578V58.0141H130.442V52.9196H131.06Z" fill="#002168"/>
<path d="M139.879 58.585C139.808 58.8653 139.675 59.1262 139.49 59.3486C139.305 59.5658 139.067 59.7323 138.8 59.8323C138.471 59.9491 138.124 60.0058 137.775 59.9995C137.522 60.0007 137.271 59.9701 137.026 59.9086C136.795 59.8547 136.575 59.7625 136.375 59.6359C136.182 59.5128 136.018 59.3505 135.892 59.1595C135.76 58.951 135.684 58.7116 135.673 58.465H136.291C136.316 58.6366 136.381 58.7998 136.48 58.9414C136.573 59.0674 136.69 59.1726 136.826 59.2505C136.965 59.3321 137.116 59.3911 137.273 59.425C137.438 59.4603 137.606 59.4773 137.775 59.4759C138.006 59.4995 138.24 59.4672 138.456 59.3818C138.672 59.2964 138.865 59.1603 139.018 58.985C139.301 58.5713 139.437 58.0743 139.403 57.5741V56.8868H139.381C139.244 57.1924 139.025 57.4542 138.749 57.6432C138.461 57.8355 138.121 57.9345 137.775 57.9268C137.417 57.9354 137.061 57.8672 136.731 57.7268C136.449 57.6013 136.199 57.4106 136.004 57.1705C135.815 56.9241 135.676 56.6422 135.597 56.3414C135.511 56.0089 135.468 55.6667 135.47 55.3232C135.468 54.9887 135.52 54.6561 135.623 54.3378C135.718 54.0408 135.868 53.7645 136.066 53.5232C136.264 53.2874 136.512 53.0997 136.793 52.9741C137.1 52.8342 137.434 52.7646 137.771 52.7705C137.952 52.7704 138.132 52.7973 138.305 52.8505C138.467 52.9014 138.62 52.9761 138.76 53.0723C138.895 53.1649 139.017 53.275 139.123 53.3996C139.227 53.5162 139.312 53.6488 139.374 53.7923H139.396V52.9196H140.014V57.5741C140.015 57.9156 139.97 58.2556 139.879 58.585ZM138.462 57.2359C138.662 57.1227 138.836 56.9677 138.971 56.7814C139.114 56.5885 139.218 56.37 139.28 56.1377C139.348 55.9013 139.383 55.6566 139.385 55.4105C139.385 55.1592 139.355 54.9089 139.294 54.665C139.239 54.425 139.143 54.1962 139.011 53.9887C138.883 53.7876 138.71 53.6194 138.505 53.4978C138.277 53.3684 138.019 53.303 137.756 53.3087C137.493 53.3009 137.232 53.3637 137 53.4905C136.794 53.6085 136.616 53.7713 136.48 53.9669C136.339 54.1703 136.236 54.3985 136.179 54.6396C136.118 54.892 136.087 55.1508 136.088 55.4105C136.089 55.6559 136.121 55.9002 136.182 56.1377C136.242 56.3698 136.346 56.5882 136.488 56.7814C136.626 56.9689 136.803 57.124 137.008 57.2359C137.239 57.3544 137.496 57.4132 137.756 57.4068C138.002 57.4104 138.245 57.3516 138.462 57.2359Z" fill="#002168"/>
<path d="M43.7353 45.0542C46.5525 40.6906 51.66 30.5816 59.294 17.8253H84.7768C79.0295 27.4434 70.1596 42.1379 70.1596 42.1379C62.7438 54.2796 53.6485 54.7778 39.4203 54.7778H31.9063C31.9063 54.7778 38.4533 53.225 43.7353 45.0542Z" fill="#002168"/>
<path d="M78.4588 3.78906H15.0934C11.7018 3.78906 7.45946 3.42543 3.0972 0C8.91354 13.1635 10.2186 24.858 30.3104 24.858H106.973C101.462 15.4581 98.547 3.78906 78.4588 3.78906ZM88.5029 14.5453C87.9277 14.5453 87.3655 14.3747 86.8872 14.0551C86.409 13.7354 86.0362 13.2811 85.8161 12.7495C85.596 12.218 85.5384 11.633 85.6506 11.0687C85.7628 10.5044 86.0398 9.98609 86.4465 9.57925C86.8532 9.17241 87.3714 8.89535 87.9356 8.7831C88.4997 8.67085 89.0844 8.72846 89.6158 8.94864C90.1472 9.16883 90.6014 9.54169 90.921 10.0201C91.2405 10.4985 91.4111 11.0609 91.4111 11.6363C91.4111 12.4078 91.1047 13.1477 90.5593 13.6933C90.0139 14.2389 89.2742 14.5453 88.5029 14.5453Z" fill="#002168"/>
<path d="M55.866 3.78906L43.03 24.858H63.1727C64.6559 14.3635 65.8737 6.20359 71.9772 3.78906H55.866Z" fill="#1D3568"/>
<path d="M28.5582 15.8835C35.9305 3.72361 45.4038 3.88361 59.6211 3.88361H70.3559C70.3559 3.88361 63.9434 4.57087 59.374 12.3308C54.8045 20.0908 41.4742 42.1306 41.4742 42.1306C34.0583 54.2723 24.963 54.7705 10.7348 54.7705H0C0 54.7705 6.54339 53.2178 11.8254 45.0469C14.788 40.4724 20.2736 29.5489 28.5582 15.8835Z" fill="#05225E"/>
</g>
</svg>
