<svg width="190" height="43" viewBox="0 0 190 43" fill="none" xmlns="http://www.w3.org/2000/svg">
<path fill-rule="evenodd" clip-rule="evenodd" d="M0 15.1386V0H14.9323L0 15.1386Z" fill="#576FAA"/>
<path fill-rule="evenodd" clip-rule="evenodd" d="M15.0852 31.7005H30.7451L42.414 19.8703V0H38.4729L27.3274 11.2995H11.6689L0 23.1297V43H3.9404L15.0852 31.7005ZM28.4346 26.0511H20.6583L36.8409 9.64566V17.5293L28.4346 26.0511ZM5.57241 25.4707V33.3551L21.755 16.9489H13.9787L5.57241 25.4707Z" fill="#576FAA"/>
<path fill-rule="evenodd" clip-rule="evenodd" d="M42.414 27.8622V43H27.4817L42.414 27.8622Z" fill="#576FAA"/>
<path d="M180.874 29.1056C178.936 29.1131 177.012 28.7673 175.195 28.0848C173.387 27.4043 171.714 26.3582 170.176 24.9464L172.886 21.6743C174.132 22.765 175.39 23.6008 176.66 24.1817C177.931 24.7626 179.372 25.0536 180.983 25.0545C182.376 25.0545 183.482 24.7577 184.299 24.1639C185.117 23.5702 185.526 22.7775 185.527 21.786V21.7148C185.536 21.2874 185.454 20.863 185.289 20.47C185.13 20.111 184.837 19.7705 184.409 19.4485C183.976 19.1263 183.39 18.8297 182.645 18.5572C181.901 18.2848 180.923 18.0123 179.726 17.7399C178.484 17.4574 177.262 17.0915 176.068 16.6444C175.006 16.2354 174.108 15.7403 173.387 15.1585C172.676 14.591 172.109 13.8593 171.733 13.0245C171.354 12.1832 171.165 11.1679 171.165 9.97856V9.90743C171.152 8.87265 171.365 7.84772 171.79 6.90667C172.214 5.96561 172.84 5.1319 173.621 4.46574C174.383 3.80989 175.301 3.29607 176.375 2.92428C177.443 2.55297 178.615 2.36731 179.883 2.36731C181.764 2.36731 183.455 2.64592 184.957 3.20313C186.489 3.77667 187.918 4.59826 189.19 5.63588L186.776 9.08513C185.603 8.21873 184.443 7.55648 183.295 7.09838C182.188 6.648 181.008 6.41481 179.815 6.41123C178.496 6.41123 177.47 6.70833 176.738 7.30253C176.005 7.89673 175.639 8.62727 175.638 9.49414V9.56528C175.629 10.0184 175.717 10.4681 175.894 10.8841C176.065 11.2673 176.377 11.6139 176.829 11.9241C177.287 12.2342 177.91 12.5251 178.704 12.7969C179.497 13.0686 180.51 13.3538 181.738 13.6505C182.954 13.9553 184.15 14.34 185.317 14.8021C186.355 15.2232 187.222 15.7368 187.906 16.3436C188.573 16.925 189.107 17.6475 189.47 18.4605C189.823 19.2667 190 20.2013 190 21.2645V21.34C190 22.5535 189.776 23.6442 189.329 24.6121C188.891 25.5601 188.25 26.3975 187.454 27.0633C186.66 27.7313 185.695 28.2392 184.577 28.5863C183.459 28.9334 182.22 29.1056 180.877 29.1056H180.874ZM150.832 29.1433C149.172 29.1433 147.67 28.9019 146.326 28.4191C145.03 27.968 143.852 27.2259 142.879 26.2481C141.926 25.2812 141.193 24.0859 140.678 22.6623C140.164 21.2387 139.907 19.5856 139.907 17.7029V2.73365H144.377V17.5165C144.377 19.9436 144.955 21.7886 146.11 23.0514C147.266 24.3143 148.862 24.9459 150.898 24.9464C152.913 24.9464 154.497 24.3396 155.649 23.1261C156.8 21.9126 157.378 20.1048 157.383 17.7029V2.73365H161.852V17.4796C161.852 19.4115 161.59 21.1081 161.064 22.5691C160.539 24.0302 159.801 25.2497 158.851 26.2275C157.898 27.2063 156.744 27.9368 155.389 28.4191C154.033 28.9014 152.514 29.1428 150.83 29.1433H150.832ZM113.825 2.73365H118.296V24.6121H131.779V28.7378H113.825V2.73365ZM85.4658 2.73365H104.444V6.85937H89.9352V13.5459H102.796V17.6716H89.9352V24.6121H104.627V28.7378H85.4658V2.73365ZM55.0182 25.354L70.1497 6.78255H55.4946V2.73365H76.0119V6.11745L60.8811 24.6832H76.0119V28.7378H55.0182V25.354Z" fill="#6E7D9F"/>
<path d="M187.127 35.8312H185.366V34.9143H189.871V35.8312H188.109V40.5459H187.127V35.8312ZM179.929 34.9143H180.897V39.6496H183.815V40.5459H179.929V34.9143ZM175.278 40.6298C174.946 40.6348 174.616 40.5821 174.302 40.4741C174.022 40.3762 173.767 40.2152 173.556 40.0032C173.343 39.7834 173.181 39.5186 173.081 39.2278C172.964 38.8826 172.908 38.5193 172.914 38.1544V34.9143H173.882V38.1153C173.882 38.6412 174.007 39.0405 174.257 39.3132C174.506 39.5858 174.852 39.7227 175.293 39.7236C175.73 39.7236 176.072 39.592 176.322 39.3295C176.571 39.067 176.697 38.6751 176.697 38.1558V34.9143H177.665V38.106C177.672 38.4804 177.614 38.853 177.494 39.2072C177.392 39.5033 177.228 39.7736 177.014 39.9996C176.804 40.2141 176.547 40.3765 176.265 40.4741C175.947 40.5823 175.613 40.6349 175.278 40.6298ZM168.952 40.622C168.533 40.6234 168.117 40.5487 167.723 40.4015C167.322 40.2473 166.953 40.0167 166.637 39.7222L167.223 39.0151C167.469 39.2349 167.745 39.4174 168.042 39.5572C168.337 39.687 168.656 39.7516 168.978 39.7464C169.278 39.7464 169.518 39.6819 169.695 39.5529C169.779 39.4968 169.847 39.4203 169.893 39.3303C169.94 39.2404 169.963 39.14 169.961 39.0386V39.0222C169.963 38.9299 169.945 38.8381 169.909 38.7533C169.865 38.6643 169.8 38.588 169.719 38.5321C169.601 38.4501 169.472 38.385 169.337 38.3386C169.13 38.2675 168.919 38.2086 168.705 38.1622C168.436 38.101 168.172 38.0219 167.913 37.9254C167.705 37.8489 167.509 37.7404 167.333 37.6038C167.179 37.4804 167.056 37.322 166.974 37.1415C166.888 36.933 166.846 36.7082 166.852 36.4821V36.4664C166.85 36.2374 166.898 36.0106 166.993 35.8027C167.085 35.6052 167.218 35.4297 167.383 35.2877C167.559 35.14 167.761 35.027 167.978 34.9548C168.224 34.8719 168.481 34.8308 168.739 34.8332C169.113 34.8275 169.484 34.8889 169.837 35.0146C170.167 35.1389 170.475 35.3167 170.749 35.541L170.226 36.2893C169.994 36.1141 169.741 35.9695 169.473 35.8589C169.233 35.7614 168.978 35.7109 168.719 35.7103C168.434 35.7103 168.212 35.7745 168.053 35.903C167.98 35.9574 167.92 36.0286 167.878 36.1109C167.837 36.1933 167.815 36.2844 167.815 36.3768V36.3939C167.813 36.4917 167.833 36.5887 167.871 36.6784C167.916 36.771 167.986 36.8489 168.073 36.9032C168.2 36.9832 168.336 37.0468 168.479 37.0924C168.652 37.1507 168.87 37.2126 169.135 37.278C169.399 37.3435 169.658 37.4267 169.911 37.527C170.115 37.6052 170.305 37.7178 170.472 37.8599C170.617 37.9858 170.732 38.1424 170.81 38.3187C170.891 38.5102 170.93 38.7168 170.925 38.9248V38.9411C170.929 39.1851 170.88 39.4269 170.78 39.6489C170.686 39.8542 170.547 40.0355 170.374 40.1796C170.191 40.3306 169.979 40.4426 169.752 40.5089C169.493 40.5863 169.224 40.6244 168.954 40.622H168.952ZM159.812 34.9143H160.715L163.682 38.806V34.9143H164.649V40.5459H163.832L160.777 36.5418V40.5459H159.812V34.9143ZM154.795 40.6384C154.393 40.6436 153.993 40.5656 153.621 40.4093C153.28 40.2652 152.969 40.0533 152.709 39.7862C152.454 39.5214 152.252 39.2091 152.114 38.8665C151.971 38.5105 151.898 38.1293 151.9 37.7447V37.7283C151.898 37.3437 151.971 36.9625 152.114 36.6065C152.254 36.2612 152.458 35.947 152.717 35.6818C152.991 35.4027 153.318 35.1824 153.677 35.0339C154.037 34.8854 154.422 34.8118 154.811 34.8176C155.213 34.8124 155.613 34.8903 155.985 35.0466C156.324 35.1895 156.632 35.3996 156.891 35.6646C157.15 35.9297 157.354 36.2443 157.491 36.5902C157.634 36.9463 157.705 37.3276 157.702 37.712V37.7283C157.705 38.1124 157.634 38.4935 157.491 38.8494C157.352 39.1949 157.147 39.5092 156.888 39.7741C156.625 40.0429 156.312 40.2575 155.968 40.4058C155.597 40.5642 155.198 40.6433 154.795 40.6384ZM154.811 39.73C155.071 39.7327 155.328 39.6791 155.566 39.5728C155.789 39.4727 155.989 39.3275 156.154 39.146C156.32 38.9622 156.45 38.748 156.536 38.5151C156.63 38.2692 156.678 38.0076 156.676 37.744V37.7276C156.677 37.4621 156.63 37.1987 156.536 36.9508C156.451 36.7154 156.32 36.4997 156.152 36.3165C155.983 36.1332 155.78 35.9861 155.554 35.8838C155.315 35.7752 155.057 35.7204 154.795 35.7231C154.536 35.7201 154.278 35.7735 154.04 35.8796C153.818 35.9799 153.618 36.1251 153.452 36.3064C153.287 36.4902 153.157 36.7043 153.07 36.9373C152.976 37.1835 152.929 37.4452 152.93 37.7091V37.7255C152.929 37.9905 152.977 38.2533 153.07 38.5008C153.157 38.7362 153.288 38.952 153.457 39.136C153.626 39.3165 153.828 39.4615 154.052 39.5628C154.29 39.6736 154.549 39.7306 154.811 39.73ZM147.954 40.6384C147.394 40.6478 146.844 40.4845 146.377 40.1701C145.91 39.8558 145.548 39.4051 145.339 38.8778C145.194 38.5184 145.121 38.1332 145.123 37.7447V37.7283C145.12 37.3412 145.191 36.9572 145.334 36.598C145.471 36.252 145.674 35.9368 145.932 35.6706C146.19 35.4044 146.497 35.1923 146.835 35.0466C147.201 34.8903 147.596 34.8123 147.993 34.8176C148.226 34.8158 148.458 34.8375 148.687 34.8823C148.885 34.9213 149.077 34.9818 149.262 35.063C149.432 35.1384 149.594 35.2313 149.745 35.3404C149.894 35.4484 150.034 35.5673 150.166 35.696L149.539 36.4273C149.328 36.2264 149.09 36.056 148.834 35.9208C148.57 35.7897 148.279 35.7238 147.985 35.7288C147.732 35.7261 147.482 35.7795 147.251 35.8853C147.031 35.9869 146.833 36.132 146.668 36.3121C146.502 36.4952 146.373 36.7096 146.288 36.943C146.197 37.1897 146.151 37.4513 146.153 37.7148V37.7312C146.151 37.9958 146.197 38.2585 146.288 38.5065C146.373 38.7426 146.502 38.96 146.668 39.1467C146.832 39.3274 147.031 39.4726 147.251 39.5735C147.482 39.6795 147.732 39.7331 147.985 39.7307C148.288 39.7388 148.587 39.6711 148.857 39.5337C149.12 39.388 149.363 39.2082 149.579 38.9988L150.206 39.639C150.068 39.7894 149.918 39.9277 149.758 40.0522C149.601 40.174 149.432 40.2794 149.254 40.3666C149.066 40.4574 148.867 40.5248 148.663 40.5672C148.43 40.6155 148.192 40.6394 147.954 40.6384ZM136.753 34.9143H140.861V35.807H137.72V37.2539H140.504V38.1459H137.72V39.6496H140.9V40.5459H136.753V34.9143ZM132.052 35.8312H130.294V34.9143H134.799V35.8312H133.038V40.5459H132.055L132.052 35.8312ZM125.465 34.8745H126.368L128.814 40.5459H127.782L127.221 39.1873H124.595L124.025 40.5459H123.026L125.465 34.8745ZM126.86 38.3073L125.901 36.056L124.949 38.3073H126.86ZM117.261 34.9143H121.368V35.807H118.227V37.2539H121.011V38.1459H118.227V39.6496H121.408V40.5459H117.261V34.9143ZM110.603 34.9143H113.077C113.392 34.9089 113.706 34.9592 114.004 35.063C114.256 35.1504 114.486 35.2915 114.678 35.477C114.827 35.6319 114.943 35.8152 115.02 36.0161C115.101 36.2316 115.141 36.4606 115.139 36.6912V36.7047C115.142 36.9167 115.108 37.1276 115.04 37.3278C114.916 37.6858 114.671 37.9881 114.349 38.1814C114.183 38.2828 114.003 38.3601 113.815 38.4112L115.313 40.5452H114.163L112.795 38.5833H111.57V40.5459H110.603V34.9143ZM113.002 37.7041C113.352 37.7041 113.633 37.6195 113.837 37.4495C113.939 37.3672 114.02 37.2619 114.074 37.142C114.127 37.0222 114.153 36.8911 114.147 36.7595V36.7438C114.147 36.4365 114.047 36.2037 113.845 36.0453C113.644 35.8853 113.36 35.807 112.993 35.807H111.57V37.7041H113.002ZM106.41 40.6384C105.85 40.6478 105.3 40.4845 104.833 40.1701C104.366 39.8558 104.004 39.4051 103.795 38.8778C103.65 38.5185 103.576 38.1332 103.579 37.7447V37.7283C103.576 37.3412 103.647 36.9572 103.79 36.598C103.927 36.2521 104.13 35.937 104.388 35.6708C104.645 35.4046 104.952 35.1925 105.291 35.0466C105.657 34.8903 106.051 34.8123 106.449 34.8176C106.682 34.8158 106.914 34.8375 107.143 34.8823C107.341 34.9213 107.533 34.9818 107.718 35.063C107.888 35.1384 108.05 35.2313 108.201 35.3404C108.35 35.4482 108.491 35.5671 108.622 35.696L107.995 36.4273C107.785 36.227 107.549 36.0566 107.294 35.9208C107.03 35.7896 106.739 35.7238 106.445 35.7288C106.192 35.7262 105.942 35.7796 105.712 35.8853C105.491 35.9868 105.293 36.1319 105.128 36.3121C104.962 36.4952 104.833 36.7095 104.748 36.943C104.657 37.1899 104.612 37.4514 104.613 37.7148V37.7312C104.612 37.9957 104.657 38.2584 104.748 38.5065C104.833 38.7427 104.962 38.96 105.128 39.1467C105.292 39.3276 105.491 39.4728 105.712 39.5735C105.942 39.6795 106.192 39.7331 106.445 39.7307C106.747 39.739 107.047 39.6713 107.317 39.5337C107.58 39.3882 107.823 39.2084 108.04 38.9988L108.666 39.639C108.528 39.7892 108.378 39.9275 108.218 40.0522C108.061 40.174 107.892 40.2794 107.714 40.3666C107.526 40.4574 107.327 40.5248 107.123 40.5672C106.889 40.6157 106.651 40.6395 106.412 40.6384H106.41ZM95.2122 34.9143H99.3203V35.807H96.1798V37.2539H98.9632V38.1459H96.1798V39.6496H99.3596V40.5459H95.2122V34.9143ZM88.5544 34.9143H91.0284C91.344 34.9089 91.6581 34.9592 91.9566 35.063C92.2078 35.1505 92.4375 35.2917 92.6302 35.477C92.7783 35.6319 92.8945 35.8152 92.9719 36.0161C93.0529 36.2316 93.0931 36.4606 93.0905 36.6912V36.7047C93.0936 36.9167 93.0601 37.1276 92.9916 37.3278C92.9289 37.5062 92.8364 37.6723 92.7179 37.8187C92.6001 37.9618 92.4595 38.084 92.3019 38.18C92.1345 38.2814 91.9541 38.3587 91.7658 38.4098L93.2652 40.5438H92.1145L90.747 38.5819H89.5213V40.5459H88.5544V34.9143ZM90.9533 37.7041C91.3032 37.7041 91.5817 37.6192 91.789 37.4495C91.8906 37.3673 91.9716 37.262 92.0256 37.1421C92.0796 37.0222 92.105 36.8912 92.0998 36.7595V36.7438C92.0998 36.4365 91.9987 36.2037 91.7967 36.0453C91.5953 35.8853 91.3119 35.807 90.9449 35.807H89.5213V37.7041H90.9533ZM83.9025 40.6298C83.5711 40.6348 83.2412 40.5821 82.9273 40.4741C82.6468 40.3762 82.3918 40.2152 82.1814 40.0032C81.9682 39.7836 81.8057 39.5188 81.7057 39.2278C81.589 38.8826 81.5327 38.5193 81.5394 38.1544V34.9143H82.507V38.1153C82.507 38.6412 82.6319 39.0405 82.8817 39.3132C83.1315 39.5858 83.4769 39.7227 83.918 39.7236C84.3544 39.7236 84.6973 39.5922 84.9466 39.3295C85.1959 39.0668 85.321 38.6756 85.322 38.1558V34.9143H86.2895V38.106C86.2965 38.4804 86.2388 38.853 86.119 39.2072C86.0172 39.5033 85.8535 39.7736 85.6391 39.9996C85.4287 40.2141 85.1722 40.3765 84.8898 40.4741C84.5713 40.5824 84.237 40.635 83.9011 40.6298H83.9025ZM76.9269 35.8312H75.1665V34.9143H79.671V35.8312H77.9106V40.5459H76.9283L76.9269 35.8312ZM69.3394 34.9143H71.5285C71.8257 34.9103 72.1216 34.955 72.4048 35.0466C72.6504 35.126 72.8771 35.2561 73.0707 35.4286C73.2522 35.5932 73.3959 35.7962 73.4917 36.0233C73.5924 36.2678 73.6423 36.5308 73.6383 36.7958V36.8114C73.6446 37.0988 73.5848 37.3838 73.4636 37.6437C73.351 37.8769 73.1882 38.0816 72.9872 38.2426C72.7759 38.408 72.5361 38.532 72.2799 38.6082C71.9988 38.6932 71.7068 38.7354 71.4134 38.7334H70.3041V40.5459H69.3394V34.9143ZM71.4443 37.8407C71.8147 37.8407 72.1094 37.7468 72.3227 37.5562C72.4272 37.4676 72.5104 37.3562 72.5662 37.2302C72.622 37.1043 72.6489 36.9672 72.6448 36.8292V36.8135C72.6448 36.4799 72.5367 36.2274 72.3185 36.0588C72.1003 35.8902 71.8098 35.8049 71.4443 35.8049H70.3041V37.8428L71.4443 37.8407ZM64.1157 34.8745H65.0201L67.4639 40.5459H66.4325L65.8712 39.1873H63.2449L62.6738 40.5459H61.674L64.1157 34.8745ZM65.5112 38.3073L64.5507 36.056L63.5993 38.3073H65.5112ZM57.9553 40.6384C57.3949 40.6478 56.8448 40.4845 56.3779 40.1701C55.911 39.8558 55.5491 39.4051 55.3403 38.8778C55.1949 38.5184 55.1214 38.1332 55.1242 37.7447V37.7283C55.1207 37.3412 55.1922 36.9572 55.3347 36.598C55.4717 36.2519 55.6748 35.9367 55.9324 35.6705C56.1899 35.4042 56.4968 35.1922 56.8355 35.0466C57.202 34.8903 57.5963 34.8123 57.9939 34.8176C58.2267 34.8158 58.4592 34.8375 58.6878 34.8823C58.8853 34.9211 59.078 34.9816 59.2624 35.063C59.4328 35.1383 59.595 35.2313 59.7466 35.3404C59.8951 35.4486 60.0358 35.5674 60.1675 35.696L59.5403 36.4273C59.3303 36.2269 59.0942 36.0565 58.8386 35.9208C58.5749 35.7897 58.2841 35.7238 57.9904 35.7288C57.7374 35.7261 57.4869 35.7795 57.2564 35.8853C57.036 35.9868 56.8378 36.1319 56.6734 36.3121C56.5073 36.4952 56.3781 36.7096 56.2931 36.943C56.2023 37.1898 56.1567 37.4514 56.1584 37.7148V37.7312C56.1569 37.9957 56.2025 38.2584 56.2931 38.5065C56.3782 38.7426 56.5074 38.96 56.6734 39.1467C56.8372 39.3276 57.0356 39.4728 57.2564 39.5735C57.4869 39.6795 57.7374 39.7331 57.9904 39.7307C58.2926 39.7388 58.5922 39.6711 58.8625 39.5337C59.125 39.3882 59.3675 39.2084 59.5838 38.9988L60.211 39.639C60.0735 39.7894 59.9235 39.9277 59.7627 40.0522C59.6057 40.174 59.4369 40.2794 59.2589 40.3666C59.0707 40.4574 58.8723 40.5248 58.6681 40.5672C58.4336 40.6158 58.1947 40.6397 57.9553 40.6384Z" fill="#6E7D9F"/>
</svg>
