<svg width="156" height="82" viewBox="0 0 156 82" fill="none" xmlns="http://www.w3.org/2000/svg">
<path fill-rule="evenodd" clip-rule="evenodd" d="M26.6427 72.5965C21.754 60.7394 43.6289 40.7938 75.5115 28.0486C89.9728 22.2655 104.009 18.9579 115.483 18.1782C102.803 17.1491 84.6344 20.5272 65.7353 28.2008C33.856 41.1395 11.9789 61.3904 16.8676 73.4276C19.9999 81.1458 33.3772 83.6157 50.9742 80.9848C38.3207 81.4892 29.1653 78.7174 26.6427 72.5965Z" fill="#576FAA"/>
<path fill-rule="evenodd" clip-rule="evenodd" d="M36.6438 71.9868C32.1802 60.7059 52.1611 41.7312 81.2727 29.6068C87.4361 27.025 93.7757 24.8861 100.243 23.2063C92.7292 24.7275 84.5818 27.1549 76.2722 30.4771C47.1583 42.1171 27.1841 60.3356 31.6421 71.168C33.2787 75.1323 37.9638 77.5585 44.6748 78.4691C40.6475 77.1536 37.8352 75.0014 36.6438 71.9812V71.9868ZM26.0475 48.9439C23.4343 51.3623 20.3053 54.6353 17.8934 58.2953L20.4586 46.3174L0 27.9569L27.3441 25.1291L38.4829 0L49.625 25.1291L62.726 26.4848C49.8499 31.9212 36.2243 39.5242 26.0475 48.9439Z" fill="#5474C1"/>
<path fill-rule="evenodd" clip-rule="evenodd" d="M54.9276 30.014C38.8655 34.5118 24.9915 40.6988 18.5109 57.3926C20.8244 54.0972 23.6569 51.162 26.052 48.9428C34.1849 41.4135 44.5238 35.0443 54.9276 30.014Z" fill="#5474C1"/>
<path fill-rule="evenodd" clip-rule="evenodd" d="M77.1157 38.3956C71.6341 38.3956 66.5206 41.5534 66.5206 47.2492C66.5206 51.0233 69.3173 52.8008 74.14 54.0346C76.7521 54.7236 77.769 55.8489 77.769 56.9742C77.769 58.5693 76.1368 59.6589 74.14 59.6589C72.1811 59.6589 70.4035 58.6432 70.4035 56.2852H63.8771C63.2954 61.9095 67.3976 64.4509 73.4576 64.4509C79.2982 64.4509 84.7776 61.5124 84.7776 55.6711C84.7776 52.5144 82.8188 50.1195 78.2478 48.9942C74.6915 48.124 73.5292 47.1799 73.5292 45.8376C73.5292 44.097 74.7989 43.1887 76.5049 43.1887C78.6449 43.1887 79.4806 44.5668 79.4079 46.6362H85.9399C86.1938 41.9919 83.726 38.3989 77.1213 38.3989L77.1157 38.3956ZM156 44.5635C156 41.0097 153.388 39.4493 150.231 39.0824C148.941 38.9434 147.645 38.8829 146.348 38.9012H136.405L135.51 43.9807H144.571C145.261 43.9807 145.841 43.9807 146.313 44.0176C147.768 44.1295 148.886 44.634 148.886 46.266C148.886 48.8063 147.072 49.5323 145.148 49.6777C144.891 49.6967 144.601 49.7056 144.279 49.7101C144.012 49.7101 143.72 49.7101 143.409 49.7101H134.494L131.978 63.9363H138.509L140.178 54.4283H141.666C142.391 54.4283 142.973 54.4283 143.699 54.4652C145.223 54.5771 146.02 55.9888 146.02 58.3803C146.02 61.2473 146.094 62.5884 146.275 63.9308H153.387C152.842 62.7327 152.552 61.1734 152.552 59.1063C152.552 55.1509 151.827 53.01 149.576 52.0301C153.786 50.9417 155.999 48.3656 155.999 44.5545L156 44.5635ZM122.001 57.4452L122.945 63.9397H130.056L125.666 38.9045H117.212L104.001 63.9397H110.937C114.044 57.6204 117.139 51.2952 120.222 44.9639L121.274 52.3657H118.409L115.948 57.4452H122.001ZM110.243 43.9841H102.152L98.6325 63.9397H92.1005L95.621 43.9841H87.4546L88.3977 38.9045H111.186L110.243 43.9841Z" fill="#576FAA"/>
<path fill-rule="evenodd" clip-rule="evenodd" d="M52.1823 68.083C50.9663 68.083 49.8331 68.7832 49.8331 70.0472C49.8331 70.8828 50.4529 71.2776 51.5234 71.5517C52.1018 71.7038 52.3267 71.9533 52.3267 72.2038C52.3267 72.5573 51.9664 72.7989 51.5234 72.7989C51.0804 72.7989 50.6934 72.5752 50.6934 72.0506H49.2436C49.1149 73.2978 50.0266 73.8616 51.3691 73.8616C52.6645 73.8616 53.8794 73.2095 53.8794 71.913C53.8794 71.2139 53.4442 70.6826 52.4307 70.4331C51.6476 70.2396 51.3847 70.0304 51.3847 69.7329C51.3847 69.3458 51.6655 69.1456 52.0448 69.1456C52.5191 69.1456 52.7048 69.4521 52.688 69.9107H54.1423C54.1993 68.8794 53.6501 68.083 52.1868 68.083H52.1823ZM64.0886 72.5249H61.2784L62.0436 68.1959H60.596L59.6138 73.7486H63.8704L64.0886 72.5249ZM73.1197 68.083C71.3175 68.083 69.8856 69.3626 69.8856 71.4555C69.8856 72.8302 70.8432 73.8616 72.5414 73.8616C74.3436 73.8616 75.7766 72.5819 75.7766 70.4902C75.7766 69.1132 74.819 68.083 73.1197 68.083ZM72.5883 72.7989C71.8165 72.7989 71.4148 72.2273 71.4148 71.4141C71.4148 70.3772 71.9529 69.1456 73.0727 69.1456C73.8458 69.1456 74.2474 69.7172 74.2474 70.5293C74.2474 71.5674 73.7082 72.7989 72.5883 72.7989ZM85.0505 68.083C83.321 68.083 81.6385 69.3056 81.6385 71.6244C81.6385 73.0786 82.4596 73.8616 83.7316 73.8616C84.3189 73.8616 84.7127 73.7721 85.0673 73.507L85.4208 72.8873L85.4052 73.7486H86.5306L87.0552 70.7877H84.6075L84.4073 71.913H85.4857C85.1803 72.5249 84.7608 72.7989 84.1981 72.7989C83.6354 72.7989 83.1767 72.4376 83.1767 71.4566C83.1767 69.9186 83.9967 69.1467 84.8548 69.1467C85.4421 69.1467 85.7497 69.4286 85.7721 70.0237V70.1042H87.2197L87.2275 70.0237C87.3092 68.9286 86.6402 68.0841 85.055 68.0841L85.0505 68.083ZM96.3191 72.3079L96.5272 73.7486H98.109L97.1368 68.1959H95.2597L92.3298 73.7486H93.8669L94.5751 72.3079H96.3191ZM95.1221 71.1814L95.9264 69.5394L96.1602 71.1814H95.1221ZM108.646 68.1959L107.975 72.0349L106.583 68.1959H104.79L103.814 73.7486H105.257L105.902 70.0707L107.23 73.7486H109.12L110.102 68.1959H108.646ZM122.537 68.1959H121.082L120.68 70.4656H118.469L118.87 68.1959H117.415L116.436 73.7486H117.883L118.261 71.592H120.483L120.105 73.7486H121.553L122.534 68.1959H122.537ZM130.073 69.3223H132.802L133.002 68.1959H128.827L127.845 73.7486H132.101L132.302 72.6222H129.494L129.687 71.5271H132.26L132.461 70.4007H129.888L130.073 69.3223ZM143.498 69.4521C143.498 68.6691 142.918 68.3167 142.219 68.2362C141.933 68.2053 141.645 68.1918 141.357 68.1959H139.151L138.17 73.7486H139.619L139.989 71.639H140.325C140.485 71.639 140.614 71.639 140.772 71.6479C141.108 71.6725 141.288 71.9835 141.288 72.517C141.278 72.928 141.297 73.3392 141.344 73.7475H142.92C142.784 73.4078 142.721 73.0429 142.736 72.677C142.736 71.8 142.575 71.3257 142.076 71.111C143.01 70.8705 143.5 70.2978 143.5 69.4543L143.498 69.4521ZM140.174 70.5942L140.398 69.3223H140.957C141.11 69.3223 141.239 69.3223 141.343 69.3302C141.665 69.3548 141.915 69.4678 141.915 69.8302C141.915 70.3895 141.513 70.5539 141.086 70.5864C140.982 70.5942 140.853 70.5942 140.7 70.5942H140.174ZM151.042 69.3223H153.769L153.972 68.1959H149.795L148.812 73.7486H153.07L153.27 72.6222H150.464L150.657 71.5271H153.223L153.425 70.4007H150.859L151.042 69.3223Z" fill="#576FAA"/>
</svg>
