<svg width="118" height="118" viewBox="0 0 118 118" fill="none" xmlns="http://www.w3.org/2000/svg">
<rect opacity="0.1" x="0.5" y="0.5" width="117" height="117" rx="58.5" stroke="white"/>
<rect opacity="0.3" x="8.82812" y="8.83008" width="100.341" height="100.341" rx="50.1706" stroke="white"/>
<g opacity="0.8" filter="url(#filter0_bd_4249_1076)">
<rect x="18.0469" y="16.6582" width="83.2941" height="83.2941" rx="41.6471" fill="url(#paint0_linear_4249_1076)"/>
<rect x="18.5469" y="17.1582" width="82.2941" height="82.2941" rx="41.1471" stroke="url(#paint1_linear_4249_1076)" stroke-opacity="0.8"/>
</g>
<path d="M74 57.7679C75.3333 58.5378 75.3333 60.4622 74 61.232L53.75 72.9234C52.4167 73.6932 50.75 72.7309 50.75 71.1913L50.75 47.8087C50.75 46.2691 52.4167 45.3068 53.75 46.0766L74 57.7679Z" fill="white"/>
<defs>
<filter id="filter0_bd_4249_1076" x="-1.95312" y="-3.3418" width="123.294" height="123.295" filterUnits="userSpaceOnUse" color-interpolation-filters="sRGB">
<feFlood flood-opacity="0" result="BackgroundImageFix"/>
<feGaussianBlur in="BackgroundImageFix" stdDeviation="10"/>
<feComposite in2="SourceAlpha" operator="in" result="effect1_backgroundBlur_4249_1076"/>
<feColorMatrix in="SourceAlpha" type="matrix" values="0 0 0 0 0 0 0 0 0 0 0 0 0 0 0 0 0 0 127 0" result="hardAlpha"/>
<feOffset dx="-8" dy="-1"/>
<feGaussianBlur stdDeviation="5"/>
<feComposite in2="hardAlpha" operator="out"/>
<feColorMatrix type="matrix" values="0 0 0 0 1 0 0 0 0 1 0 0 0 0 1 0 0 0 0.1 0"/>
<feBlend mode="normal" in2="effect1_backgroundBlur_4249_1076" result="effect2_dropShadow_4249_1076"/>
<feBlend mode="normal" in="SourceGraphic" in2="effect2_dropShadow_4249_1076" result="shape"/>
</filter>
<linearGradient id="paint0_linear_4249_1076" x1="59.6939" y1="16.6582" x2="59.6939" y2="99.9523" gradientUnits="userSpaceOnUse">
<stop stop-color="#0055FF"/>
<stop offset="1" stop-color="#0055FF"/>
</linearGradient>
<linearGradient id="paint1_linear_4249_1076" x1="62.01" y1="19.1225" x2="76.1773" y2="33.5617" gradientUnits="userSpaceOnUse">
<stop stop-color="white" stop-opacity="0.45"/>
<stop offset="1" stop-color="white" stop-opacity="0.1"/>
</linearGradient>
</defs>
</svg>
