<svg width="194" height="194" viewBox="0 0 194 194" fill="none" xmlns="http://www.w3.org/2000/svg">
<path d="M96.0246 1.31825C96.2594 0.278692 97.7406 0.278688 97.9754 1.31824L111.305 60.3296C111.457 61.0034 112.231 61.3236 112.815 60.9548L163.967 28.653C164.869 28.084 165.916 29.1314 165.347 30.0325L133.045 81.1855C132.676 81.7695 132.997 82.5426 133.67 82.6948L192.682 96.0246C193.721 96.2594 193.721 97.7406 192.682 97.9754L133.67 111.305C132.997 111.457 132.676 112.231 133.045 112.815L165.347 163.967C165.916 164.869 164.869 165.916 163.967 165.347L112.815 133.045C112.231 132.676 111.457 132.997 111.305 133.67L97.9754 192.682C97.7406 193.721 96.2594 193.721 96.0246 192.682L82.6948 133.67C82.5426 132.997 81.7695 132.676 81.1855 133.045L30.0325 165.347C29.1314 165.916 28.084 164.869 28.653 163.967L60.9548 112.815C61.3236 112.231 61.0034 111.457 60.3297 111.305L1.31825 97.9754C0.278692 97.7406 0.278688 96.2594 1.31824 96.0246L60.3296 82.6948C61.0034 82.5426 61.3236 81.7695 60.9548 81.1855L28.653 30.0325C28.084 29.1314 29.1314 28.084 30.0325 28.653L81.1855 60.9548C81.7695 61.3236 82.5426 61.0034 82.6948 60.3297L96.0246 1.31825Z" fill="#0055FF"/>
</svg>
