<svg width="188" height="22" viewBox="0 0 188 22" fill="none" xmlns="http://www.w3.org/2000/svg">
<path d="M54.6014 6.20552V15.8183H56.9981C57.6098 15.8092 58.2134 15.6775 58.7733 15.4311C59.3332 15.1846 59.838 14.8284 60.2578 14.3834C61.1194 13.4712 61.5909 12.2586 61.5717 11.004C61.59 10.3808 61.4849 9.76011 61.2626 9.17764C61.0402 8.59517 60.705 8.06237 60.2761 7.60985C59.8546 7.16427 59.3463 6.80969 58.7825 6.56797C58.2188 6.32624 57.6115 6.20247 56.9981 6.2043H54.6026L54.6014 6.20552ZM56.9981 3.19152C61.4654 3.19152 64.8448 6.65285 64.8448 11.004C64.8448 15.3551 61.4654 18.836 56.9981 18.836H51.712C51.6616 18.8353 51.6118 18.8248 51.5655 18.8049C51.5192 18.785 51.4773 18.7562 51.4421 18.7201C51.4069 18.684 51.3792 18.6413 51.3605 18.5945C51.3418 18.5477 51.3325 18.4977 51.3331 18.4473V3.59607C51.3331 3.38096 51.503 3.20618 51.712 3.20618L56.9981 3.19152ZM76.3594 16.1532C78.3882 16.1593 80.2204 14.9114 81.0014 12.9913C81.3839 12.0532 81.4862 11.0242 81.2957 10.0291C81.1052 9.03399 80.6302 8.11551 79.9283 7.38496C79.2386 6.66641 78.3471 6.174 77.3716 5.9728C76.3962 5.7716 75.3826 5.87107 74.4649 6.25807C72.59 7.05007 71.3654 8.92374 71.3617 11.004C71.3617 13.8395 73.5959 16.1397 76.3606 16.1532H76.3594ZM76.3606 2.83707C81.0625 2.83707 84.657 6.54285 84.657 11.004C84.657 15.4651 81.0625 19.1709 76.3594 19.1709C71.6575 19.1709 68.0935 15.4834 68.0935 11.004C68.0935 6.52452 71.688 2.83707 76.3594 2.83707H76.3606ZM96.0787 16.1532C98.8446 16.1459 101.082 13.8432 101.08 11.0076C101.076 8.16963 98.8336 5.87185 96.0689 5.87063C93.3018 5.87063 91.0578 8.16718 91.0541 11.004C91.0541 12.3704 91.5834 13.6806 92.5257 14.6462C92.9869 15.122 93.5389 15.5006 94.1489 15.7594C94.759 16.0182 95.4148 16.1521 96.0775 16.1532H96.0787ZM96.0775 2.83707C100.765 2.83707 104.359 6.52452 104.359 11.004C104.359 15.4834 100.75 19.1709 96.0775 19.1709C91.4061 19.1709 87.781 15.4834 87.781 11.004C87.781 6.52452 91.3756 2.83707 96.0775 2.83707ZM115.323 6.20552H111.943V10.3427H115.323C115.59 10.3546 115.856 10.3116 116.106 10.2163C116.356 10.1211 116.583 9.97569 116.775 9.78907C117.166 9.41018 117.388 8.88463 117.393 8.33219C117.403 8.05191 117.356 7.77254 117.255 7.51085C117.154 7.24915 117.002 7.01052 116.806 6.8093C116.615 6.61126 116.384 6.45556 116.128 6.35221C115.872 6.24885 115.598 6.20013 115.323 6.20919V6.20552ZM108.674 3.59607C108.674 3.38096 108.845 3.20618 109.054 3.20618H115.417C118.45 3.20618 120.645 5.48563 120.645 8.34807C120.669 10.2841 119.611 12.0624 117.923 12.929L120.858 18.2493C120.899 18.3104 120.921 18.3816 120.924 18.455C120.927 18.5284 120.909 18.601 120.873 18.6649C120.837 18.7277 120.785 18.7791 120.721 18.8129C120.657 18.8467 120.585 18.8615 120.513 18.8555H117.938C117.867 18.8565 117.796 18.8373 117.735 18.8001C117.674 18.7629 117.625 18.7093 117.593 18.6453L114.765 13.38H111.931V18.4351C111.932 18.4856 111.923 18.5357 111.904 18.5827C111.885 18.6296 111.858 18.6725 111.822 18.7087C111.787 18.7449 111.745 18.7738 111.699 18.7938C111.652 18.8137 111.603 18.8243 111.552 18.825H109.071C109.02 18.8243 108.971 18.8137 108.924 18.7938C108.878 18.7738 108.836 18.7449 108.801 18.7087C108.765 18.6725 108.738 18.6296 108.719 18.5827C108.7 18.5357 108.691 18.4856 108.692 18.4351L108.675 3.5973L108.674 3.59607ZM129.167 6.27885V15.8929H131.562C132.174 15.8846 132.777 15.7537 133.338 15.5081C133.898 15.2625 134.403 14.9071 134.823 14.4629C135.685 13.5517 136.157 12.34 136.139 11.0859C136.159 10.4619 136.055 9.84023 135.833 9.25667C135.612 8.6731 135.277 8.13917 134.848 7.68563C134.425 7.23929 133.916 6.88428 133.351 6.64253C132.786 6.40078 132.178 6.27742 131.563 6.28007L129.167 6.27885ZM131.562 3.26118C136.029 3.26118 139.409 6.72619 139.409 11.0859C139.409 15.4455 136.029 18.9105 131.562 18.9105H126.292C126.242 18.9099 126.192 18.8993 126.145 18.8793C126.099 18.8594 126.057 18.8305 126.022 18.7942C125.986 18.758 125.959 18.7152 125.94 18.6682C125.922 18.6213 125.912 18.5711 125.913 18.5206V3.67063C125.913 3.4543 126.083 3.27952 126.292 3.27952L131.563 3.26118H131.562ZM149.377 7.0843L147.523 12.225H151.228L149.377 7.0843ZM146.435 15.1302L145.222 18.5524C145.197 18.6329 145.147 18.7031 145.078 18.7517C145.01 18.8004 144.927 18.8249 144.843 18.8213H142.21C142.143 18.8275 142.076 18.8156 142.015 18.7868C141.954 18.758 141.902 18.7133 141.864 18.6575C141.826 18.601 141.803 18.5356 141.797 18.4675C141.791 18.3994 141.803 18.331 141.831 18.2689L147.52 3.4323C147.546 3.35406 147.597 3.28663 147.666 3.2403C147.734 3.19396 147.816 3.17125 147.898 3.17563H150.844C150.927 3.17098 151.009 3.19356 151.077 3.23991C151.146 3.28627 151.198 3.35384 151.224 3.4323L156.912 18.2689C156.941 18.3311 156.952 18.3996 156.946 18.4677C156.94 18.5358 156.917 18.6012 156.878 18.6575C156.84 18.7131 156.788 18.7575 156.727 18.7861C156.667 18.8147 156.599 18.8265 156.532 18.8201H153.901C153.817 18.8237 153.734 18.7992 153.665 18.7505C153.597 18.7018 153.546 18.6317 153.522 18.5512L152.308 15.129H146.435V15.1302ZM159.964 7.41796C159.964 4.9613 162.035 2.83707 165.304 2.83707C167.065 2.79776 168.769 3.45636 170.046 4.66918C170.085 4.70597 170.116 4.7503 170.137 4.79948C170.159 4.84866 170.17 4.90164 170.17 4.95518C170.17 5.00873 170.159 5.06171 170.137 5.11089C170.116 5.16007 170.085 5.2044 170.046 5.24118L168.588 6.72618C168.553 6.76226 168.512 6.79095 168.465 6.81054C168.419 6.83014 168.37 6.84023 168.319 6.84023C168.269 6.84023 168.22 6.83014 168.173 6.81054C168.127 6.79095 168.085 6.76226 168.05 6.72618C167.364 6.08247 166.462 5.71774 165.52 5.70319C164.213 5.70319 163.246 6.48174 163.246 7.38007C163.246 10.2841 170.974 8.60841 170.974 14.1964C170.97 17.0283 168.884 19.1709 165.195 19.1709C164.171 19.1813 163.155 18.9857 162.208 18.5956C161.261 18.2055 160.402 17.6288 159.682 16.9C159.643 16.8632 159.612 16.8188 159.591 16.7697C159.57 16.7205 159.559 16.6675 159.559 16.614C159.559 16.5604 159.57 16.5074 159.591 16.4583C159.612 16.4091 159.643 16.3647 159.682 16.328L161.092 14.8809C161.127 14.843 161.17 14.8128 161.217 14.7922C161.265 14.7716 161.316 14.7609 161.367 14.7609C161.419 14.7609 161.47 14.7716 161.517 14.7922C161.565 14.8128 161.607 14.843 161.642 14.8809C162.53 15.7608 163.726 16.2605 164.975 16.2742C166.609 16.2742 167.686 15.3795 167.686 14.2587C167.686 11.3535 159.962 13.0304 159.962 7.44118L159.964 7.41796ZM184.988 3.57652V9.44807H178.447V3.57652C178.447 3.52612 178.438 3.47609 178.419 3.42928C178.401 3.38247 178.373 3.3398 178.338 3.30371C178.303 3.26761 178.261 3.23881 178.214 3.21893C178.168 3.19905 178.118 3.18849 178.068 3.18785H175.587C175.536 3.18849 175.487 3.19905 175.44 3.21893C175.394 3.23881 175.352 3.26761 175.317 3.30371C175.282 3.3398 175.254 3.38247 175.235 3.42928C175.216 3.47609 175.207 3.52612 175.208 3.57652V18.4106C175.208 18.6257 175.379 18.8005 175.587 18.8005H178.068C178.276 18.8005 178.447 18.6257 178.447 18.4106V12.4462H184.983V18.4106C184.983 18.6257 185.154 18.8005 185.362 18.8005H187.843C188.052 18.8005 188.222 18.6257 188.222 18.4106V3.57652C188.223 3.52612 188.213 3.47609 188.195 3.42928C188.176 3.38247 188.148 3.3398 188.113 3.30371C188.078 3.26761 188.036 3.23881 187.99 3.21893C187.943 3.19905 187.894 3.18849 187.843 3.18785H185.362C185.261 3.19042 185.165 3.23265 185.095 3.3054C185.025 3.37815 184.987 3.47556 184.988 3.57652ZM37.4059 5.16785C35.685 1.97785 32.3178 -0.00825989 28.656 0.00396234H0.950688C0.763587 0.00472181 0.580845 0.0605211 0.425232 0.164407C0.26962 0.268294 0.148018 0.415674 0.0755769 0.588185C0.0041948 0.759589 -0.0143962 0.9484 0.0221849 1.13043C0.0587661 1.31247 0.148854 1.47944 0.28091 1.60996L6.31624 7.59885C6.84913 8.1293 7.57513 8.4263 8.33047 8.4263H27.8616C29.2537 8.41163 30.3916 9.51407 30.4062 10.8866C30.4209 12.2592 29.305 13.3836 27.9129 13.3971H14.4477C14.2604 13.3972 14.0774 13.4524 13.9213 13.5558C13.7652 13.6593 13.6431 13.8064 13.5701 13.9789C13.4981 14.1505 13.479 14.3397 13.5154 14.5222C13.5517 14.7047 13.6419 14.8722 13.7742 15.0031L19.8132 20.9969C20.3495 21.527 21.0734 21.824 21.8275 21.8231H27.9178C35.8415 21.8231 41.8328 13.4631 37.4059 5.16419" fill="#141416"/>
</svg>
