<svg width="125" height="36" viewBox="0 0 125 36" fill="none" xmlns="http://www.w3.org/2000/svg">
<path d="M6.42617 0.288254C3.8706 1.35798 1.06117 4.38009 0.173863 8.1735C-0.949845 12.9799 3.72643 15.0124 4.10998 14.3459C4.56141 13.5629 3.27204 13.2981 3.00664 10.8043C2.66362 7.58338 4.16102 3.98436 6.04556 2.40521C6.39586 2.11182 6.37919 2.52017 6.37919 3.2755C6.37919 4.62619 6.30456 16.7515 6.30456 19.282C6.30456 22.7062 6.16313 23.7874 5.90912 24.8559C5.65176 25.9387 5.238 26.6703 5.55153 26.9521C5.90181 27.2673 7.3974 26.5175 8.26322 25.3091C9.30147 23.8598 9.6649 22.1192 9.73015 20.2291C9.80896 17.9505 9.8056 14.3349 9.80896 12.2726C9.81212 10.3811 9.84082 4.84252 9.77581 1.51292C9.75987 0.69624 7.49492 -0.160579 6.42605 0.287261L6.42617 0.288254ZM97.1745 16.3131C97.0921 18.0932 96.698 19.4846 96.209 20.466C95.2622 22.3661 93.2976 22.956 92.4635 20.2247C92.0089 18.7358 91.9877 16.2493 92.3145 14.1716C92.6472 12.0551 93.5761 10.4566 95.1143 10.6008C96.6314 10.7433 97.3416 12.6983 97.1745 16.3131ZM71.5978 27.3575C71.5772 30.3153 71.1117 32.9086 70.1135 33.6619C68.6976 34.7299 66.7946 33.9288 67.1887 31.7704C67.5373 29.8605 69.1862 27.91 71.6018 25.5267C71.6018 25.5267 71.6068 26.0702 71.5978 27.3575ZM71.2111 16.2958C71.1246 17.9172 70.7042 19.546 70.2457 20.4663C69.2991 22.3663 67.3202 22.9602 66.5002 20.2249C65.9395 18.356 66.0737 15.9372 66.3512 14.4131C66.7112 12.4357 67.5838 10.6012 69.1509 10.6012C70.6746 10.6012 71.4259 12.2727 71.2111 16.2958ZM56.3946 16.271C56.3017 17.9882 55.9667 19.4237 55.4291 20.4663C54.4564 22.3532 52.5322 22.9516 51.6836 20.2249C51.0718 18.2588 51.2801 15.5778 51.5346 14.1296C51.9122 11.9805 52.858 10.4568 54.3343 10.6012C55.8509 10.7494 56.5881 12.6983 56.3946 16.271ZM124.296 18.2768C123.925 18.2768 123.756 18.6589 123.616 19.3021C123.13 21.5387 122.62 22.0437 121.962 22.0437C121.227 22.0437 120.566 20.9362 120.396 18.7193C120.263 16.9762 120.284 13.7669 120.455 10.5745C120.49 9.91862 120.309 9.26965 118.55 8.63055C117.793 8.35565 116.692 7.95088 116.144 9.27343C114.596 13.0099 113.991 15.9763 113.848 17.1814C113.841 17.2437 113.764 17.2565 113.751 17.1108C113.66 16.1456 113.457 14.3917 113.432 10.7067C113.427 9.98777 113.275 9.37578 112.481 8.87475C111.966 8.54964 110.403 7.97464 109.84 8.6587C109.352 9.21816 108.787 10.7237 108.2 12.5084C107.723 13.959 107.391 14.9402 107.391 14.9402C107.391 14.9402 107.397 11.0264 107.403 9.5418C107.405 8.98173 107.021 8.7951 106.905 8.76127C106.384 8.60994 105.356 8.35713 104.92 8.35713C104.382 8.35713 104.251 8.65787 104.251 9.09606C104.251 9.15343 104.166 14.249 104.166 17.8121C104.166 17.9668 104.166 18.1357 104.167 18.3151C103.87 19.9527 102.905 22.1757 101.855 22.1757C100.804 22.1757 100.309 21.2463 100.309 16.9986C100.309 14.5206 100.383 13.4431 100.419 11.6509C100.441 10.6185 100.482 9.82581 100.479 9.64592C100.472 9.09425 99.5177 8.8162 99.0738 8.71344C98.6279 8.60982 98.2403 8.56968 97.9377 8.58691C97.5094 8.61108 97.2063 8.89207 97.2063 9.27856C97.2063 9.48577 97.2087 9.87982 97.2087 9.87982C96.657 9.01291 95.7697 8.40953 95.1794 8.23468C93.5893 7.76246 91.9301 8.18088 90.6786 9.93216C89.6839 11.3236 89.0843 12.8996 88.8483 15.1639C88.6757 16.8193 88.7321 18.4979 89.0387 19.9175C88.6682 21.5194 87.9803 22.1757 87.2271 22.1757C86.1336 22.1757 85.3409 20.3909 85.4329 17.3042C85.4937 15.2739 85.8999 13.8491 86.344 11.7879C86.5333 10.9092 86.3795 10.4491 85.9936 10.0082C85.6397 9.60389 84.8857 9.3973 83.8017 9.65139C83.0295 9.83254 81.9256 10.0274 80.9155 10.177C80.9155 10.177 80.9765 9.93383 81.0265 9.50512C81.2892 7.25681 78.8461 7.43922 78.0666 8.15734C77.6013 8.58607 77.2846 9.09172 77.1644 10.0009C76.9737 11.4436 78.1504 12.1241 78.1504 12.1241C77.7644 13.8914 76.818 16.2 75.841 17.8691C75.3177 18.7634 74.9173 19.426 74.4005 20.1304C74.3986 19.8681 74.3972 19.6059 74.3963 19.3448C74.3844 15.6293 74.4339 12.7052 74.4557 11.6512C74.477 10.6189 74.5184 9.84719 74.516 9.66729C74.5102 9.26378 74.2746 9.11141 73.7845 8.91848C73.3511 8.74784 72.8387 8.62973 72.3073 8.58853C71.6364 8.53621 71.2323 8.89201 71.2428 9.31275C71.2448 9.39219 71.2448 9.87998 71.2448 9.87998C70.6931 9.01306 69.8058 8.40969 69.2155 8.23483C67.6254 7.7628 65.9662 8.18124 64.7147 9.9323C63.7202 11.3238 63.0689 13.2764 62.8844 15.1468C62.7125 16.8901 62.7442 18.3715 62.9785 19.6195C62.7257 20.8691 61.9988 22.1759 61.1768 22.1759C60.126 22.1759 59.5281 21.2465 59.5281 16.9988C59.5281 14.5208 59.6025 13.4433 59.6391 11.6512C59.6603 10.6189 59.7013 9.82597 59.699 9.64628C59.6912 9.09461 58.7373 8.81656 58.2934 8.71358C57.829 8.60619 57.428 8.56668 57.1201 8.58937C56.7138 8.61964 56.4282 8.98343 56.4282 9.25475V9.87998C55.8766 9.01306 54.9893 8.40969 54.3989 8.23483C52.8088 7.7628 51.1589 8.18797 49.8981 9.9323C49.076 11.0697 48.4104 12.3307 48.0678 15.122C47.9688 15.9287 47.9251 16.6841 47.9308 17.3901C47.6029 19.3951 46.1549 21.706 44.9704 21.706C44.2773 21.706 43.6172 20.3616 43.6172 17.4964C43.6172 13.6799 43.8534 8.24597 43.8934 7.72226C43.8934 7.72226 45.3899 7.69683 45.6797 7.69345C46.4262 7.68525 47.1023 7.70291 48.0966 7.65205C48.5953 7.62662 49.0757 5.83689 48.561 5.61539C48.3278 5.51514 46.6791 5.42729 46.0255 5.41342C45.4759 5.40097 43.9459 5.28774 43.9459 5.28774C43.9459 5.28774 44.0831 1.68095 44.1151 1.29993C44.1422 0.982377 43.7313 0.818877 43.4957 0.719667C42.9228 0.477357 42.4103 0.361341 41.8027 0.236087C40.9633 0.0629231 40.5825 0.232304 40.5081 0.940758C40.3961 2.01596 40.3381 5.16521 40.3381 5.16521C39.7221 5.16521 37.6179 5.0448 37.0018 5.0448C36.4293 5.0448 35.8114 7.50684 36.6029 7.53709C37.5135 7.57241 39.1004 7.60288 40.1525 7.63462C40.1525 7.63462 40.1056 13.1581 40.1056 14.8633C40.1056 15.0447 40.1072 15.2195 40.1075 15.389C39.5285 18.4069 37.4891 20.0371 37.4891 20.0371C37.9271 18.0406 37.0324 16.5413 35.4209 15.2721C34.8272 14.8044 33.6551 13.919 32.3437 12.9488C32.3437 12.9488 33.1033 12.2002 33.7768 10.6942C34.2541 9.62741 34.2747 8.40657 33.1033 8.13737C31.1677 7.69224 29.5717 9.11376 29.0957 10.6313C28.7269 11.807 28.9236 12.6794 29.6461 13.5856C29.6989 13.6518 29.756 13.7195 29.8151 13.7875C29.3781 14.6297 28.7779 15.7635 28.2695 16.6428C26.8585 19.084 25.7926 21.015 24.987 21.015C24.3431 21.015 24.3517 19.0546 24.3517 17.2191C24.3517 15.6367 24.4686 13.2577 24.5619 10.7946C24.5928 9.98006 24.1855 9.51601 23.5027 9.0957C23.0878 8.84035 22.2024 8.33828 21.6896 8.33828C20.9221 8.33828 18.7076 8.44272 16.6153 14.4952C16.3516 15.258 15.8335 16.648 15.8335 16.648L15.8781 9.36974C15.8781 9.1991 15.7872 9.03412 15.5791 8.92126C15.2266 8.7298 14.2848 8.33828 13.4475 8.33828C13.0485 8.33828 12.8494 8.52385 12.8494 8.89373L12.7764 20.2807C12.7764 21.1459 12.7989 22.1552 12.8845 22.5967C12.9697 23.0387 13.1078 23.3983 13.2788 23.6122C13.4495 23.8257 13.647 23.9886 13.9727 24.0558C14.2758 24.1182 15.9355 24.3313 16.0218 23.6971C16.1251 22.937 16.1291 22.1148 17.0006 19.0485C18.3574 14.2747 20.1263 11.9455 20.9579 11.1183C21.1033 10.9737 21.2694 10.9651 21.2614 11.2017C21.2259 12.2483 21.101 14.8636 21.017 17.0854C20.7917 23.0313 21.8734 24.1334 23.4191 24.1334C24.6017 24.1334 26.2687 22.9583 28.0557 19.9839C29.1698 18.1303 30.2515 16.3129 31.0286 15.0029C31.5702 15.5043 32.178 16.0439 32.7854 16.6203C34.1968 17.9599 34.6602 19.2329 34.3528 20.4404C34.1176 21.3636 33.232 22.315 31.6558 21.3903C31.1964 21.1205 31.0003 20.9121 30.5383 20.6079C30.2901 20.4445 29.9112 20.3957 29.684 20.5669C29.0939 21.0118 28.7564 21.5778 28.5637 22.2784C28.3762 22.9602 29.059 23.3206 29.7668 23.6359C30.3763 23.9072 31.6862 24.1531 32.5216 24.1811C35.7766 24.2899 38.3841 22.6094 40.1992 18.2747C40.5242 22.0183 41.907 24.1367 44.3096 24.1367C45.9159 24.1367 47.5263 22.0605 48.2306 20.018C48.4328 20.8506 48.732 21.5746 49.1185 22.1868C50.9698 25.1201 54.5613 24.4887 56.3653 21.9979C56.9231 21.2283 57.008 20.9517 57.008 20.9517C57.2711 23.3036 59.1651 24.1254 60.2495 24.1254C61.464 24.1254 62.718 23.5512 63.5969 21.5726C63.6999 21.7873 63.8124 21.9924 63.9351 22.1868C65.7864 25.12 69.3779 24.4887 71.1819 21.9979C71.267 21.881 71.3408 21.7751 71.4053 21.6799L71.4582 23.2248C71.4582 23.2248 70.4291 24.1689 69.7973 24.748C67.0169 27.299 64.9027 29.2343 64.7472 31.4881C64.5475 34.3619 66.8782 35.4299 68.6414 35.5699C70.514 35.7185 72.1175 34.6841 73.1032 33.2364C73.9701 31.9622 74.5375 29.2198 74.4959 26.5113C74.4793 25.4267 74.452 24.0476 74.4305 22.5693C75.4078 21.4344 76.5088 20.0001 77.5227 18.3211C78.6275 16.4914 79.8115 14.0342 80.4178 12.122C80.4178 12.122 81.4466 12.1308 82.5445 12.0589C82.8956 12.036 82.9965 12.1077 82.9316 12.3651C82.8532 12.6761 81.5445 17.7238 82.7389 21.0864C83.5564 23.3883 85.3993 24.1289 86.4919 24.1289C87.771 24.1289 88.9945 23.163 89.6502 21.7286C89.7292 21.8886 89.8118 22.0433 89.902 22.1861C91.7533 25.1194 95.3322 24.4842 97.1488 21.9973C97.5588 21.4361 97.7915 20.951 97.7915 20.951C98.1813 23.3851 100.074 24.1371 101.158 24.1371C102.288 24.1371 103.36 23.6741 104.229 21.6164C104.266 22.5224 104.323 23.2632 104.413 23.4968C104.468 23.6396 104.789 23.8189 105.023 23.9055C106.056 24.2887 107.11 24.1075 107.499 24.0287C107.769 23.974 107.98 23.7574 108.009 23.1979C108.085 21.7289 108.038 19.2607 108.483 17.4264C109.231 14.348 109.928 13.1538 110.259 12.5627C110.444 12.2314 110.653 12.1768 110.661 12.5274C110.676 13.2366 110.712 15.3196 111.001 18.1181C111.214 20.1763 111.498 21.3928 111.716 21.7778C112.339 22.8789 113.109 22.931 113.736 22.931C114.134 22.931 114.968 22.8208 114.894 22.1202C114.857 21.7786 114.921 19.668 115.658 16.6352C116.139 14.6546 116.942 12.8651 117.231 12.2108C117.338 11.9696 117.387 12.1598 117.386 12.1968C117.325 13.5608 117.188 18.0221 117.744 20.462C118.497 23.7675 120.676 24.1373 121.435 24.1373C123.056 24.1373 124.382 22.9043 124.828 19.6599C124.936 18.8791 124.777 18.2762 124.299 18.2762" fill="#262626"/>
</svg>
