<svg width="165" height="48" viewBox="0 0 165 48" fill="none" xmlns="http://www.w3.org/2000/svg">
<path d="M48.3649 16.0727H55.283C59.1151 16.0727 61.1046 17.6439 61.1046 20.5943V20.7413C61.1592 21.6058 60.9017 22.4613 60.3789 23.1521C59.8562 23.8429 59.1028 24.3231 58.2559 24.5055C59.2701 24.5948 60.2082 25.0805 60.8664 25.8573C61.5246 26.634 61.8499 27.639 61.7715 28.6541V28.7558C61.7715 31.9775 59.6576 33.6731 55.5995 33.6731H48.3649V16.0727ZM54.6386 23.296C56.5603 23.296 57.3177 22.6064 57.3177 21.0352V20.9334C57.3177 19.4639 56.4812 18.797 54.616 18.797H52.2535V23.3186L54.6386 23.296ZM54.9778 30.9036C56.9447 30.9036 57.8377 30.0106 57.8377 28.4167V28.315C57.8377 26.6872 56.9447 25.862 54.7856 25.862H52.2535V30.9149L54.9778 30.9036Z" fill="#141416"/>
<path d="M62.8117 30.0898C62.8117 27.0829 65.5586 25.9525 69.5037 25.9525H70.9506V25.4438C70.9506 23.9177 70.4871 23.0812 68.8593 23.0812C68.5958 23.0499 68.3287 23.0729 68.0745 23.1488C67.8202 23.2246 67.5841 23.3517 67.3808 23.5221C67.1775 23.6926 67.0112 23.9029 66.8922 24.1401C66.7733 24.3773 66.7041 24.6363 66.689 24.9012H63.2977C63.5238 21.8491 65.9316 20.4926 69.0854 20.4926C72.2393 20.4926 74.4662 21.77 74.4662 25.2629V33.6505H70.9958V32.1019C70.5603 32.7155 69.9731 33.2058 69.2916 33.5248C68.61 33.8437 67.8574 33.9805 67.1072 33.9218C64.7786 33.9218 62.8117 32.7914 62.8117 30.0898ZM70.9506 29.1515V28.0211H69.5715C67.5028 28.0211 66.3046 28.4733 66.3046 29.8411C66.3046 30.7793 66.8698 31.401 68.1698 31.401C69.7411 31.4462 70.9506 30.5758 70.9506 29.1515Z" fill="#141416"/>
<path d="M75.9694 29.615H79.2928C79.4397 30.7454 80.0049 31.4462 81.5536 31.4462C82.9327 31.4462 83.577 30.9263 83.577 30.0332C83.577 29.1402 82.8083 28.7785 80.9658 28.5185C77.5746 27.9985 76.2181 27.0151 76.2181 24.5055C76.2181 21.996 78.6824 20.4926 81.3049 20.4926C84.1648 20.4926 86.3013 21.5326 86.6178 24.4829H83.3509C83.1588 23.4204 82.5596 22.9343 81.3388 22.9343C80.118 22.9343 79.5189 23.4769 79.5189 24.2569C79.5189 25.0368 80.1293 25.3873 81.9944 25.6586C85.2161 26.122 86.9908 26.9359 86.9908 29.6941C86.9908 32.4523 84.9787 33.9218 81.5762 33.9218C78.1737 33.9218 76.0937 32.3958 75.9694 29.615Z" fill="#141416"/>
<path d="M87.9065 27.3767V27.1846C87.8636 26.3012 88.0048 25.4185 88.3209 24.5924C88.637 23.7664 89.1212 23.015 89.7429 22.3859C90.3646 21.7568 91.1101 21.2636 91.9324 20.9377C92.7546 20.6118 93.6355 20.4602 94.5194 20.4926C97.8428 20.4926 100.793 22.4369 100.793 27.0376V28.0211H91.5577C91.6482 30.1576 92.8125 31.4123 94.7455 31.4123C96.3959 31.4123 97.2098 30.7001 97.4358 29.615H100.827C100.409 32.3958 98.1932 33.9444 94.6777 33.9444C90.7325 33.9218 87.9065 31.4914 87.9065 27.3767ZM97.3228 25.8281C97.2098 23.8838 96.215 23.0021 94.5194 23.0021C93.756 22.9985 93.021 23.2909 92.4687 23.8179C91.9164 24.3449 91.5899 25.0654 91.5577 25.8281H97.3228Z" fill="#141416"/>
<path d="M101.731 27.3766V27.1845C101.688 26.2991 101.83 25.4144 102.148 24.5868C102.465 23.7591 102.951 23.0066 103.575 22.3772C104.2 21.7477 104.948 21.2551 105.773 20.9306C106.598 20.6061 107.481 20.4569 108.367 20.4925C111.351 20.4925 114.098 21.7924 114.426 25.4889H111.035C111.012 25.1716 110.926 24.8621 110.782 24.5787C110.637 24.2954 110.437 24.044 110.193 23.8394C109.95 23.6348 109.668 23.4813 109.364 23.3879C109.06 23.2946 108.74 23.2633 108.423 23.2959C106.581 23.2959 105.349 24.675 105.349 27.1393V27.3314C105.349 29.9201 106.479 31.2426 108.503 31.2426C108.847 31.2624 109.192 31.2135 109.517 31.0988C109.842 30.9841 110.141 30.8058 110.397 30.5744C110.652 30.3429 110.859 30.063 111.006 29.7507C111.152 29.4385 111.235 29.1003 111.249 28.7557H114.471C114.279 31.8078 112.063 33.9217 108.322 33.9217C104.58 33.9217 101.731 31.5818 101.731 27.3766Z" fill="#141416"/>
<path d="M115.296 30.0897C115.296 27.0828 118.043 25.9524 121.977 25.9524H123.435V25.4438C123.435 23.9177 122.961 23.0812 121.344 23.0812C121.079 23.0466 120.809 23.0671 120.552 23.1413C120.295 23.2156 120.057 23.3421 119.851 23.513C119.645 23.6838 119.477 23.8952 119.356 24.1341C119.236 24.373 119.166 24.6341 119.151 24.9012H115.76C115.986 21.8491 118.394 20.4926 121.536 20.4926C124.679 20.4926 126.928 21.7699 126.928 25.2629V33.6505H123.458V32.1019C123.023 32.7155 122.435 33.2057 121.754 33.5247C121.072 33.8437 120.32 33.9805 119.569 33.9218C117.309 33.9218 115.296 32.7914 115.296 30.0897ZM123.435 29.1515V28.0211H122.079C120.01 28.0211 118.801 28.4732 118.801 29.841C118.801 30.7793 119.377 31.401 120.677 31.401C122.271 31.4462 123.481 30.5758 123.481 29.1515H123.435Z" fill="#141416"/>
<path d="M129.438 20.7412H132.998V22.7081C133.387 22.0093 133.958 21.4295 134.651 21.0312C135.344 20.6328 136.133 20.431 136.932 20.4473C137.695 20.3863 138.457 20.5734 139.105 20.9808C139.753 21.3883 140.252 21.9941 140.527 22.7081C141.002 21.999 141.647 21.4205 142.403 21.0255C143.16 20.6305 144.003 20.4317 144.856 20.4473C147.242 20.4473 149.084 21.9507 149.084 25.3646V33.6052H145.546V25.8054C145.546 24.155 144.811 23.4203 143.522 23.4203C143.18 23.4054 142.838 23.4646 142.52 23.5939C142.202 23.7232 141.916 23.9196 141.681 24.1696C141.446 24.4197 141.268 24.7174 141.158 25.0427C141.049 25.3679 141.011 25.7129 141.047 26.0541V33.6505H137.497V25.8054C137.497 24.155 136.74 23.4203 135.485 23.4203C135.142 23.4037 134.798 23.4617 134.479 23.5902C134.16 23.7188 133.872 23.9149 133.636 24.1652C133.4 24.4154 133.22 24.7138 133.11 25.0398C133 25.3659 132.962 25.7119 132.998 26.0541V33.6505H129.438V20.7412Z" fill="#141416"/>
<path d="M151.526 20.7412H155.098V22.7647C155.524 22.0569 156.125 21.4715 156.844 21.0654C157.564 20.6593 158.376 20.4463 159.201 20.4473C162.355 20.4473 164.854 22.7873 164.854 27.0376V27.2411C164.854 31.4914 162.446 33.8766 159.201 33.8766C158.376 33.9104 157.558 33.7176 156.834 33.319C156.111 32.9205 155.51 32.3314 155.098 31.6157V38.0365H151.526V20.7412ZM161.191 27.0715C161.191 24.4603 159.914 23.1829 158.116 23.1829C156.319 23.1829 154.974 24.4829 154.974 27.0715V27.2637C154.974 29.841 156.206 31.0958 158.15 31.0958C160.095 31.0958 161.191 29.7845 161.191 27.3089V27.0715Z" fill="#141416"/>
<path fill-rule="evenodd" clip-rule="evenodd" d="M21.9361 9.92891C11.9054 9.92891 6.67436 18.425 3.74547 26.7292C3.39142 27.733 2.29063 28.2597 1.2868 27.9057C0.568808 27.6525 0.0948848 27.0172 0.0127491 26.3087C-0.0199508 26.0266 0.00944776 25.7329 0.110267 25.447C3.0821 17.0211 9.15509 6.07422 21.9361 6.07422C28.6167 6.07422 33.3984 10.4939 36.491 15.8035C39.5917 21.1271 41.2449 27.7189 41.6174 33.0412C41.6442 33.4237 41.5563 33.8055 41.3648 34.1378C39.5738 37.2468 36.5942 39.2728 33.1979 40.5137C29.8099 41.7516 25.8854 42.2572 21.9516 42.2586C18.6094 42.3107 15.2952 41.6418 12.2347 40.2974C9.16941 38.9509 6.43095 36.9585 4.20648 34.4563C3.73326 33.924 3.59217 33.1741 3.8396 32.5062L3.84105 32.5023L3.84381 32.4949L3.85324 32.4697L3.88736 32.3797C3.91678 32.3027 3.95944 32.1923 4.0144 32.0532C4.12424 31.7752 4.28367 31.3815 4.48523 30.9105C4.88659 29.9726 5.4632 28.7086 6.15586 27.4324C6.8394 26.1729 7.67994 24.819 8.62517 23.7522C9.48688 22.7798 10.8263 21.5951 12.5406 21.5835L12.5537 21.5834C13.7651 21.5834 14.7602 22.138 15.4765 22.6712C16.1985 23.2087 16.8542 23.8918 17.3797 24.4478C17.4399 24.5116 17.4985 24.5737 17.5555 24.6342C18.0449 25.153 18.4191 25.5498 18.7747 25.8469C18.8146 25.8803 18.8513 25.9098 18.8848 25.9357C19.0005 25.8176 19.1384 25.6627 19.2972 25.4658C19.8621 24.7655 20.4966 23.779 21.1106 22.7229C21.7165 21.6807 22.268 20.6309 22.6701 19.8368C22.8704 19.4411 23.0321 19.112 23.1431 18.8831C23.1985 18.7687 23.2413 18.6794 23.2697 18.6196L23.3016 18.5525L23.3091 18.5366L23.3107 18.5331C23.7626 17.5695 24.9103 17.154 25.874 17.6057C26.8378 18.0575 27.2529 19.2051 26.8011 20.1689L26.797 20.1777L26.787 20.199L26.7499 20.2771C26.7178 20.3444 26.6712 20.4417 26.6116 20.5647C26.4924 20.8106 26.3208 21.1597 26.1091 21.5779C25.687 22.4116 25.0989 23.5321 24.443 24.6603C23.7952 25.7746 23.0456 26.9585 22.2975 27.886C21.9265 28.3459 21.5059 28.8059 21.0511 29.1677C20.6491 29.4875 19.94 29.9597 19.0309 29.9597C17.8289 29.9597 16.8818 29.2886 16.3029 28.8048C15.7574 28.3489 15.2123 27.7695 14.7545 27.2827C14.6941 27.2185 14.6352 27.1559 14.578 27.0953C14.0352 26.521 13.5916 26.0736 13.1747 25.7633C12.8094 25.4913 12.6228 25.4465 12.5693 25.4394C12.5693 25.4394 12.5654 25.4409 12.562 25.442C12.5031 25.4628 12.1491 25.5876 11.5102 26.3087C10.8478 27.0562 10.17 28.1171 9.54373 29.2711C8.92652 30.4083 8.40169 31.5563 8.02907 32.427C7.98106 32.5392 7.93571 32.6465 7.89316 32.7482C9.58942 34.4384 11.5864 35.8025 13.785 36.7682C16.3423 37.8916 19.1119 38.4496 21.9047 38.4041L21.9361 38.4039C25.5821 38.4039 29.0333 37.9314 31.8751 36.8931C34.4894 35.9379 36.4838 34.5458 37.7235 32.6976C37.3034 27.9611 35.7946 22.2668 33.1601 17.7436C30.4028 13.0095 26.6613 9.92891 21.9361 9.92891ZM18.568 26.2096C18.568 26.2096 18.5764 26.2032 18.5926 26.1949C18.576 26.2062 18.568 26.2096 18.568 26.2096Z" fill="#1D2D35"/>
</svg>
