<svg width="167" height="48" viewBox="0 0 167 48" fill="none" xmlns="http://www.w3.org/2000/svg">
<path fill-rule="evenodd" clip-rule="evenodd" d="M4.04667 38.1003V34.0536H22.2567V38.1003H4.04667ZM18.3887 17.867H7.91292L13.1517 25.1173L18.3887 17.867ZM26.3033 13.8203L13.1517 32.0303L0 13.8203H26.3033Z" fill="#141416"/>
<path d="M42.3535 34.0588V27.5639H36.125V34.0588H32.3701V17.8721H36.125V24.2068H42.3535V17.8687H46.1085V34.0554L42.3535 34.0588Z" fill="black"/>
<path d="M50.8464 34.0588V17.8722H61.103V21.3135H54.6013V24.2069H60.5213V27.4763H54.6013V30.6343H61.103V34.0588H50.8464Z" fill="black"/>
<path d="M65.5763 34.0588V17.8722H69.3296V30.6377H75.8245V34.0622L65.5763 34.0588Z" fill="black"/>
<path d="M78.9756 34.0588V17.8722H82.7356V30.6377H89.2288V34.0622L78.9756 34.0588Z" fill="black"/>
<path d="M99.8209 34.3236C94.8064 34.3236 91.6045 30.7237 91.6045 25.9739C91.6045 21.2242 94.9615 17.6024 99.976 17.6024C104.991 17.6024 108.192 21.2039 108.192 25.9739C108.192 30.744 104.814 34.3236 99.8209 34.3236ZM99.8833 20.9611C97.3221 20.9611 95.5989 23.0587 95.5989 25.9739C95.5989 28.8892 97.3221 30.9884 99.8833 30.9884C102.445 30.9884 104.169 28.8673 104.169 25.9739C104.169 23.0806 102.45 20.9611 99.8833 20.9611Z" fill="black"/>
<path d="M116.306 34.3236C114.473 34.3236 112.259 33.5952 110.852 32.6661L111.889 29.2652C113.192 30.2145 114.893 30.8333 116.417 30.8333C117.743 30.8333 118.25 30.2145 118.25 29.4204C118.25 28.5773 117.83 28.0057 115.357 27.0126C112.507 25.8643 111.518 24.2069 111.518 22.2628C111.518 19.9023 113.438 17.6024 117.215 17.6024C118.982 17.6024 120.795 18.2212 121.744 18.8619L120.791 22.219C119.862 21.5783 118.362 20.8937 117.212 20.8937C115.842 20.8937 115.291 21.5344 115.291 22.1971C115.291 23.2576 116.107 23.6117 118.141 24.4716C121.166 25.7531 122.071 27.2115 122.071 29.2872C122.071 31.872 120.194 34.3236 116.306 34.3236Z" fill="black"/>
<path d="M126.097 34.0588V17.8722H129.852V34.0588H126.097Z" fill="black"/>
<path d="M148.572 24.9589V32.6897C146.715 33.7915 144.589 34.357 142.431 34.3236C137.683 34.3236 133.928 30.9227 133.928 25.9739C133.928 21.0252 137.727 17.6024 142.63 17.6024C144.751 17.6024 146.45 18.1554 148.062 18.9951L146.494 22.02C145.379 21.433 144.139 21.1224 142.879 21.1146C139.654 21.1146 137.932 23.1244 137.932 25.9739C137.932 29.0663 140.008 30.9884 142.653 30.9884C143.845 30.9884 144.442 30.8552 145.039 30.5467V28.1608H141.79V24.9572L148.572 24.9589Z" fill="black"/>
<path d="M166.404 34.3674L156.641 25.5997V34.0589H152.886V17.648L153.392 17.5586L163.023 26.2606V17.8688H166.778V34.3017L166.404 34.3674Z" fill="black"/>
</svg>
