<svg width="125" height="48" viewBox="0 0 125 48" fill="none" xmlns="http://www.w3.org/2000/svg">
<path d="M6.42617 10.2843C3.8706 11.3541 1.06117 14.3762 0.173863 18.1696C-0.949845 22.976 3.72643 25.0085 4.10998 24.342C4.56141 23.559 3.27204 23.2942 3.00664 20.8004C2.66362 17.5795 4.16102 13.9805 6.04556 12.4013C6.39586 12.1079 6.37919 12.5163 6.37919 13.2716C6.37919 14.6223 6.30456 26.7475 6.30456 29.2781C6.30456 32.7023 6.16313 33.7835 5.90912 34.852C5.65176 35.9348 5.238 36.6664 5.55153 36.9482C5.90181 37.2634 7.3974 36.5136 8.26322 35.3052C9.30147 33.8559 9.6649 32.1153 9.73015 30.2251C9.80896 27.9466 9.8056 24.331 9.80896 22.2687C9.81212 20.3772 9.84082 14.8386 9.77581 11.509C9.75987 10.6923 7.49492 9.83551 6.42605 10.2834L6.42617 10.2843ZM97.1745 26.3091C97.0921 28.0893 96.698 29.4807 96.209 30.4621C95.2622 32.3622 93.2976 32.9521 92.4635 30.2208C92.0089 28.7319 91.9877 26.2454 92.3145 24.1677C92.6472 22.0512 93.5761 20.4527 95.1143 20.5969C96.6314 20.7394 97.3416 22.6944 97.1745 26.3091ZM71.5978 37.3536C71.5772 40.3114 71.1117 42.9047 70.1135 43.658C68.6976 44.726 66.7946 43.9249 67.1887 41.7665C67.5373 39.8566 69.1862 37.9061 71.6018 35.5228C71.6018 35.5228 71.6068 36.0663 71.5978 37.3536ZM71.2111 26.2919C71.1246 27.9133 70.7042 29.5421 70.2457 30.4624C69.2991 32.3624 67.3202 32.9563 66.5002 30.221C65.9395 28.3521 66.0737 25.9333 66.3512 24.4092C66.7112 22.4318 67.5838 20.5973 69.1509 20.5973C70.6746 20.5973 71.4259 22.2688 71.2111 26.2919ZM56.3946 26.2671C56.3017 27.9843 55.9667 29.4198 55.4291 30.4624C54.4564 32.3493 52.5322 32.9477 51.6836 30.221C51.0718 28.2549 51.2801 25.5739 51.5346 24.1257C51.9122 21.9766 52.858 20.4529 54.3343 20.5973C55.8509 20.7455 56.5881 22.6944 56.3946 26.2671ZM124.296 28.2729C123.925 28.2729 123.756 28.655 123.616 29.2982C123.13 31.5348 122.62 32.0398 121.962 32.0398C121.227 32.0398 120.566 30.9323 120.396 28.7154C120.263 26.9722 120.284 23.763 120.455 20.5706C120.49 19.9147 120.309 19.2657 118.55 18.6266C117.793 18.3517 116.692 17.947 116.144 19.2695C114.596 23.006 113.991 25.9724 113.848 27.1775C113.841 27.2398 113.764 27.2526 113.751 27.1069C113.66 26.1417 113.457 24.3878 113.432 20.7028C113.427 19.9839 113.275 19.3719 112.481 18.8708C111.966 18.5457 110.403 17.9707 109.84 18.6548C109.352 19.2143 108.787 20.7198 108.2 22.5045C107.723 23.9551 107.391 24.9363 107.391 24.9363C107.391 24.9363 107.397 21.0225 107.403 19.5379C107.405 18.9778 107.021 18.7912 106.905 18.7574C106.384 18.606 105.356 18.3532 104.92 18.3532C104.382 18.3532 104.251 18.654 104.251 19.0922C104.251 19.1495 104.166 24.2451 104.166 27.8082C104.166 27.9629 104.166 28.1318 104.167 28.3112C103.87 29.9488 102.905 32.1718 101.855 32.1718C100.804 32.1718 100.309 31.2424 100.309 26.9947C100.309 24.5167 100.383 23.4392 100.419 21.647C100.441 20.6146 100.482 19.8219 100.479 19.642C100.472 19.0903 99.5177 18.8123 99.0738 18.7095C98.6279 18.6059 98.2403 18.5658 97.9377 18.583C97.5094 18.6072 97.2063 18.8882 97.2063 19.2746C97.2063 19.4819 97.2087 19.8759 97.2087 19.8759C96.657 19.009 95.7697 18.4056 95.1794 18.2308C93.5893 17.7586 91.9301 18.177 90.6786 19.9283C89.6839 21.3197 89.0843 22.8957 88.8483 25.16C88.6757 26.8154 88.7321 28.494 89.0387 29.9136C88.6682 31.5155 87.9803 32.1718 87.2271 32.1718C86.1336 32.1718 85.3409 30.387 85.4329 27.3003C85.4937 25.27 85.8999 23.8452 86.344 21.784C86.5333 20.9053 86.3795 20.4452 85.9936 20.0043C85.6397 19.6 84.8857 19.3934 83.8017 19.6475C83.0295 19.8286 81.9256 20.0234 80.9155 20.1731C80.9155 20.1731 80.9765 19.9299 81.0265 19.5012C81.2892 17.2529 78.8461 17.4353 78.0666 18.1534C77.6013 18.5822 77.2846 19.0878 77.1644 19.997C76.9737 21.4397 78.1504 22.1202 78.1504 22.1202C77.7644 23.8875 76.818 26.1961 75.841 27.8652C75.3177 28.7595 74.9173 29.4221 74.4005 30.1265C74.3986 29.8642 74.3972 29.602 74.3963 29.3409C74.3844 25.6254 74.4339 22.7013 74.4557 21.6473C74.477 20.615 74.5184 19.8433 74.516 19.6634C74.5102 19.2599 74.2746 19.1075 73.7845 18.9146C73.3511 18.7439 72.8387 18.6258 72.3073 18.5846C71.6364 18.5323 71.2323 18.8881 71.2428 19.3088C71.2448 19.3883 71.2448 19.8761 71.2448 19.8761C70.6931 19.0091 69.8058 18.4058 69.2155 18.2309C67.6254 17.7589 65.9662 18.1773 64.7147 19.9284C63.7202 21.3199 63.0689 23.2725 62.8844 25.1429C62.7125 26.8862 62.7442 28.3676 62.9785 29.6156C62.7257 30.8652 61.9988 32.172 61.1768 32.172C60.126 32.172 59.5281 31.2426 59.5281 26.9949C59.5281 24.5169 59.6025 23.4394 59.6391 21.6473C59.6603 20.615 59.7013 19.8221 59.699 19.6424C59.6912 19.0907 58.7373 18.8127 58.2934 18.7097C57.829 18.6023 57.428 18.5628 57.1201 18.5855C56.7138 18.6157 56.4282 18.9795 56.4282 19.2508V19.8761C55.8766 19.0091 54.9893 18.4058 54.3989 18.2309C52.8088 17.7589 51.1589 18.1841 49.8981 19.9284C49.076 21.0658 48.4104 22.3268 48.0678 25.1181C47.9688 25.9248 47.9251 26.6802 47.9308 27.3862C47.6029 29.3912 46.1549 31.7021 44.9704 31.7021C44.2773 31.7021 43.6172 30.3577 43.6172 27.4925C43.6172 23.676 43.8534 18.2421 43.8934 17.7183C43.8934 17.7183 45.3899 17.6929 45.6797 17.6895C46.4262 17.6813 47.1023 17.699 48.0966 17.6481C48.5953 17.6227 49.0757 15.833 48.561 15.6115C48.3278 15.5112 46.6791 15.4234 46.0255 15.4095C45.4759 15.3971 43.9459 15.2838 43.9459 15.2838C43.9459 15.2838 44.0831 11.677 44.1151 11.296C44.1422 10.9785 43.7313 10.815 43.4957 10.7158C42.9228 10.4735 42.4103 10.3574 41.8027 10.2322C40.9633 10.059 40.5825 10.2284 40.5081 10.9369C40.3961 12.012 40.3381 15.1613 40.3381 15.1613C39.7221 15.1613 37.6179 15.0409 37.0018 15.0409C36.4293 15.0409 35.8114 17.5029 36.6029 17.5332C37.5135 17.5685 39.1004 17.599 40.1525 17.6307C40.1525 17.6307 40.1056 23.1542 40.1056 24.8594C40.1056 25.0408 40.1072 25.2156 40.1075 25.3851C39.5285 28.403 37.4891 30.0332 37.4891 30.0332C37.9271 28.0367 37.0324 26.5374 35.4209 25.2682C34.8272 24.8005 33.6551 23.9151 32.3437 22.9449C32.3437 22.9449 33.1033 22.1963 33.7768 20.6903C34.2541 19.6235 34.2747 18.4027 33.1033 18.1335C31.1677 17.6883 29.5717 19.1099 29.0957 20.6274C28.7269 21.8031 28.9236 22.6755 29.6461 23.5817C29.6989 23.6479 29.756 23.7155 29.8151 23.7836C29.3781 24.6258 28.7779 25.7596 28.2695 26.6389C26.8585 29.0801 25.7926 31.0111 24.987 31.0111C24.3431 31.0111 24.3517 29.0507 24.3517 27.2152C24.3517 25.6328 24.4686 23.2538 24.5619 20.7907C24.5928 19.9762 24.1855 19.5121 23.5027 19.0918C23.0878 18.8364 22.2024 18.3344 21.6896 18.3344C20.9221 18.3344 18.7076 18.4388 16.6153 24.4913C16.3516 25.2541 15.8335 26.6441 15.8335 26.6441L15.8781 19.3658C15.8781 19.1952 15.7872 19.0302 15.5791 18.9173C15.2266 18.7259 14.2848 18.3344 13.4475 18.3344C13.0485 18.3344 12.8494 18.5199 12.8494 18.8898L12.7764 30.2768C12.7764 31.142 12.7989 32.1513 12.8845 32.5928C12.9697 33.0348 13.1078 33.3943 13.2788 33.6083C13.4495 33.8218 13.647 33.9847 13.9727 34.0519C14.2758 34.1143 15.9355 34.3274 16.0218 33.6932C16.1251 32.9331 16.1291 32.1109 17.0006 29.0446C18.3574 24.2708 20.1263 21.9416 20.9579 21.1144C21.1033 20.9698 21.2694 20.9612 21.2614 21.1978C21.2259 22.2444 21.101 24.8597 21.017 27.0815C20.7917 33.0274 21.8734 34.1295 23.4191 34.1295C24.6017 34.1295 26.2687 32.9544 28.0557 29.98C29.1698 28.1264 30.2515 26.3089 31.0286 24.999C31.5702 25.5004 32.178 26.04 32.7854 26.6164C34.1968 27.956 34.6602 29.2289 34.3528 30.4365C34.1176 31.3597 33.232 32.3111 31.6558 31.3864C31.1964 31.1166 31.0003 30.9082 30.5383 30.604C30.2901 30.4406 29.9112 30.3918 29.684 30.5629C29.0939 31.0079 28.7564 31.5739 28.5637 32.2745C28.3762 32.9563 29.059 33.3167 29.7668 33.632C30.3763 33.9033 31.6862 34.1491 32.5216 34.1771C35.7766 34.286 38.3841 32.6055 40.1992 28.2708C40.5242 32.0144 41.907 34.1328 44.3096 34.1328C45.9159 34.1328 47.5263 32.0566 48.2306 30.0141C48.4328 30.8467 48.732 31.5707 49.1185 32.1829C50.9698 35.1161 54.5613 34.4848 56.3653 31.994C56.9231 31.2244 57.008 30.9478 57.008 30.9478C57.2711 33.2997 59.1651 34.1215 60.2495 34.1215C61.464 34.1215 62.718 33.5473 63.5969 31.5686C63.6999 31.7834 63.8124 31.9885 63.9351 32.1829C65.7864 35.1161 69.3779 34.4848 71.1819 31.994C71.267 31.8771 71.3408 31.7712 71.4053 31.676L71.4582 33.2209C71.4582 33.2209 70.4291 34.165 69.7973 34.7441C67.0169 37.2951 64.9027 39.2304 64.7472 41.4842C64.5475 44.358 66.8782 45.426 68.6414 45.566C70.514 45.7146 72.1175 44.6802 73.1032 43.2325C73.9701 41.9583 74.5375 39.2159 74.4959 36.5074C74.4793 35.4228 74.452 34.0436 74.4305 32.5654C75.4078 31.4305 76.5088 29.9962 77.5227 28.3172C78.6275 26.4875 79.8115 24.0303 80.4178 22.1181C80.4178 22.1181 81.4466 22.1269 82.5445 22.055C82.8956 22.0321 82.9965 22.1038 82.9316 22.3612C82.8532 22.6722 81.5445 27.7199 82.7389 31.0825C83.5564 33.3844 85.3993 34.125 86.4919 34.125C87.771 34.125 88.9945 33.1591 89.6502 31.7247C89.7292 31.8846 89.8118 32.0394 89.902 32.1822C91.7533 35.1155 95.3322 34.4803 97.1488 31.9933C97.5588 31.4322 97.7915 30.9471 97.7915 30.9471C98.1813 33.3812 100.074 34.1332 101.158 34.1332C102.288 34.1332 103.36 33.6702 104.229 31.6125C104.266 32.5185 104.323 33.2593 104.413 33.4929C104.468 33.6357 104.789 33.815 105.023 33.9016C106.056 34.2847 107.11 34.1036 107.499 34.0248C107.769 33.9701 107.98 33.7534 108.009 33.194C108.085 31.725 108.038 29.2568 108.483 27.4225C109.231 24.3441 109.928 23.1499 110.259 22.5588C110.444 22.2275 110.653 22.1729 110.661 22.5235C110.676 23.2327 110.712 25.3157 111.001 28.1142C111.214 30.1724 111.498 31.3889 111.716 31.7739C112.339 32.8749 113.109 32.9271 113.736 32.9271C114.134 32.9271 114.968 32.8169 114.894 32.1163C114.857 31.7747 114.921 29.6641 115.658 26.6312C116.139 24.6507 116.942 22.8612 117.231 22.2069C117.338 21.9657 117.387 22.1559 117.386 22.1929C117.325 23.5569 117.188 28.0182 117.744 30.4581C118.497 33.7635 120.676 34.1334 121.435 34.1334C123.056 34.1334 124.382 32.9004 124.828 29.6559C124.936 28.8752 124.777 28.2723 124.299 28.2723" fill="#262626"/>
</svg>
