<svg width="123" height="48" viewBox="0 0 123 48" fill="none" xmlns="http://www.w3.org/2000/svg">
<path d="M52.2211 18.3352H56.8903L50.2551 35.0461H46.0774L39.3193 18.3352H44.1114L48.1663 29.5168L52.2211 18.3352ZM58.3648 34.9232H62.9111V18.3352H58.3648V34.9232ZM65 29.5168H69.5463C69.6692 30.6226 70.4064 31.7285 72.3724 31.7285C74.0927 31.7285 74.9528 31.1141 74.9528 30.254C74.9528 27.4279 65.7372 30.1311 65.7372 23.496C65.7372 20.4241 68.3176 17.9666 72.3724 17.9666C77.4103 17.9666 79.1305 21.1613 79.2534 23.6188H74.9528C74.8299 22.513 74.0927 21.6528 72.4953 21.6528C71.0208 21.6528 70.1607 22.3901 70.1607 23.2502C70.1607 26.0763 79.3762 23.2502 79.3762 30.1311C79.3762 33.0801 76.7959 35.4147 72.3724 35.4147C67.0888 35.2918 65.2457 32.7115 65 29.5168ZM81.588 34.9232H86.1343V18.3352H81.588V34.9232ZM96.8243 31.3599C99.1589 31.3599 101.002 29.6396 101.002 26.5678C101.002 23.6188 99.1589 21.7757 96.8243 21.7757C94.4897 21.7757 92.6466 23.496 92.6466 26.5678C92.6466 29.6396 94.4897 31.3599 96.8243 31.3599ZM88.1003 26.5678C88.1003 21.7757 91.5408 17.8438 96.8243 17.8438C102.108 17.8438 105.548 21.7757 105.548 26.5678C105.548 31.3599 102.108 35.2918 96.8243 35.2918C91.5408 35.2918 88.1003 31.3599 88.1003 26.5678ZM111.815 20.3012C112.552 18.8267 114.272 17.8438 116.73 17.8438C120.785 17.8438 122.874 20.547 122.874 24.4789V34.9232H118.327V24.9704C118.327 23.0045 117.467 21.6528 115.501 21.6528C113.289 21.6528 112.061 23.0045 112.061 25.3391V34.9232H107.514V18.3352H111.815V20.3012Z" fill="#0075DC"/>
<path d="M0 45.0016H41.9V3.10156H0V45.0016Z" fill="#0075DC"/>
<path d="M14.7448 16.247C16.0964 16.247 17.2022 15.264 17.2022 13.7895C17.2022 12.4379 16.0964 11.332 14.7448 11.332C13.3932 11.332 12.2873 12.315 12.2873 13.7895C12.2873 15.264 13.3932 16.247 14.7448 16.247ZM9.58407 29.2716C9.46119 29.886 9.33832 30.5004 9.33832 31.1147C9.33832 33.2036 10.4442 34.6781 12.9017 34.6781C14.9905 34.6781 16.5879 33.4493 17.8166 31.4834L17.0794 34.4323H21.1342L23.4688 25.2168C24.0832 22.8822 25.1891 21.6534 26.9093 21.6534C28.2609 21.6534 29.121 22.5136 29.121 23.8652C29.121 24.2338 29.121 24.7253 28.9981 25.2168L27.7694 29.5174C27.6465 30.1317 27.5237 30.7461 27.5237 31.3605C27.5237 33.3265 28.7524 34.8009 31.2099 34.8009C33.2987 34.8009 35.019 33.4493 36.002 30.1317L34.4046 29.5174C33.6674 31.7291 32.9301 32.0977 32.4386 32.0977C31.9471 32.0977 31.5785 31.7291 31.5785 30.9919C31.5785 30.6232 31.7014 30.2546 31.7014 29.886L32.8072 25.7083C33.053 24.7253 33.1759 23.8652 33.1759 23.1279C33.1759 20.0561 31.3327 18.4587 28.9981 18.4587C26.9093 18.4587 24.6976 20.4247 23.5917 22.3907L24.3289 18.8273H18.1852L17.3251 22.0221H20.1512L18.431 28.7801C17.0794 31.852 14.499 31.9748 14.1304 31.852C13.6389 31.7291 13.2703 31.4834 13.2703 30.869C13.2703 30.5004 13.3932 29.886 13.516 29.2716L16.2193 18.5816H9.46119L8.60107 21.7763H11.4272L9.58407 29.2716Z" fill="white"/>
</svg>
