<svg width="165" height="48" viewBox="0 0 165 48" fill="none" xmlns="http://www.w3.org/2000/svg">
<g clip-path="url(#clip0_4249_15888)">
<path d="M50.825 30.057C50.35 30.1758 49.7563 30.2945 49.1625 30.2945C47.975 30.2945 47.5 29.582 47.5 28.3945V23.0508H50.825C51.6562 23.0508 52.4875 22.457 52.4875 21.507C52.4875 20.557 51.775 19.9633 50.825 19.9633H47.5V18.182C47.5 17.1133 46.6688 16.4008 45.7188 16.4008C44.7688 16.4008 43.9375 17.232 43.9375 18.182V28.5133C43.9375 31.482 45.3625 33.6195 48.6875 33.6195C49.6375 33.6195 50.9438 33.5008 51.8938 33.0258C52.725 32.6695 52.9625 32.0758 52.9625 31.482C52.9625 30.6508 52.1312 29.8195 50.825 30.057ZM62.7 19.4883C62.225 19.3695 61.275 19.2508 60.4438 19.2508C57.475 19.2508 55.8125 21.032 55.8125 23.7633V31.8383C55.8125 32.7883 56.6438 33.6195 57.5938 33.6195C58.5437 33.6195 59.375 32.7883 59.375 31.8383V24.4758C59.375 23.2883 59.85 22.8133 60.6812 22.8133C61.5125 22.8133 61.9875 23.0508 62.7 23.0508C63.7687 23.0508 64.3625 22.1008 64.3625 21.3883C64.2438 20.4383 63.7687 19.8445 62.7 19.4883ZM72.5562 19.2508C69.2312 19.2508 66.8563 21.3883 66.5 24.832C66.5 25.6633 66.3813 27.0883 66.5 28.157C66.7375 31.482 69.1125 33.7383 72.675 33.7383C74.3375 33.7383 75.8812 33.382 76.8312 32.7883C77.5437 32.3133 77.6625 31.8383 77.6625 31.3633C77.6625 30.4133 76.8312 29.4633 75.4062 29.9383C74.575 30.2945 73.625 30.532 72.675 30.532C71.0125 30.532 69.7063 29.7008 69.7063 28.0383V27.682H76.475C77.6625 27.682 78.2563 26.9695 78.2563 25.9008V25.307C78.375 21.6258 76 19.2508 72.5562 19.2508ZM74.8125 25.307H69.825C69.825 23.5258 70.6562 22.3383 72.5562 22.3383C74.2187 22.3383 75.1688 23.407 75.05 24.9508C75.05 25.1883 75.05 25.307 74.8125 25.307ZM86.8062 19.2508C83.4812 19.2508 81.1063 21.3883 80.75 24.832C80.75 25.6633 80.6312 27.0883 80.75 28.157C80.9875 31.482 83.3625 33.7383 86.925 33.7383C88.5875 33.7383 90.1312 33.382 91.0812 32.7883C91.7937 32.3133 91.9125 31.8383 91.9125 31.3633C91.9125 30.4133 91.0812 29.4633 89.6562 29.9383C88.825 30.2945 87.875 30.532 86.925 30.532C85.2625 30.532 83.9562 29.7008 83.9562 28.0383V27.682H90.725C91.9125 27.682 92.5063 26.9695 92.5063 25.9008V25.307C92.625 21.6258 90.25 19.2508 86.8062 19.2508ZM89.0625 25.307H84.075C84.075 23.5258 84.9062 22.3383 86.8062 22.3383C88.4688 22.3383 89.4187 23.407 89.3 24.9508C89.3 25.1883 89.3 25.307 89.0625 25.307ZM146.775 25.1883L144.875 24.7133C143.688 24.4758 143.331 24.1195 143.331 23.5258C143.331 22.932 143.925 22.457 145.231 22.457C145.944 22.457 146.775 22.6945 147.487 23.0508C148.319 23.5258 149.269 23.407 149.744 22.8133C150.338 22.2195 150.338 21.1508 149.625 20.4383C148.675 19.7258 147.013 19.2508 145.35 19.2508C142.263 19.2508 140.006 20.7945 140.006 23.6445C140.006 25.9008 141.669 27.0883 143.806 27.682C144.875 27.9195 144.756 27.9195 145.706 28.157C146.775 28.3945 147.25 28.8695 147.25 29.3445C147.25 30.057 146.656 30.532 145.231 30.532C144.044 30.532 142.975 30.1758 142.144 29.7008C141.312 29.107 140.363 29.3445 139.888 30.057C139.413 30.7695 139.531 31.7195 140.244 32.1945C141.194 33.0258 142.738 33.7383 145.231 33.7383C148.319 33.7383 150.694 32.0758 150.694 29.2258C150.694 27.0883 149.387 25.782 146.775 25.1883ZM163.281 27.682C164.469 27.682 165.062 26.9695 165.062 25.9008V25.307C165.062 21.6258 162.688 19.2508 159.244 19.2508C155.919 19.2508 153.544 21.3883 153.188 24.832C153.188 25.6633 153.069 27.0883 153.188 28.157C153.425 31.482 155.8 33.7383 159.362 33.7383C161.025 33.7383 162.569 33.382 163.519 32.7883C164.231 32.3133 164.35 31.8383 164.35 31.3633C164.35 30.4133 163.519 29.4633 162.094 29.9383C161.262 30.2945 160.312 30.532 159.362 30.532C157.7 30.532 156.394 29.7008 156.394 28.0383V27.682H163.281ZM159.244 22.3383C160.906 22.3383 161.856 23.407 161.737 24.9508C161.737 25.1883 161.619 25.307 161.5 25.307H156.513C156.513 23.5258 157.463 22.3383 159.244 22.3383ZM115.781 19.2508C112.219 19.2508 109.606 21.507 109.25 24.5945C109.131 25.6633 109.131 27.3258 109.25 28.3945C109.488 31.482 112.219 33.7383 115.781 33.7383C119.344 33.7383 121.956 31.482 122.194 28.3945C122.312 27.3258 122.312 25.782 122.194 24.7133C121.956 21.507 119.344 19.2508 115.781 19.2508ZM118.631 27.8008C118.513 29.3445 117.444 30.2945 115.781 30.2945C114.119 30.2945 113.05 29.2258 112.931 27.8008C112.931 27.0883 112.931 25.9008 112.931 25.1883C113.05 23.6445 114.119 22.6945 115.781 22.6945C117.444 22.6945 118.513 23.7633 118.631 25.1883C118.75 25.9008 118.75 27.0883 118.631 27.8008ZM101.65 19.2508C100.344 19.2508 98.9188 19.7258 98.4438 20.3195V16.5195C98.4438 15.4508 97.7313 14.7383 96.7812 14.7383C95.8312 14.7383 95.1187 15.5695 95.1187 16.5195V31.8383C95.1187 32.7883 95.95 33.6195 96.9 33.6195C97.85 33.6195 98.5625 32.7883 98.5625 31.8383V23.882C99.1562 23.2883 100.106 22.8133 101.294 22.8133C102.719 22.8133 103.55 23.6445 103.55 25.307V31.8383C103.55 32.907 104.262 33.7383 105.212 33.7383C106.281 33.7383 106.994 32.907 106.994 31.8383V25.0695C106.875 21.2695 104.975 19.2508 101.65 19.2508ZM134.9 19.3695C133.95 19.3695 133.119 20.2008 133.119 21.1508V29.582C132.525 29.9383 131.694 30.2945 130.625 30.2945C129.2 30.2945 128.131 29.4633 128.131 27.8008V21.1508C128.131 20.082 127.3 19.2508 126.35 19.2508C125.281 19.2508 124.688 20.082 124.688 21.1508V27.9195C124.688 31.6008 126.825 33.6195 130.506 33.6195C133.238 33.6195 135.137 32.6695 135.969 32.0758C136.444 31.8383 136.562 31.482 136.562 30.8883V21.1508C136.562 20.2008 135.85 19.3695 134.9 19.3695Z" fill="#3E474F"/>
<path d="M30.875 12.0078C29.5688 11.2953 27.55 12.4828 26.3625 14.6203L24.1062 18.4203C23.275 19.9641 23.3938 21.8641 24.4625 23.4078L24.5813 23.5266C25.65 24.9516 26.9563 26.3766 27.4312 26.8516C27.6688 27.0891 27.9062 27.4453 28.025 27.9203C28.3813 29.2266 27.6688 30.6516 26.2437 31.0078C24.9375 31.3641 23.5125 30.6516 23.1562 29.2266C23.0375 28.8703 23.0375 28.5141 23.0375 28.2766C23.1562 27.6828 22.9188 26.8516 22.0875 25.9016C21.2563 25.0703 19.7125 26.7328 19.1187 28.3953V28.5141C18.6438 30.1766 18.2875 31.7203 18.4062 31.8391C18.4062 31.9578 18.525 31.9578 18.525 32.0766C19.2375 33.5016 18.7625 35.1641 17.3375 35.8766C15.9125 36.5891 14.25 36.1141 13.5375 34.6891C12.825 33.2641 13.3 31.6016 14.725 30.8891C14.8438 30.8891 14.8438 30.7703 14.9625 30.7703C15.0813 30.7703 15.3187 30.0578 15.675 29.1078C15.9125 28.2766 16.0312 27.9203 16.15 27.5641C16.2688 27.0891 16.5063 25.9016 16.3875 25.4266C16.2688 24.8328 15.675 24.8328 15.0813 25.1891C14.725 25.4266 14.0125 26.0203 13.775 26.2578C13.1813 26.7328 12.7063 27.4453 12.4688 28.0391C12.35 28.2766 12.1125 28.6328 11.875 28.8703C10.8062 29.7016 9.2625 29.5828 8.3125 28.5141C7.48125 27.4453 7.6 25.9016 8.66875 24.9516C9.025 24.7141 9.38125 24.4766 9.7375 24.4766C10.3313 24.3578 12.4688 23.0516 13.775 22.1016C14.0125 21.9828 14.3687 21.6266 14.4875 21.5078C14.8438 21.0328 14.4875 20.6766 14.1312 20.6766C13.0625 20.7953 11.875 20.9141 11.6375 21.2703C11.5188 21.3891 11.4 21.6266 11.1625 21.7453C10.2125 22.4578 8.7875 22.2203 8.075 21.2703C7.3625 20.3203 7.6 18.8953 8.55 18.1828C8.90625 17.8266 9.5 17.7078 9.85625 17.7078C10.6875 17.7078 12.825 18.1828 14.4875 17.8266L14.9625 17.7078C16.7437 17.3516 18.8813 15.8078 19.7125 14.2641C19.7125 14.2641 20.5438 12.8391 21.4937 11.0578C22.5625 9.27656 22.4438 7.25781 21.375 6.66406L19.3562 5.47656C18.2875 4.88281 16.7437 4.88281 15.675 5.47656L1.9 13.3141C0.83125 13.9078 0 15.3328 0 16.5203V31.7203C0 32.9078 0.83125 34.3328 1.9 34.9266L15.675 42.7641C16.7437 43.3578 18.4062 43.3578 19.3562 42.7641L33.1312 34.9266C34.2 34.3328 35.0312 32.9078 35.0312 31.7203V16.5203C35.0312 15.3328 34.2 13.9078 33.1312 13.3141C33.1312 13.3141 32.1813 12.7203 30.875 12.0078Z" fill="url(#paint0_linear_4249_15888)"/>
</g>
<defs>
<linearGradient id="paint0_linear_4249_15888" x1="35.0312" y1="24.1203" x2="0" y2="24.1203" gradientUnits="userSpaceOnUse">
<stop stop-color="#31B978"/>
<stop offset="1" stop-color="#1AB69D"/>
</linearGradient>
<clipPath id="clip0_4249_15888">
<rect width="165" height="48" fill="white"/>
</clipPath>
</defs>
</svg>
