<svg width="90" height="68" viewBox="0 0 90 68" fill="none" xmlns="http://www.w3.org/2000/svg">
<path d="M20.4556 28.1688H20.4557C24.0305 28.1686 27.5327 29.1854 30.5574 31.1023C33.5821 33.0193 36.0058 35.7582 37.5474 39.0029C39.0891 42.2478 39.6853 45.8653 39.2668 49.437C38.8483 53.0087 37.4322 56.3876 35.1832 59.1831C32.9342 61.9786 29.9443 64.0763 26.56 65.2344C23.1756 66.3925 19.5344 66.564 16.0573 65.7291C12.5802 64.8943 9.40844 63.087 6.90939 60.5154C4.41028 57.9438 2.68604 54.713 1.93697 51.1965L1.67182 49.9518L1.63964 49.9592C1.56869 49.4365 1.49496 48.825 1.44959 48.2049L1.44852 48.1903L1.44711 48.1757C1.26522 46.2955 1.17594 43.6661 1.32562 40.4838C1.50598 37.3197 1.97101 33.6336 3.00545 29.7618C3.5526 27.8274 4.21862 25.8472 5.04052 23.9182C5.13739 23.7128 5.23303 23.5088 5.32796 23.3064C6.17276 21.5046 6.96169 19.822 8.06657 18.2758L8.09884 18.2307L8.12698 18.1828C9.19156 16.3729 10.5784 14.758 12.0491 13.1545L12.0816 13.1191L12.1113 13.0812C12.7077 12.3211 13.4262 11.6613 14.2199 11.002C14.485 10.7817 14.7722 10.551 15.067 10.3143C15.6006 9.88573 16.1589 9.4373 16.6561 8.99467C17.3597 8.40674 18.1245 7.91639 18.9319 7.4398C19.1925 7.28592 19.4675 7.12811 19.7476 6.96729C20.3031 6.64841 20.8792 6.31774 21.4053 5.98268L21.4175 5.97489L21.4296 5.96682C22.0935 5.522 22.7997 5.19431 23.5491 4.89109C23.794 4.79201 24.0618 4.68899 24.3379 4.58276C24.8362 4.39104 25.3617 4.18887 25.8289 3.98053C26.2295 3.82392 26.5987 3.673 26.944 3.53185C27.9461 3.12218 28.7468 2.79483 29.5312 2.64939L29.5715 2.64192L29.6111 2.63184C30.3012 2.45651 30.9142 2.30496 31.4801 2.16506C31.9076 2.05938 32.3082 1.96034 32.6948 1.86272C32.6968 1.86223 32.6987 1.86173 32.7007 1.86124L34.1603 1.50747L35.7768 7.9988L34.6444 8.47178L34.6407 8.47332L32.2682 9.45538C31.6745 9.65467 31.1306 9.94477 30.6408 10.2319C30.4131 10.3654 30.1842 10.5061 29.9644 10.6412C29.9402 10.6561 29.9161 10.6709 29.8921 10.6856C29.6458 10.8369 29.4073 10.9825 29.1638 11.1228L29.1272 11.1439L29.0921 11.1674C28.7927 11.368 28.4923 11.5342 28.1389 11.7297C27.9581 11.8297 27.7635 11.9373 27.548 12.0612C26.9666 12.3955 26.3096 12.8103 25.7198 13.3907C25.3964 13.6903 25.052 13.9599 24.658 14.2683C24.5207 14.3758 24.3773 14.4881 24.2267 14.6079C23.67 15.051 23.0531 15.571 22.5161 16.2207L22.5017 16.2382L22.4879 16.2561C22.2111 16.6169 21.9129 16.9336 21.5679 17.3001C21.4319 17.4444 21.2887 17.5965 21.1367 17.7621C20.6469 18.2954 20.1093 18.9273 19.7014 19.7103C19.6854 19.7349 19.6693 19.7595 19.6531 19.7841C18.91 20.9181 18.0853 22.1767 17.536 23.6332C16.9804 24.6957 16.6394 25.8479 16.3431 26.849L16.3407 26.8572L15.786 28.7317L17.7202 28.4488C17.7864 28.4391 17.8521 28.4294 17.9172 28.4199C18.8212 28.287 19.6254 28.1688 20.4556 28.1688ZM65.6938 26.8572L65.1391 28.7317L67.0733 28.4488C67.1395 28.4391 67.2052 28.4294 67.2703 28.4199C68.1743 28.287 68.9785 28.1688 69.8087 28.1688C73.3836 28.1686 76.8858 29.1854 79.9105 31.1023C82.9352 33.0193 85.3589 35.7582 86.9005 39.0029C88.4422 42.2478 89.0384 45.8653 88.6199 49.437C88.2014 53.0087 86.7853 56.3876 84.5363 59.1831C82.2873 61.9786 79.2974 64.0763 75.913 65.2344C72.5287 66.3925 68.8875 66.564 65.4104 65.7291C61.9333 64.8943 58.7615 63.087 56.2625 60.5154C53.7634 57.9438 52.0391 54.713 51.2901 51.1965L51.0249 49.9518L50.9927 49.9592C50.9218 49.4365 50.8481 48.825 50.8027 48.2049L50.8016 48.1903L50.8002 48.1757C50.6183 46.2955 50.529 43.6661 50.6787 40.4838C50.8591 37.3197 51.3241 33.6335 52.3586 29.7617C52.9057 27.8273 53.5717 25.8471 54.3936 23.9182C54.4905 23.7128 54.5861 23.5088 54.6811 23.3063C55.5259 21.5046 56.3148 19.822 57.4197 18.2758L57.4519 18.2307L57.4801 18.1828C58.5447 16.3729 59.9314 14.758 61.4022 13.1545L61.4342 13.1197L61.4634 13.0825C62.06 12.3242 62.7786 11.6653 63.5726 11.0062C63.8366 10.7871 64.1222 10.5578 64.4152 10.3225C64.9502 9.89302 65.5101 9.44351 66.0092 8.99919C66.7128 8.41125 67.4776 7.9209 68.285 7.44431C68.5457 7.29042 68.8206 7.13258 69.1008 6.97174C69.6563 6.65288 70.2323 6.32223 70.7584 5.9872L70.7717 5.97872L70.7848 5.96992C71.4473 5.52408 72.1533 5.19684 72.9036 4.89346C73.142 4.7971 73.4011 4.69732 73.6682 4.59445C74.1736 4.39985 74.7076 4.1942 75.1841 3.9797C75.5839 3.82338 75.9524 3.67274 76.2971 3.53185C77.2992 3.12218 78.0999 2.79483 78.8843 2.64939L78.9245 2.64192L78.9642 2.63184C79.6543 2.45651 80.2672 2.30497 80.8331 2.16508C81.2607 2.05938 81.6614 1.96033 82.048 1.8627C82.0499 1.86221 82.0519 1.86173 82.0538 1.86124L83.5134 1.50747L85.1299 7.9988L83.9975 8.47178L83.9938 8.47332L81.6213 9.45537C81.0276 9.65467 80.4837 9.94476 79.9939 10.2319C79.7661 10.3655 79.5371 10.5062 79.3171 10.6414L79.2452 10.6856C78.9989 10.8369 78.7604 10.9825 78.5169 11.1228L78.4803 11.1439L78.4452 11.1674C78.1458 11.368 77.8454 11.5342 77.492 11.7297C77.3112 11.8297 77.1166 11.9373 76.9011 12.0612C76.3197 12.3955 75.6627 12.8103 75.0729 13.3906C74.7496 13.6903 74.4051 13.9599 74.0112 14.2683C73.8738 14.3758 73.7304 14.4881 73.5798 14.6079C73.023 15.051 72.4062 15.571 71.8692 16.2207L71.8548 16.2382L71.841 16.2561C71.5642 16.6169 71.266 16.9336 70.921 17.3C70.7851 17.4444 70.6418 17.5965 70.4898 17.7621C70 18.2954 69.4624 18.9272 69.0546 19.7103C69.0385 19.7348 69.0223 19.7594 69.0062 19.7841C68.2631 20.9181 67.4384 22.1767 66.8891 23.6331C66.3335 24.6956 65.9926 25.8477 65.6963 26.8487L65.6938 26.8572Z" stroke="#407DF7" stroke-opacity="0.5" stroke-width="2.5"/>
</svg>
